<?xml version="1.0" encoding="UTF-8" standalone="no"?>
<!DOCTYPE svg PUBLIC "-//W3C//DTD SVG 1.1//EN"
 "http://www.w3.org/Graphics/SVG/1.1/DTD/svg11.dtd">
<!-- Generated by graphviz version 15.0.0 (20260523.1842)
 -->
<!-- Title: AST Pages: 1 -->
<svg width="482pt" height="692pt"
 viewBox="0.00 0.00 482.00 692.00" xmlns="http://www.w3.org/2000/svg" xmlns:xlink="http://www.w3.org/1999/xlink">
<g id="graph0" class="graph" transform="scale(1 1) rotate(0) translate(4 688)">
<title>AST</title>
<polygon fill="white" stroke="none" points="-4,4 -4,-688 478.5,-688 478.5,4 -4,4"/>
<!-- n0 -->
<g id="node1" class="node">
<title>n0</title>
<ellipse fill="#d5f5e3" stroke="black" cx="173.25" cy="-666" rx="38.96" ry="18"/>
<text xml:space="preserve" text-anchor="middle" x="173.25" y="-662.3" font-family="Arial" font-size="11.00">programa</text>
</g>
<!-- n1 -->
<g id="node2" class="node">
<title>n1</title>
<polygon fill="#d6eaf8" stroke="black" points="56.5,-612 0,-612 0,-576 56.5,-576 56.5,-612"/>
<text xml:space="preserve" text-anchor="middle" x="28.25" y="-590.3" font-family="Arial" font-size="11.00">program</text>
</g>
<!-- n0&#45;&gt;n1 -->
<g id="edge1" class="edge">
<title>n0&#45;&gt;n1</title>
<path fill="none" stroke="#555555" d="M146.99,-652.32C124.71,-641.57 92.43,-625.98 67.15,-613.78"/>
<polygon fill="#555555" stroke="#555555" points="68.68,-610.63 58.16,-609.44 65.64,-616.94 68.68,-610.63"/>
</g>
<!-- n2 -->
<g id="node3" class="node">
<title>n2</title>
<polygon fill="#d6eaf8" stroke="black" points="128.25,-612 74.25,-612 74.25,-576 128.25,-576 128.25,-612"/>
<text xml:space="preserve" text-anchor="middle" x="101.25" y="-590.3" font-family="Arial" font-size="11.00">simples</text>
</g>
<!-- n0&#45;&gt;n2 -->
<g id="edge2" class="edge">
<title>n0&#45;&gt;n2</title>
<path fill="none" stroke="#555555" d="M157.27,-649.46C148.47,-640.91 137.32,-630.07 127.29,-620.32"/>
<polygon fill="#555555" stroke="#555555" points="129.9,-617.98 120.29,-613.52 125.03,-623 129.9,-617.98"/>
</g>
<!-- n3 -->
<g id="node4" class="node">
<title>n3</title>
<polygon fill="#d6eaf8" stroke="black" points="200.25,-612 146.25,-612 146.25,-576 200.25,-576 200.25,-612"/>
<text xml:space="preserve" text-anchor="middle" x="173.25" y="-590.3" font-family="Arial" font-size="11.00">;</text>
</g>
<!-- n0&#45;&gt;n3 -->
<g id="edge3" class="edge">
<title>n0&#45;&gt;n3</title>
<path fill="none" stroke="#555555" d="M173.25,-647.7C173.25,-640.41 173.25,-631.73 173.25,-623.54"/>
<polygon fill="#555555" stroke="#555555" points="176.75,-623.62 173.25,-613.62 169.75,-623.62 176.75,-623.62"/>
</g>
<!-- n4 -->
<g id="node5" class="node">
<title>n4</title>
<ellipse fill="#d5f5e3" stroke="black" cx="245.25" cy="-594" rx="27" ry="18"/>
<text xml:space="preserve" text-anchor="middle" x="245.25" y="-590.3" font-family="Arial" font-size="11.00">bloco</text>
</g>
<!-- n0&#45;&gt;n4 -->
<g id="edge4" class="edge">
<title>n0&#45;&gt;n4</title>
<path fill="none" stroke="#555555" d="M189.23,-649.46C199.04,-639.93 211.75,-627.57 222.59,-617.03"/>
<polygon fill="#555555" stroke="#555555" points="224.97,-619.6 229.7,-610.12 220.09,-614.58 224.97,-619.6"/>
</g>
<!-- n26 -->
<g id="node27" class="node">
<title>n26</title>
<polygon fill="#d6eaf8" stroke="black" points="344.25,-612 290.25,-612 290.25,-576 344.25,-576 344.25,-612"/>
<text xml:space="preserve" text-anchor="middle" x="317.25" y="-590.3" font-family="Arial" font-size="11.00">.</text>
</g>
<!-- n0&#45;&gt;n26 -->
<g id="edge26" class="edge">
<title>n0&#45;&gt;n26</title>
<path fill="none" stroke="#555555" d="M199.33,-652.32C221.74,-641.43 254.33,-625.58 279.58,-613.31"/>
<polygon fill="#555555" stroke="#555555" points="281.07,-616.48 288.54,-608.96 278.01,-610.18 281.07,-616.48"/>
</g>
<!-- n5 -->
<g id="node6" class="node">
<title>n5</title>
<ellipse fill="#d5f5e3" stroke="black" cx="178.25" cy="-522" rx="41.3" ry="18"/>
<text xml:space="preserve" text-anchor="middle" x="178.25" y="-518.3" font-family="Arial" font-size="11.00">parte_decl</text>
</g>
<!-- n4&#45;&gt;n5 -->
<g id="edge5" class="edge">
<title>n4&#45;&gt;n5</title>
<path fill="none" stroke="#555555" d="M231.37,-578.5C222.66,-569.4 211.21,-557.44 201.18,-546.96"/>
<polygon fill="#555555" stroke="#555555" points="204.01,-544.85 194.56,-540.04 198.95,-549.69 204.01,-544.85"/>
</g>
<!-- n14 -->
<g id="node15" class="node">
<title>n14</title>
<ellipse fill="#d5f5e3" stroke="black" cx="311.25" cy="-522" rx="55.33" ry="18"/>
<text xml:space="preserve" text-anchor="middle" x="311.25" y="-518.3" font-family="Arial" font-size="11.00">cmd_composto</text>
</g>
<!-- n4&#45;&gt;n14 -->
<g id="edge14" class="edge">
<title>n4&#45;&gt;n14</title>
<path fill="none" stroke="#555555" d="M259.25,-578.15C267.64,-569.25 278.53,-557.71 288.17,-547.48"/>
<polygon fill="#555555" stroke="#555555" points="290.54,-550.07 294.85,-540.39 285.45,-545.27 290.54,-550.07"/>
</g>
<!-- n6 -->
<g id="node7" class="node">
<title>n6</title>
<polygon fill="#d6eaf8" stroke="black" points="76.25,-468 22.25,-468 22.25,-432 76.25,-432 76.25,-468"/>
<text xml:space="preserve" text-anchor="middle" x="49.25" y="-446.3" font-family="Arial" font-size="11.00">var</text>
</g>
<!-- n5&#45;&gt;n6 -->
<g id="edge6" class="edge">
<title>n5&#45;&gt;n6</title>
<path fill="none" stroke="#555555" d="M153.07,-507.34C134.17,-497.08 107.98,-482.87 86.63,-471.28"/>
<polygon fill="#555555" stroke="#555555" points="88.38,-468.25 77.93,-466.56 85.05,-474.41 88.38,-468.25"/>
</g>
<!-- n7 -->
<g id="node8" class="node">
<title>n7</title>
<ellipse fill="#d5f5e3" stroke="black" cx="129.25" cy="-450" rx="35.22" ry="18"/>
<text xml:space="preserve" text-anchor="middle" x="129.25" y="-446.3" font-family="Arial" font-size="11.00">decl_var</text>
</g>
<!-- n5&#45;&gt;n7 -->
<g id="edge7" class="edge">
<title>n5&#45;&gt;n7</title>
<path fill="none" stroke="#555555" d="M166.64,-504.41C160.84,-496.13 153.7,-485.92 147.21,-476.66"/>
<polygon fill="#555555" stroke="#555555" points="150.25,-474.9 141.65,-468.71 144.51,-478.91 150.25,-474.9"/>
</g>
<!-- n13 -->
<g id="node14" class="node">
<title>n13</title>
<polygon fill="#d6eaf8" stroke="black" points="236.25,-468 182.25,-468 182.25,-432 236.25,-432 236.25,-468"/>
<text xml:space="preserve" text-anchor="middle" x="209.25" y="-446.3" font-family="Arial" font-size="11.00">;</text>
</g>
<!-- n5&#45;&gt;n13 -->
<g id="edge13" class="edge">
<title>n5&#45;&gt;n13</title>
<path fill="none" stroke="#555555" d="M185.75,-504.05C189.13,-496.43 193.2,-487.23 197,-478.65"/>
<polygon fill="#555555" stroke="#555555" points="200.14,-480.22 200.99,-469.66 193.74,-477.39 200.14,-480.22"/>
</g>
<!-- n8 -->
<g id="node9" class="node">
<title>n8</title>
<ellipse fill="#d5f5e3" stroke="black" cx="50.25" cy="-378" rx="33.82" ry="18"/>
<text xml:space="preserve" text-anchor="middle" x="50.25" y="-374.3" font-family="Arial" font-size="11.00">lista_ids</text>
</g>
<!-- n7&#45;&gt;n8 -->
<g id="edge8" class="edge">
<title>n7&#45;&gt;n8</title>
<path fill="none" stroke="#555555" d="M112.11,-433.81C101.37,-424.3 87.35,-411.87 75.37,-401.26"/>
<polygon fill="#555555" stroke="#555555" points="78.03,-398.93 68.22,-394.92 73.38,-404.17 78.03,-398.93"/>
</g>
<!-- n10 -->
<g id="node11" class="node">
<title>n10</title>
<polygon fill="#d6eaf8" stroke="black" points="156.25,-396 102.25,-396 102.25,-360 156.25,-360 156.25,-396"/>
<text xml:space="preserve" text-anchor="middle" x="129.25" y="-374.3" font-family="Arial" font-size="11.00">:</text>
</g>
<!-- n7&#45;&gt;n10 -->
<g id="edge10" class="edge">
<title>n7&#45;&gt;n10</title>
<path fill="none" stroke="#555555" d="M129.25,-431.7C129.25,-424.41 129.25,-415.73 129.25,-407.54"/>
<polygon fill="#555555" stroke="#555555" points="132.75,-407.62 129.25,-397.62 125.75,-407.62 132.75,-407.62"/>
</g>
<!-- n11 -->
<g id="node12" class="node">
<title>n11</title>
<ellipse fill="#d5f5e3" stroke="black" cx="201.25" cy="-378" rx="27" ry="18"/>
<text xml:space="preserve" text-anchor="middle" x="201.25" y="-374.3" font-family="Arial" font-size="11.00">tipo</text>
</g>
<!-- n7&#45;&gt;n11 -->
<g id="edge11" class="edge">
<title>n7&#45;&gt;n11</title>
<path fill="none" stroke="#555555" d="M145.23,-433.46C155.04,-423.93 167.75,-411.57 178.59,-401.03"/>
<polygon fill="#555555" stroke="#555555" points="180.97,-403.6 185.7,-394.12 176.09,-398.58 180.97,-403.6"/>
</g>
<!-- n9 -->
<g id="node10" class="node">
<title>n9</title>
<polygon fill="#d6eaf8" stroke="black" points="77.25,-324 23.25,-324 23.25,-288 77.25,-288 77.25,-324"/>
<text xml:space="preserve" text-anchor="middle" x="50.25" y="-302.3" font-family="Arial" font-size="11.00">x</text>
</g>
<!-- n8&#45;&gt;n9 -->
<g id="edge9" class="edge">
<title>n8&#45;&gt;n9</title>
<path fill="none" stroke="#555555" d="M50.25,-359.7C50.25,-352.41 50.25,-343.73 50.25,-335.54"/>
<polygon fill="#555555" stroke="#555555" points="53.75,-335.62 50.25,-325.62 46.75,-335.62 53.75,-335.62"/>
</g>
<!-- n12 -->
<g id="node13" class="node">
<title>n12</title>
<polygon fill="#d6eaf8" stroke="black" points="228.25,-324 174.25,-324 174.25,-288 228.25,-288 228.25,-324"/>
<text xml:space="preserve" text-anchor="middle" x="201.25" y="-302.3" font-family="Arial" font-size="11.00">integer</text>
</g>
<!-- n11&#45;&gt;n12 -->
<g id="edge12" class="edge">
<title>n11&#45;&gt;n12</title>
<path fill="none" stroke="#555555" d="M201.25,-359.7C201.25,-352.41 201.25,-343.73 201.25,-335.54"/>
<polygon fill="#555555" stroke="#555555" points="204.75,-335.62 201.25,-325.62 197.75,-335.62 204.75,-335.62"/>
</g>
<!-- n15 -->
<g id="node16" class="node">
<title>n15</title>
<polygon fill="#d6eaf8" stroke="black" points="308.25,-468 254.25,-468 254.25,-432 308.25,-432 308.25,-468"/>
<text xml:space="preserve" text-anchor="middle" x="281.25" y="-446.3" font-family="Arial" font-size="11.00">begin</text>
</g>
<!-- n14&#45;&gt;n15 -->
<g id="edge15" class="edge">
<title>n14&#45;&gt;n15</title>
<path fill="none" stroke="#555555" d="M303.83,-503.7C300.6,-496.15 296.73,-487.12 293.11,-478.68"/>
<polygon fill="#555555" stroke="#555555" points="296.33,-477.31 289.18,-469.5 289.9,-480.07 296.33,-477.31"/>
</g>
<!-- n16 -->
<g id="node17" class="node">
<title>n16</title>
<ellipse fill="#d5f5e3" stroke="black" cx="353.25" cy="-450" rx="27" ry="18"/>
<text xml:space="preserve" text-anchor="middle" x="353.25" y="-446.3" font-family="Arial" font-size="11.00">cmd</text>
</g>
<!-- n14&#45;&gt;n16 -->
<g id="edge16" class="edge">
<title>n14&#45;&gt;n16</title>
<path fill="none" stroke="#555555" d="M321.42,-504.05C326.36,-495.82 332.4,-485.76 337.88,-476.61"/>
<polygon fill="#555555" stroke="#555555" points="340.83,-478.5 342.97,-468.13 334.83,-474.9 340.83,-478.5"/>
</g>
<!-- n25 -->
<g id="node26" class="node">
<title>n25</title>
<polygon fill="#d6eaf8" stroke="black" points="452.25,-468 398.25,-468 398.25,-432 452.25,-432 452.25,-468"/>
<text xml:space="preserve" text-anchor="middle" x="425.25" y="-446.3" font-family="Arial" font-size="11.00">end</text>
</g>
<!-- n14&#45;&gt;n25 -->
<g id="edge25" class="edge">
<title>n14&#45;&gt;n25</title>
<path fill="none" stroke="#555555" d="M336.27,-505.64C351.5,-496.29 371.24,-484.17 388.25,-473.72"/>
<polygon fill="#555555" stroke="#555555" points="389.92,-476.8 396.61,-468.59 386.25,-470.84 389.92,-476.8"/>
</g>
<!-- n17 -->
<g id="node18" class="node">
<title>n17</title>
<ellipse fill="#d5f5e3" stroke="black" cx="353.25" cy="-378" rx="38.96" ry="18"/>
<text xml:space="preserve" text-anchor="middle" x="353.25" y="-374.3" font-family="Arial" font-size="11.00">atribuicao</text>
</g>
<!-- n16&#45;&gt;n17 -->
<g id="edge17" class="edge">
<title>n16&#45;&gt;n17</title>
<path fill="none" stroke="#555555" d="M353.25,-431.7C353.25,-424.41 353.25,-415.73 353.25,-407.54"/>
<polygon fill="#555555" stroke="#555555" points="356.75,-407.62 353.25,-397.62 349.75,-407.62 356.75,-407.62"/>
</g>
<!-- n18 -->
<g id="node19" class="node">
<title>n18</title>
<polygon fill="#d6eaf8" stroke="black" points="308.25,-324 254.25,-324 254.25,-288 308.25,-288 308.25,-324"/>
<text xml:space="preserve" text-anchor="middle" x="281.25" y="-302.3" font-family="Arial" font-size="11.00">x</text>
</g>
<!-- n17&#45;&gt;n18 -->
<g id="edge18" class="edge">
<title>n17&#45;&gt;n18</title>
<path fill="none" stroke="#555555" d="M337.27,-361.46C328.47,-352.91 317.32,-342.07 307.29,-332.32"/>
<polygon fill="#555555" stroke="#555555" points="309.9,-329.98 300.29,-325.52 305.03,-335 309.9,-329.98"/>
</g>
<!-- n19 -->
<g id="node20" class="node">
<title>n19</title>
<polygon fill="#d6eaf8" stroke="black" points="380.25,-324 326.25,-324 326.25,-288 380.25,-288 380.25,-324"/>
<text xml:space="preserve" text-anchor="middle" x="353.25" y="-302.3" font-family="Arial" font-size="11.00">:=</text>
</g>
<!-- n17&#45;&gt;n19 -->
<g id="edge19" class="edge">
<title>n17&#45;&gt;n19</title>
<path fill="none" stroke="#555555" d="M353.25,-359.7C353.25,-352.41 353.25,-343.73 353.25,-335.54"/>
<polygon fill="#555555" stroke="#555555" points="356.75,-335.62 353.25,-325.62 349.75,-335.62 356.75,-335.62"/>
</g>
<!-- n20 -->
<g id="node21" class="node">
<title>n20</title>
<ellipse fill="#d5f5e3" stroke="black" cx="425.25" cy="-306" rx="27" ry="18"/>
<text xml:space="preserve" text-anchor="middle" x="425.25" y="-302.3" font-family="Arial" font-size="11.00">expr</text>
</g>
<!-- n17&#45;&gt;n20 -->
<g id="edge20" class="edge">
<title>n17&#45;&gt;n20</title>
<path fill="none" stroke="#555555" d="M369.23,-361.46C379.04,-351.93 391.75,-339.57 402.59,-329.03"/>
<polygon fill="#555555" stroke="#555555" points="404.97,-331.6 409.7,-322.12 400.09,-326.58 404.97,-331.6"/>
</g>
<!-- n21 -->
<g id="node22" class="node">
<title>n21</title>
<ellipse fill="#d5f5e3" stroke="black" cx="425.25" cy="-234" rx="49.25" ry="18"/>
<text xml:space="preserve" text-anchor="middle" x="425.25" y="-230.3" font-family="Arial" font-size="11.00">expr_simples</text>
</g>
<!-- n20&#45;&gt;n21 -->
<g id="edge21" class="edge">
<title>n20&#45;&gt;n21</title>
<path fill="none" stroke="#555555" d="M425.25,-287.7C425.25,-280.41 425.25,-271.73 425.25,-263.54"/>
<polygon fill="#555555" stroke="#555555" points="428.75,-263.62 425.25,-253.62 421.75,-263.62 428.75,-263.62"/>
</g>
<!-- n22 -->
<g id="node23" class="node">
<title>n22</title>
<ellipse fill="#d5f5e3" stroke="black" cx="425.25" cy="-162" rx="27.27" ry="18"/>
<text xml:space="preserve" text-anchor="middle" x="425.25" y="-158.3" font-family="Arial" font-size="11.00">termo</text>
</g>
<!-- n21&#45;&gt;n22 -->
<g id="edge22" class="edge">
<title>n21&#45;&gt;n22</title>
<path fill="none" stroke="#555555" d="M425.25,-215.7C425.25,-208.41 425.25,-199.73 425.25,-191.54"/>
<polygon fill="#555555" stroke="#555555" points="428.75,-191.62 425.25,-181.62 421.75,-191.62 428.75,-191.62"/>
</g>
<!-- n23 -->
<g id="node24" class="node">
<title>n23</title>
<ellipse fill="#d5f5e3" stroke="black" cx="425.25" cy="-90" rx="27" ry="18"/>
<text xml:space="preserve" text-anchor="middle" x="425.25" y="-86.3" font-family="Arial" font-size="11.00">fator</text>
</g>
<!-- n22&#45;&gt;n23 -->
<g id="edge23" class="edge">
<title>n22&#45;&gt;n23</title>
<path fill="none" stroke="#555555" d="M425.25,-143.7C425.25,-136.41 425.25,-127.73 425.25,-119.54"/>
<polygon fill="#555555" stroke="#555555" points="428.75,-119.62 425.25,-109.62 421.75,-119.62 428.75,-119.62"/>
</g>
<!-- n24 -->
<g id="node25" class="node">
<title>n24</title>
<polygon fill="#d6eaf8" stroke="black" points="452.25,-36 398.25,-36 398.25,0 452.25,0 452.25,-36"/>
<text xml:space="preserve" text-anchor="middle" x="425.25" y="-14.3" font-family="Arial" font-size="11.00">10</text>
</g>
<!-- n23&#45;&gt;n24 -->
<g id="edge24" class="edge">
<title>n23&#45;&gt;n24</title>
<path fill="none" stroke="#555555" d="M425.25,-71.7C425.25,-64.41 425.25,-55.73 425.25,-47.54"/>
<polygon fill="#555555" stroke="#555555" points="428.75,-47.62 425.25,-37.62 421.75,-47.62 428.75,-47.62"/>
</g>
</g>
</svg>
