<?xml version="1.0" encoding="UTF-8" standalone="no"?>
<!DOCTYPE svg PUBLIC "-//W3C//DTD SVG 1.1//EN"
 "http://www.w3.org/Graphics/SVG/1.1/DTD/svg11.dtd">
<!-- Generated by graphviz version 15.0.0 (20260523.1842)
 -->
<!-- Title: AST Pages: 1 -->
<svg width="1400pt" height="836pt"
 viewBox="0.00 0.00 1400.00 836.00" xmlns="http://www.w3.org/2000/svg" xmlns:xlink="http://www.w3.org/1999/xlink">
<g id="graph0" class="graph" transform="scale(1 1) rotate(0) translate(4 832)">
<title>AST</title>
<polygon fill="white" stroke="none" points="-4,4 -4,-832 1396.27,-832 1396.27,4 -4,4"/>
<!-- n0 -->
<g id="node1" class="node">
<title>n0</title>
<ellipse fill="#d5f5e3" stroke="black" cx="314" cy="-810" rx="38.96" ry="18"/>
<text xml:space="preserve" text-anchor="middle" x="314" y="-806.3" font-family="Arial" font-size="11.00">programa</text>
</g>
<!-- n1 -->
<g id="node2" class="node">
<title>n1</title>
<polygon fill="#d6eaf8" stroke="black" points="181.25,-756 124.75,-756 124.75,-720 181.25,-720 181.25,-756"/>
<text xml:space="preserve" text-anchor="middle" x="153" y="-734.3" font-family="Arial" font-size="11.00">program</text>
</g>
<!-- n0&#45;&gt;n1 -->
<g id="edge1" class="edge">
<title>n0&#45;&gt;n1</title>
<path fill="none" stroke="#555555" d="M285.84,-797.22C262.81,-787.52 229.17,-773.24 192.17,-756.91"/>
<polygon fill="#555555" stroke="#555555" points="193.59,-753.72 183.03,-752.87 190.76,-760.12 193.59,-753.72"/>
</g>
<!-- n2 -->
<g id="node3" class="node">
<title>n2</title>
<polygon fill="#d6eaf8" stroke="black" points="268.62,-756 199.38,-756 199.38,-720 268.62,-720 268.62,-756"/>
<text xml:space="preserve" text-anchor="middle" x="234" y="-734.3" font-family="Arial" font-size="11.00">condicional</text>
</g>
<!-- n0&#45;&gt;n2 -->
<g id="edge2" class="edge">
<title>n0&#45;&gt;n2</title>
<path fill="none" stroke="#555555" d="M296.64,-793.81C286.61,-785.03 273.74,-773.77 262.28,-763.74"/>
<polygon fill="#555555" stroke="#555555" points="264.83,-761.33 255,-757.37 260.22,-766.59 264.83,-761.33"/>
</g>
<!-- n3 -->
<g id="node4" class="node">
<title>n3</title>
<polygon fill="#d6eaf8" stroke="black" points="341,-756 287,-756 287,-720 341,-720 341,-756"/>
<text xml:space="preserve" text-anchor="middle" x="314" y="-734.3" font-family="Arial" font-size="11.00">;</text>
</g>
<!-- n0&#45;&gt;n3 -->
<g id="edge3" class="edge">
<title>n0&#45;&gt;n3</title>
<path fill="none" stroke="#555555" d="M314,-791.7C314,-784.41 314,-775.73 314,-767.54"/>
<polygon fill="#555555" stroke="#555555" points="317.5,-767.62 314,-757.62 310.5,-767.62 317.5,-767.62"/>
</g>
<!-- n4 -->
<g id="node5" class="node">
<title>n4</title>
<ellipse fill="#d5f5e3" stroke="black" cx="386" cy="-738" rx="27" ry="18"/>
<text xml:space="preserve" text-anchor="middle" x="386" y="-734.3" font-family="Arial" font-size="11.00">bloco</text>
</g>
<!-- n0&#45;&gt;n4 -->
<g id="edge4" class="edge">
<title>n0&#45;&gt;n4</title>
<path fill="none" stroke="#555555" d="M329.98,-793.46C339.79,-783.93 352.5,-771.57 363.34,-761.03"/>
<polygon fill="#555555" stroke="#555555" points="365.72,-763.6 370.45,-754.12 360.84,-758.58 365.72,-763.6"/>
</g>
<!-- n80 -->
<g id="node81" class="node">
<title>n80</title>
<polygon fill="#d6eaf8" stroke="black" points="485,-756 431,-756 431,-720 485,-720 485,-756"/>
<text xml:space="preserve" text-anchor="middle" x="458" y="-734.3" font-family="Arial" font-size="11.00">.</text>
</g>
<!-- n0&#45;&gt;n80 -->
<g id="edge80" class="edge">
<title>n0&#45;&gt;n80</title>
<path fill="none" stroke="#555555" d="M340.08,-796.32C362.49,-785.43 395.08,-769.58 420.33,-757.31"/>
<polygon fill="#555555" stroke="#555555" points="421.82,-760.48 429.29,-752.96 418.76,-754.18 421.82,-760.48"/>
</g>
<!-- n5 -->
<g id="node6" class="node">
<title>n5</title>
<ellipse fill="#d5f5e3" stroke="black" cx="225" cy="-666" rx="41.3" ry="18"/>
<text xml:space="preserve" text-anchor="middle" x="225" y="-662.3" font-family="Arial" font-size="11.00">parte_decl</text>
</g>
<!-- n4&#45;&gt;n5 -->
<g id="edge5" class="edge">
<title>n4&#45;&gt;n5</title>
<path fill="none" stroke="#555555" d="M364.36,-726.61C359.65,-724.39 354.67,-722.09 350,-720 321.7,-707.33 289.49,-693.68 264.85,-683.41"/>
<polygon fill="#555555" stroke="#555555" points="266.42,-680.28 255.84,-679.67 263.73,-686.74 266.42,-680.28"/>
</g>
<!-- n16 -->
<g id="node17" class="node">
<title>n16</title>
<ellipse fill="#d5f5e3" stroke="black" cx="547" cy="-666" rx="55.33" ry="18"/>
<text xml:space="preserve" text-anchor="middle" x="547" y="-662.3" font-family="Arial" font-size="11.00">cmd_composto</text>
</g>
<!-- n4&#45;&gt;n16 -->
<g id="edge16" class="edge">
<title>n4&#45;&gt;n16</title>
<path fill="none" stroke="#555555" d="M407.64,-726.61C412.35,-724.39 417.33,-722.09 422,-720 448.77,-708.01 479.05,-695.15 503.1,-685.11"/>
<polygon fill="#555555" stroke="#555555" points="504.4,-688.36 512.28,-681.28 501.71,-681.9 504.4,-688.36"/>
</g>
<!-- n6 -->
<g id="node7" class="node">
<title>n6</title>
<polygon fill="#d6eaf8" stroke="black" points="132,-612 78,-612 78,-576 132,-576 132,-612"/>
<text xml:space="preserve" text-anchor="middle" x="105" y="-590.3" font-family="Arial" font-size="11.00">var</text>
</g>
<!-- n5&#45;&gt;n6 -->
<g id="edge6" class="edge">
<title>n5&#45;&gt;n6</title>
<path fill="none" stroke="#555555" d="M201,-651C184.19,-641.19 161.39,-627.9 142.23,-616.72"/>
<polygon fill="#555555" stroke="#555555" points="144.02,-613.71 133.62,-611.69 140.49,-619.75 144.02,-613.71"/>
</g>
<!-- n7 -->
<g id="node8" class="node">
<title>n7</title>
<ellipse fill="#d5f5e3" stroke="black" cx="185" cy="-594" rx="35.22" ry="18"/>
<text xml:space="preserve" text-anchor="middle" x="185" y="-590.3" font-family="Arial" font-size="11.00">decl_var</text>
</g>
<!-- n5&#45;&gt;n7 -->
<g id="edge7" class="edge">
<title>n5&#45;&gt;n7</title>
<path fill="none" stroke="#555555" d="M215.32,-648.05C210.8,-640.14 205.31,-630.54 200.25,-621.69"/>
<polygon fill="#555555" stroke="#555555" points="203.34,-620.05 195.34,-613.1 197.27,-623.52 203.34,-620.05"/>
</g>
<!-- n15 -->
<g id="node16" class="node">
<title>n15</title>
<polygon fill="#d6eaf8" stroke="black" points="292,-612 238,-612 238,-576 292,-576 292,-612"/>
<text xml:space="preserve" text-anchor="middle" x="265" y="-590.3" font-family="Arial" font-size="11.00">;</text>
</g>
<!-- n5&#45;&gt;n15 -->
<g id="edge15" class="edge">
<title>n5&#45;&gt;n15</title>
<path fill="none" stroke="#555555" d="M234.68,-648.05C239.14,-640.26 244.53,-630.82 249.53,-622.08"/>
<polygon fill="#555555" stroke="#555555" points="252.45,-624.01 254.38,-613.59 246.38,-620.54 252.45,-624.01"/>
</g>
<!-- n8 -->
<g id="node9" class="node">
<title>n8</title>
<ellipse fill="#d5f5e3" stroke="black" cx="99" cy="-522" rx="33.82" ry="18"/>
<text xml:space="preserve" text-anchor="middle" x="99" y="-518.3" font-family="Arial" font-size="11.00">lista_ids</text>
</g>
<!-- n7&#45;&gt;n8 -->
<g id="edge8" class="edge">
<title>n7&#45;&gt;n8</title>
<path fill="none" stroke="#555555" d="M166.76,-578.15C154.82,-568.44 139.02,-555.58 125.68,-544.72"/>
<polygon fill="#555555" stroke="#555555" points="128.06,-542.14 118.09,-538.54 123.64,-547.57 128.06,-542.14"/>
</g>
<!-- n12 -->
<g id="node13" class="node">
<title>n12</title>
<polygon fill="#d6eaf8" stroke="black" points="205,-540 151,-540 151,-504 205,-504 205,-540"/>
<text xml:space="preserve" text-anchor="middle" x="178" y="-518.3" font-family="Arial" font-size="11.00">:</text>
</g>
<!-- n7&#45;&gt;n12 -->
<g id="edge12" class="edge">
<title>n7&#45;&gt;n12</title>
<path fill="none" stroke="#555555" d="M183.27,-575.7C182.54,-568.41 181.67,-559.73 180.85,-551.54"/>
<polygon fill="#555555" stroke="#555555" points="184.34,-551.21 179.86,-541.61 177.37,-551.91 184.34,-551.21"/>
</g>
<!-- n13 -->
<g id="node14" class="node">
<title>n13</title>
<ellipse fill="#d5f5e3" stroke="black" cx="250" cy="-522" rx="27" ry="18"/>
<text xml:space="preserve" text-anchor="middle" x="250" y="-518.3" font-family="Arial" font-size="11.00">tipo</text>
</g>
<!-- n7&#45;&gt;n13 -->
<g id="edge13" class="edge">
<title>n7&#45;&gt;n13</title>
<path fill="none" stroke="#555555" d="M199.43,-577.46C208.07,-568.15 219.23,-556.14 228.86,-545.77"/>
<polygon fill="#555555" stroke="#555555" points="231.23,-548.35 235.47,-538.65 226.1,-543.59 231.23,-548.35"/>
</g>
<!-- n9 -->
<g id="node10" class="node">
<title>n9</title>
<polygon fill="#d6eaf8" stroke="black" points="54,-468 0,-468 0,-432 54,-432 54,-468"/>
<text xml:space="preserve" text-anchor="middle" x="27" y="-446.3" font-family="Arial" font-size="11.00">x</text>
</g>
<!-- n8&#45;&gt;n9 -->
<g id="edge9" class="edge">
<title>n8&#45;&gt;n9</title>
<path fill="none" stroke="#555555" d="M83.38,-505.81C74.52,-497.2 63.22,-486.21 53.06,-476.34"/>
<polygon fill="#555555" stroke="#555555" points="55.57,-473.89 45.96,-469.43 50.69,-478.91 55.57,-473.89"/>
</g>
<!-- n10 -->
<g id="node11" class="node">
<title>n10</title>
<polygon fill="#d6eaf8" stroke="black" points="126,-468 72,-468 72,-432 126,-432 126,-468"/>
<text xml:space="preserve" text-anchor="middle" x="99" y="-446.3" font-family="Arial" font-size="11.00">,</text>
</g>
<!-- n8&#45;&gt;n10 -->
<g id="edge10" class="edge">
<title>n8&#45;&gt;n10</title>
<path fill="none" stroke="#555555" d="M99,-503.7C99,-496.41 99,-487.73 99,-479.54"/>
<polygon fill="#555555" stroke="#555555" points="102.5,-479.62 99,-469.62 95.5,-479.62 102.5,-479.62"/>
</g>
<!-- n11 -->
<g id="node12" class="node">
<title>n11</title>
<polygon fill="#d6eaf8" stroke="black" points="198,-468 144,-468 144,-432 198,-432 198,-468"/>
<text xml:space="preserve" text-anchor="middle" x="171" y="-446.3" font-family="Arial" font-size="11.00">y</text>
</g>
<!-- n8&#45;&gt;n11 -->
<g id="edge11" class="edge">
<title>n8&#45;&gt;n11</title>
<path fill="none" stroke="#555555" d="M114.62,-505.81C123.48,-497.2 134.78,-486.21 144.94,-476.34"/>
<polygon fill="#555555" stroke="#555555" points="147.31,-478.91 152.04,-469.43 142.43,-473.89 147.31,-478.91"/>
</g>
<!-- n14 -->
<g id="node15" class="node">
<title>n14</title>
<polygon fill="#d6eaf8" stroke="black" points="273,-468 219,-468 219,-432 273,-432 273,-468"/>
<text xml:space="preserve" text-anchor="middle" x="246" y="-446.3" font-family="Arial" font-size="11.00">integer</text>
</g>
<!-- n13&#45;&gt;n14 -->
<g id="edge14" class="edge">
<title>n13&#45;&gt;n14</title>
<path fill="none" stroke="#555555" d="M249.01,-503.7C248.59,-496.41 248.1,-487.73 247.63,-479.54"/>
<polygon fill="#555555" stroke="#555555" points="251.13,-479.4 247.06,-469.62 244.14,-479.8 251.13,-479.4"/>
</g>
<!-- n17 -->
<g id="node18" class="node">
<title>n17</title>
<polygon fill="#d6eaf8" stroke="black" points="394,-612 340,-612 340,-576 394,-576 394,-612"/>
<text xml:space="preserve" text-anchor="middle" x="367" y="-590.3" font-family="Arial" font-size="11.00">begin</text>
</g>
<!-- n16&#45;&gt;n17 -->
<g id="edge17" class="edge">
<title>n16&#45;&gt;n17</title>
<path fill="none" stroke="#555555" d="M509.65,-652.28C482.72,-642.87 445.34,-629.37 405,-612.68"/>
<polygon fill="#555555" stroke="#555555" points="406.38,-609.46 395.8,-608.83 403.68,-615.92 406.38,-609.46"/>
</g>
<!-- n18 -->
<g id="node19" class="node">
<title>n18</title>
<ellipse fill="#d5f5e3" stroke="black" cx="439" cy="-594" rx="27" ry="18"/>
<text xml:space="preserve" text-anchor="middle" x="439" y="-590.3" font-family="Arial" font-size="11.00">cmd</text>
</g>
<!-- n16&#45;&gt;n18 -->
<g id="edge18" class="edge">
<title>n16&#45;&gt;n18</title>
<path fill="none" stroke="#555555" d="M523.03,-649.46C506.62,-638.82 484.77,-624.67 467.47,-613.45"/>
<polygon fill="#555555" stroke="#555555" points="469.45,-610.56 459.15,-608.06 465.64,-616.44 469.45,-610.56"/>
</g>
<!-- n27 -->
<g id="node28" class="node">
<title>n27</title>
<polygon fill="#d6eaf8" stroke="black" points="538,-612 484,-612 484,-576 538,-576 538,-612"/>
<text xml:space="preserve" text-anchor="middle" x="511" y="-590.3" font-family="Arial" font-size="11.00">;</text>
</g>
<!-- n16&#45;&gt;n27 -->
<g id="edge27" class="edge">
<title>n16&#45;&gt;n27</title>
<path fill="none" stroke="#555555" d="M538.29,-648.05C534.32,-640.35 529.53,-631.03 525.07,-622.36"/>
<polygon fill="#555555" stroke="#555555" points="528.26,-620.91 520.58,-613.62 522.04,-624.11 528.26,-620.91"/>
</g>
<!-- n28 -->
<g id="node29" class="node">
<title>n28</title>
<ellipse fill="#d5f5e3" stroke="black" cx="583" cy="-594" rx="27" ry="18"/>
<text xml:space="preserve" text-anchor="middle" x="583" y="-590.3" font-family="Arial" font-size="11.00">cmd</text>
</g>
<!-- n16&#45;&gt;n28 -->
<g id="edge28" class="edge">
<title>n16&#45;&gt;n28</title>
<path fill="none" stroke="#555555" d="M555.71,-648.05C559.84,-640.03 564.87,-630.26 569.48,-621.3"/>
<polygon fill="#555555" stroke="#555555" points="572.46,-623.15 573.92,-612.65 566.24,-619.95 572.46,-623.15"/>
</g>
<!-- n37 -->
<g id="node38" class="node">
<title>n37</title>
<polygon fill="#d6eaf8" stroke="black" points="682,-612 628,-612 628,-576 682,-576 682,-612"/>
<text xml:space="preserve" text-anchor="middle" x="655" y="-590.3" font-family="Arial" font-size="11.00">;</text>
</g>
<!-- n16&#45;&gt;n37 -->
<g id="edge37" class="edge">
<title>n16&#45;&gt;n37</title>
<path fill="none" stroke="#555555" d="M570.97,-649.46C584.97,-640.39 602.91,-628.76 618.62,-618.58"/>
<polygon fill="#555555" stroke="#555555" points="620.3,-621.66 626.79,-613.28 616.5,-615.79 620.3,-621.66"/>
</g>
<!-- n38 -->
<g id="node39" class="node">
<title>n38</title>
<ellipse fill="#d5f5e3" stroke="black" cx="727" cy="-594" rx="27" ry="18"/>
<text xml:space="preserve" text-anchor="middle" x="727" y="-590.3" font-family="Arial" font-size="11.00">cmd</text>
</g>
<!-- n16&#45;&gt;n38 -->
<g id="edge38" class="edge">
<title>n16&#45;&gt;n38</title>
<path fill="none" stroke="#555555" d="M584.35,-652.28C613.62,-642.06 655.25,-626.98 691,-612 692.51,-611.37 694.06,-610.7 695.61,-610.02"/>
<polygon fill="#555555" stroke="#555555" points="696.79,-613.33 704.44,-606.01 693.89,-606.96 696.79,-613.33"/>
</g>
<!-- n79 -->
<g id="node80" class="node">
<title>n79</title>
<polygon fill="#d6eaf8" stroke="black" points="826,-612 772,-612 772,-576 826,-576 826,-612"/>
<text xml:space="preserve" text-anchor="middle" x="799" y="-590.3" font-family="Arial" font-size="11.00">end</text>
</g>
<!-- n16&#45;&gt;n79 -->
<g id="edge79" class="edge">
<title>n16&#45;&gt;n79</title>
<path fill="none" stroke="#555555" d="M594.14,-656.28C636.02,-647.9 698.89,-633.79 760.96,-612.37"/>
<polygon fill="#555555" stroke="#555555" points="762.03,-615.7 770.29,-609.08 759.7,-609.1 762.03,-615.7"/>
</g>
<!-- n19 -->
<g id="node20" class="node">
<title>n19</title>
<ellipse fill="#d5f5e3" stroke="black" cx="411" cy="-522" rx="38.96" ry="18"/>
<text xml:space="preserve" text-anchor="middle" x="411" y="-518.3" font-family="Arial" font-size="11.00">atribuicao</text>
</g>
<!-- n18&#45;&gt;n19 -->
<g id="edge19" class="edge">
<title>n18&#45;&gt;n19</title>
<path fill="none" stroke="#555555" d="M432.36,-576.41C429.27,-568.68 425.51,-559.27 422.01,-550.52"/>
<polygon fill="#555555" stroke="#555555" points="425.31,-549.35 418.34,-541.36 418.81,-551.95 425.31,-549.35"/>
</g>
<!-- n20 -->
<g id="node21" class="node">
<title>n20</title>
<polygon fill="#d6eaf8" stroke="black" points="345,-468 291,-468 291,-432 345,-432 345,-468"/>
<text xml:space="preserve" text-anchor="middle" x="318" y="-446.3" font-family="Arial" font-size="11.00">x</text>
</g>
<!-- n19&#45;&gt;n20 -->
<g id="edge20" class="edge">
<title>n19&#45;&gt;n20</title>
<path fill="none" stroke="#555555" d="M391.28,-506.15C379.32,-497.16 363.78,-485.46 350.09,-475.15"/>
<polygon fill="#555555" stroke="#555555" points="352.28,-472.42 342.18,-469.2 348.07,-478.01 352.28,-472.42"/>
</g>
<!-- n21 -->
<g id="node22" class="node">
<title>n21</title>
<polygon fill="#d6eaf8" stroke="black" points="417,-468 363,-468 363,-432 417,-432 417,-468"/>
<text xml:space="preserve" text-anchor="middle" x="390" y="-446.3" font-family="Arial" font-size="11.00">:=</text>
</g>
<!-- n19&#45;&gt;n21 -->
<g id="edge21" class="edge">
<title>n19&#45;&gt;n21</title>
<path fill="none" stroke="#555555" d="M405.81,-503.7C403.57,-496.24 400.9,-487.32 398.39,-478.97"/>
<polygon fill="#555555" stroke="#555555" points="401.79,-478.13 395.57,-469.55 395.09,-480.14 401.79,-478.13"/>
</g>
<!-- n22 -->
<g id="node23" class="node">
<title>n22</title>
<ellipse fill="#d5f5e3" stroke="black" cx="462" cy="-450" rx="27" ry="18"/>
<text xml:space="preserve" text-anchor="middle" x="462" y="-446.3" font-family="Arial" font-size="11.00">expr</text>
</g>
<!-- n19&#45;&gt;n22 -->
<g id="edge22" class="edge">
<title>n19&#45;&gt;n22</title>
<path fill="none" stroke="#555555" d="M423.09,-504.41C429.36,-495.8 437.15,-485.11 444.11,-475.56"/>
<polygon fill="#555555" stroke="#555555" points="446.75,-477.88 449.81,-467.73 441.09,-473.76 446.75,-477.88"/>
</g>
<!-- n23 -->
<g id="node24" class="node">
<title>n23</title>
<ellipse fill="#d5f5e3" stroke="black" cx="462" cy="-378" rx="49.25" ry="18"/>
<text xml:space="preserve" text-anchor="middle" x="462" y="-374.3" font-family="Arial" font-size="11.00">expr_simples</text>
</g>
<!-- n22&#45;&gt;n23 -->
<g id="edge23" class="edge">
<title>n22&#45;&gt;n23</title>
<path fill="none" stroke="#555555" d="M462,-431.7C462,-424.41 462,-415.73 462,-407.54"/>
<polygon fill="#555555" stroke="#555555" points="465.5,-407.62 462,-397.62 458.5,-407.62 465.5,-407.62"/>
</g>
<!-- n24 -->
<g id="node25" class="node">
<title>n24</title>
<ellipse fill="#d5f5e3" stroke="black" cx="462" cy="-306" rx="27.27" ry="18"/>
<text xml:space="preserve" text-anchor="middle" x="462" y="-302.3" font-family="Arial" font-size="11.00">termo</text>
</g>
<!-- n23&#45;&gt;n24 -->
<g id="edge24" class="edge">
<title>n23&#45;&gt;n24</title>
<path fill="none" stroke="#555555" d="M462,-359.7C462,-352.41 462,-343.73 462,-335.54"/>
<polygon fill="#555555" stroke="#555555" points="465.5,-335.62 462,-325.62 458.5,-335.62 465.5,-335.62"/>
</g>
<!-- n25 -->
<g id="node26" class="node">
<title>n25</title>
<ellipse fill="#d5f5e3" stroke="black" cx="462" cy="-234" rx="27" ry="18"/>
<text xml:space="preserve" text-anchor="middle" x="462" y="-230.3" font-family="Arial" font-size="11.00">fator</text>
</g>
<!-- n24&#45;&gt;n25 -->
<g id="edge25" class="edge">
<title>n24&#45;&gt;n25</title>
<path fill="none" stroke="#555555" d="M462,-287.7C462,-280.41 462,-271.73 462,-263.54"/>
<polygon fill="#555555" stroke="#555555" points="465.5,-263.62 462,-253.62 458.5,-263.62 465.5,-263.62"/>
</g>
<!-- n26 -->
<g id="node27" class="node">
<title>n26</title>
<polygon fill="#d6eaf8" stroke="black" points="489,-180 435,-180 435,-144 489,-144 489,-180"/>
<text xml:space="preserve" text-anchor="middle" x="462" y="-158.3" font-family="Arial" font-size="11.00">10</text>
</g>
<!-- n25&#45;&gt;n26 -->
<g id="edge26" class="edge">
<title>n25&#45;&gt;n26</title>
<path fill="none" stroke="#555555" d="M462,-215.7C462,-208.41 462,-199.73 462,-191.54"/>
<polygon fill="#555555" stroke="#555555" points="465.5,-191.62 462,-181.62 458.5,-191.62 465.5,-191.62"/>
</g>
<!-- n29 -->
<g id="node30" class="node">
<title>n29</title>
<ellipse fill="#d5f5e3" stroke="black" cx="598" cy="-522" rx="38.96" ry="18"/>
<text xml:space="preserve" text-anchor="middle" x="598" y="-518.3" font-family="Arial" font-size="11.00">atribuicao</text>
</g>
<!-- n28&#45;&gt;n29 -->
<g id="edge29" class="edge">
<title>n28&#45;&gt;n29</title>
<path fill="none" stroke="#555555" d="M586.71,-575.7C588.29,-568.32 590.17,-559.52 591.95,-551.25"/>
<polygon fill="#555555" stroke="#555555" points="595.34,-552.1 594.02,-541.58 588.5,-550.63 595.34,-552.1"/>
</g>
<!-- n30 -->
<g id="node31" class="node">
<title>n30</title>
<polygon fill="#d6eaf8" stroke="black" points="561,-468 507,-468 507,-432 561,-432 561,-468"/>
<text xml:space="preserve" text-anchor="middle" x="534" y="-446.3" font-family="Arial" font-size="11.00">y</text>
</g>
<!-- n29&#45;&gt;n30 -->
<g id="edge30" class="edge">
<title>n29&#45;&gt;n30</title>
<path fill="none" stroke="#555555" d="M583.48,-505.12C575.8,-496.72 566.18,-486.2 557.47,-476.67"/>
<polygon fill="#555555" stroke="#555555" points="560.16,-474.43 550.83,-469.41 555,-479.15 560.16,-474.43"/>
</g>
<!-- n31 -->
<g id="node32" class="node">
<title>n31</title>
<polygon fill="#d6eaf8" stroke="black" points="633,-468 579,-468 579,-432 633,-432 633,-468"/>
<text xml:space="preserve" text-anchor="middle" x="606" y="-446.3" font-family="Arial" font-size="11.00">:=</text>
</g>
<!-- n29&#45;&gt;n31 -->
<g id="edge31" class="edge">
<title>n29&#45;&gt;n31</title>
<path fill="none" stroke="#555555" d="M599.98,-503.7C600.81,-496.41 601.8,-487.73 602.74,-479.54"/>
<polygon fill="#555555" stroke="#555555" points="606.22,-479.94 603.87,-469.61 599.26,-479.15 606.22,-479.94"/>
</g>
<!-- n32 -->
<g id="node33" class="node">
<title>n32</title>
<ellipse fill="#d5f5e3" stroke="black" cx="678" cy="-450" rx="27" ry="18"/>
<text xml:space="preserve" text-anchor="middle" x="678" y="-446.3" font-family="Arial" font-size="11.00">expr</text>
</g>
<!-- n29&#45;&gt;n32 -->
<g id="edge32" class="edge">
<title>n29&#45;&gt;n32</title>
<path fill="none" stroke="#555555" d="M615.36,-505.81C626.53,-496.04 641.2,-483.2 653.55,-472.4"/>
<polygon fill="#555555" stroke="#555555" points="655.67,-475.19 660.9,-465.97 651.06,-469.92 655.67,-475.19"/>
</g>
<!-- n33 -->
<g id="node34" class="node">
<title>n33</title>
<ellipse fill="#d5f5e3" stroke="black" cx="595" cy="-378" rx="49.25" ry="18"/>
<text xml:space="preserve" text-anchor="middle" x="595" y="-374.3" font-family="Arial" font-size="11.00">expr_simples</text>
</g>
<!-- n32&#45;&gt;n33 -->
<g id="edge33" class="edge">
<title>n32&#45;&gt;n33</title>
<path fill="none" stroke="#555555" d="M661.6,-435.17C650.47,-425.78 635.48,-413.14 622.54,-402.22"/>
<polygon fill="#555555" stroke="#555555" points="625.04,-399.75 615.14,-395.98 620.52,-405.1 625.04,-399.75"/>
</g>
<!-- n34 -->
<g id="node35" class="node">
<title>n34</title>
<ellipse fill="#d5f5e3" stroke="black" cx="595" cy="-306" rx="27.27" ry="18"/>
<text xml:space="preserve" text-anchor="middle" x="595" y="-302.3" font-family="Arial" font-size="11.00">termo</text>
</g>
<!-- n33&#45;&gt;n34 -->
<g id="edge34" class="edge">
<title>n33&#45;&gt;n34</title>
<path fill="none" stroke="#555555" d="M595,-359.7C595,-352.41 595,-343.73 595,-335.54"/>
<polygon fill="#555555" stroke="#555555" points="598.5,-335.62 595,-325.62 591.5,-335.62 598.5,-335.62"/>
</g>
<!-- n35 -->
<g id="node36" class="node">
<title>n35</title>
<ellipse fill="#d5f5e3" stroke="black" cx="595" cy="-234" rx="27" ry="18"/>
<text xml:space="preserve" text-anchor="middle" x="595" y="-230.3" font-family="Arial" font-size="11.00">fator</text>
</g>
<!-- n34&#45;&gt;n35 -->
<g id="edge35" class="edge">
<title>n34&#45;&gt;n35</title>
<path fill="none" stroke="#555555" d="M595,-287.7C595,-280.41 595,-271.73 595,-263.54"/>
<polygon fill="#555555" stroke="#555555" points="598.5,-263.62 595,-253.62 591.5,-263.62 598.5,-263.62"/>
</g>
<!-- n36 -->
<g id="node37" class="node">
<title>n36</title>
<polygon fill="#d6eaf8" stroke="black" points="622,-180 568,-180 568,-144 622,-144 622,-180"/>
<text xml:space="preserve" text-anchor="middle" x="595" y="-158.3" font-family="Arial" font-size="11.00">20</text>
</g>
<!-- n35&#45;&gt;n36 -->
<g id="edge36" class="edge">
<title>n35&#45;&gt;n36</title>
<path fill="none" stroke="#555555" d="M595,-215.7C595,-208.41 595,-199.73 595,-191.54"/>
<polygon fill="#555555" stroke="#555555" points="598.5,-191.62 595,-181.62 591.5,-191.62 598.5,-191.62"/>
</g>
<!-- n39 -->
<g id="node40" class="node">
<title>n39</title>
<ellipse fill="#d5f5e3" stroke="black" cx="913" cy="-522" rx="59.53" ry="18"/>
<text xml:space="preserve" text-anchor="middle" x="913" y="-518.3" font-family="Arial" font-size="11.00">cmd_condicional</text>
</g>
<!-- n38&#45;&gt;n39 -->
<g id="edge39" class="edge">
<title>n38&#45;&gt;n39</title>
<path fill="none" stroke="#555555" d="M748.16,-582.57C753,-580.31 758.14,-578 763,-576 795.73,-562.53 833.27,-549.27 862.61,-539.38"/>
<polygon fill="#555555" stroke="#555555" points="863.62,-542.73 871.99,-536.24 861.4,-536.09 863.62,-542.73"/>
</g>
<!-- n40 -->
<g id="node41" class="node">
<title>n40</title>
<polygon fill="#d6eaf8" stroke="black" points="796,-468 742,-468 742,-432 796,-432 796,-468"/>
<text xml:space="preserve" text-anchor="middle" x="769" y="-446.3" font-family="Arial" font-size="11.00">if</text>
</g>
<!-- n39&#45;&gt;n40 -->
<g id="edge40" class="edge">
<title>n39&#45;&gt;n40</title>
<path fill="none" stroke="#555555" d="M882.46,-506.15C860.17,-495.32 829.83,-480.57 806.13,-469.05"/>
<polygon fill="#555555" stroke="#555555" points="807.98,-466.06 797.46,-464.83 804.92,-472.35 807.98,-466.06"/>
</g>
<!-- n41 -->
<g id="node42" class="node">
<title>n41</title>
<ellipse fill="#d5f5e3" stroke="black" cx="841" cy="-450" rx="27" ry="18"/>
<text xml:space="preserve" text-anchor="middle" x="841" y="-446.3" font-family="Arial" font-size="11.00">expr</text>
</g>
<!-- n39&#45;&gt;n41 -->
<g id="edge41" class="edge">
<title>n39&#45;&gt;n41</title>
<path fill="none" stroke="#555555" d="M895.94,-504.41C886.32,-495.06 874.18,-483.26 863.77,-473.13"/>
<polygon fill="#555555" stroke="#555555" points="866.21,-470.62 856.6,-466.16 861.33,-475.64 866.21,-470.62"/>
</g>
<!-- n51 -->
<g id="node52" class="node">
<title>n51</title>
<polygon fill="#d6eaf8" stroke="black" points="940,-468 886,-468 886,-432 940,-432 940,-468"/>
<text xml:space="preserve" text-anchor="middle" x="913" y="-446.3" font-family="Arial" font-size="11.00">then</text>
</g>
<!-- n39&#45;&gt;n51 -->
<g id="edge51" class="edge">
<title>n39&#45;&gt;n51</title>
<path fill="none" stroke="#555555" d="M913,-503.7C913,-496.41 913,-487.73 913,-479.54"/>
<polygon fill="#555555" stroke="#555555" points="916.5,-479.62 913,-469.62 909.5,-479.62 916.5,-479.62"/>
</g>
<!-- n52 -->
<g id="node53" class="node">
<title>n52</title>
<ellipse fill="#d5f5e3" stroke="black" cx="985" cy="-450" rx="27" ry="18"/>
<text xml:space="preserve" text-anchor="middle" x="985" y="-446.3" font-family="Arial" font-size="11.00">cmd</text>
</g>
<!-- n39&#45;&gt;n52 -->
<g id="edge52" class="edge">
<title>n39&#45;&gt;n52</title>
<path fill="none" stroke="#555555" d="M930.06,-504.41C939.68,-495.06 951.82,-483.26 962.23,-473.13"/>
<polygon fill="#555555" stroke="#555555" points="964.67,-475.64 969.4,-466.16 959.79,-470.62 964.67,-475.64"/>
</g>
<!-- n65 -->
<g id="node66" class="node">
<title>n65</title>
<polygon fill="#d6eaf8" stroke="black" points="1084,-468 1030,-468 1030,-432 1084,-432 1084,-468"/>
<text xml:space="preserve" text-anchor="middle" x="1057" y="-446.3" font-family="Arial" font-size="11.00">else</text>
</g>
<!-- n39&#45;&gt;n65 -->
<g id="edge65" class="edge">
<title>n39&#45;&gt;n65</title>
<path fill="none" stroke="#555555" d="M943.54,-506.15C965.83,-495.32 996.17,-480.57 1019.87,-469.05"/>
<polygon fill="#555555" stroke="#555555" points="1021.08,-472.35 1028.54,-464.83 1018.02,-466.06 1021.08,-472.35"/>
</g>
<!-- n66 -->
<g id="node67" class="node">
<title>n66</title>
<ellipse fill="#d5f5e3" stroke="black" cx="1175" cy="-450" rx="27" ry="18"/>
<text xml:space="preserve" text-anchor="middle" x="1175" y="-446.3" font-family="Arial" font-size="11.00">cmd</text>
</g>
<!-- n39&#45;&gt;n66 -->
<g id="edge66" class="edge">
<title>n39&#45;&gt;n66</title>
<path fill="none" stroke="#555555" d="M956.56,-509.36C1007.77,-495.68 1091.81,-473.23 1139.33,-460.53"/>
<polygon fill="#555555" stroke="#555555" points="1140.09,-463.95 1148.84,-457.99 1138.28,-457.19 1140.09,-463.95"/>
</g>
<!-- n42 -->
<g id="node43" class="node">
<title>n42</title>
<ellipse fill="#d5f5e3" stroke="black" cx="711" cy="-378" rx="49.25" ry="18"/>
<text xml:space="preserve" text-anchor="middle" x="711" y="-374.3" font-family="Arial" font-size="11.00">expr_simples</text>
</g>
<!-- n41&#45;&gt;n42 -->
<g id="edge42" class="edge">
<title>n41&#45;&gt;n42</title>
<path fill="none" stroke="#555555" d="M820.4,-437.91C800.94,-427.43 771.32,-411.48 747.8,-398.81"/>
<polygon fill="#555555" stroke="#555555" points="749.61,-395.81 739.15,-394.16 746.29,-401.98 749.61,-395.81"/>
</g>
<!-- n46 -->
<g id="node47" class="node">
<title>n46</title>
<polygon fill="#d6eaf8" stroke="black" points="832,-396 778,-396 778,-360 832,-360 832,-396"/>
<text xml:space="preserve" text-anchor="middle" x="805" y="-374.3" font-family="Arial" font-size="11.00">]</text>
</g>
<!-- n41&#45;&gt;n46 -->
<g id="edge46" class="edge">
<title>n41&#45;&gt;n46</title>
<path fill="none" stroke="#555555" d="M832.65,-432.76C828.59,-424.87 823.6,-415.16 818.98,-406.18"/>
<polygon fill="#555555" stroke="#555555" points="822.18,-404.76 814.5,-397.47 815.96,-407.96 822.18,-404.76"/>
</g>
<!-- n47 -->
<g id="node48" class="node">
<title>n47</title>
<ellipse fill="#d5f5e3" stroke="black" cx="899" cy="-378" rx="49.25" ry="18"/>
<text xml:space="preserve" text-anchor="middle" x="899" y="-374.3" font-family="Arial" font-size="11.00">expr_simples</text>
</g>
<!-- n41&#45;&gt;n47 -->
<g id="edge47" class="edge">
<title>n41&#45;&gt;n47</title>
<path fill="none" stroke="#555555" d="M853.59,-433.81C860.73,-425.19 869.85,-414.18 878.04,-404.29"/>
<polygon fill="#555555" stroke="#555555" points="880.57,-406.73 884.26,-396.79 875.18,-402.26 880.57,-406.73"/>
</g>
<!-- n43 -->
<g id="node44" class="node">
<title>n43</title>
<ellipse fill="#d5f5e3" stroke="black" cx="711" cy="-306" rx="27.27" ry="18"/>
<text xml:space="preserve" text-anchor="middle" x="711" y="-302.3" font-family="Arial" font-size="11.00">termo</text>
</g>
<!-- n42&#45;&gt;n43 -->
<g id="edge43" class="edge">
<title>n42&#45;&gt;n43</title>
<path fill="none" stroke="#555555" d="M711,-359.7C711,-352.41 711,-343.73 711,-335.54"/>
<polygon fill="#555555" stroke="#555555" points="714.5,-335.62 711,-325.62 707.5,-335.62 714.5,-335.62"/>
</g>
<!-- n44 -->
<g id="node45" class="node">
<title>n44</title>
<ellipse fill="#d5f5e3" stroke="black" cx="711" cy="-234" rx="27" ry="18"/>
<text xml:space="preserve" text-anchor="middle" x="711" y="-230.3" font-family="Arial" font-size="11.00">fator</text>
</g>
<!-- n43&#45;&gt;n44 -->
<g id="edge44" class="edge">
<title>n43&#45;&gt;n44</title>
<path fill="none" stroke="#555555" d="M711,-287.7C711,-280.41 711,-271.73 711,-263.54"/>
<polygon fill="#555555" stroke="#555555" points="714.5,-263.62 711,-253.62 707.5,-263.62 714.5,-263.62"/>
</g>
<!-- n45 -->
<g id="node46" class="node">
<title>n45</title>
<polygon fill="#d6eaf8" stroke="black" points="738,-180 684,-180 684,-144 738,-144 738,-180"/>
<text xml:space="preserve" text-anchor="middle" x="711" y="-158.3" font-family="Arial" font-size="11.00">x</text>
</g>
<!-- n44&#45;&gt;n45 -->
<g id="edge45" class="edge">
<title>n44&#45;&gt;n45</title>
<path fill="none" stroke="#555555" d="M711,-215.7C711,-208.41 711,-199.73 711,-191.54"/>
<polygon fill="#555555" stroke="#555555" points="714.5,-191.62 711,-181.62 707.5,-191.62 714.5,-191.62"/>
</g>
<!-- n48 -->
<g id="node49" class="node">
<title>n48</title>
<ellipse fill="#d5f5e3" stroke="black" cx="861" cy="-306" rx="27.27" ry="18"/>
<text xml:space="preserve" text-anchor="middle" x="861" y="-302.3" font-family="Arial" font-size="11.00">termo</text>
</g>
<!-- n47&#45;&gt;n48 -->
<g id="edge48" class="edge">
<title>n47&#45;&gt;n48</title>
<path fill="none" stroke="#555555" d="M889.8,-360.05C885.44,-352.03 880.14,-342.26 875.28,-333.3"/>
<polygon fill="#555555" stroke="#555555" points="878.42,-331.76 870.57,-324.64 872.27,-335.1 878.42,-331.76"/>
</g>
<!-- n49 -->
<g id="node50" class="node">
<title>n49</title>
<ellipse fill="#d5f5e3" stroke="black" cx="861" cy="-234" rx="27" ry="18"/>
<text xml:space="preserve" text-anchor="middle" x="861" y="-230.3" font-family="Arial" font-size="11.00">fator</text>
</g>
<!-- n48&#45;&gt;n49 -->
<g id="edge49" class="edge">
<title>n48&#45;&gt;n49</title>
<path fill="none" stroke="#555555" d="M861,-287.7C861,-280.41 861,-271.73 861,-263.54"/>
<polygon fill="#555555" stroke="#555555" points="864.5,-263.62 861,-253.62 857.5,-263.62 864.5,-263.62"/>
</g>
<!-- n50 -->
<g id="node51" class="node">
<title>n50</title>
<polygon fill="#d6eaf8" stroke="black" points="888,-180 834,-180 834,-144 888,-144 888,-180"/>
<text xml:space="preserve" text-anchor="middle" x="861" y="-158.3" font-family="Arial" font-size="11.00">y</text>
</g>
<!-- n49&#45;&gt;n50 -->
<g id="edge50" class="edge">
<title>n49&#45;&gt;n50</title>
<path fill="none" stroke="#555555" d="M861,-215.7C861,-208.41 861,-199.73 861,-191.54"/>
<polygon fill="#555555" stroke="#555555" points="864.5,-191.62 861,-181.62 857.5,-191.62 864.5,-191.62"/>
</g>
<!-- n53 -->
<g id="node54" class="node">
<title>n53</title>
<ellipse fill="#d5f5e3" stroke="black" cx="1005" cy="-378" rx="38.96" ry="18"/>
<text xml:space="preserve" text-anchor="middle" x="1005" y="-374.3" font-family="Arial" font-size="11.00">atribuicao</text>
</g>
<!-- n52&#45;&gt;n53 -->
<g id="edge53" class="edge">
<title>n52&#45;&gt;n53</title>
<path fill="none" stroke="#555555" d="M989.84,-432.05C991.97,-424.6 994.53,-415.64 996.94,-407.22"/>
<polygon fill="#555555" stroke="#555555" points="1000.27,-408.31 999.65,-397.73 993.54,-406.38 1000.27,-408.31"/>
</g>
<!-- n54 -->
<g id="node55" class="node">
<title>n54</title>
<polygon fill="#d6eaf8" stroke="black" points="960,-324 906,-324 906,-288 960,-288 960,-324"/>
<text xml:space="preserve" text-anchor="middle" x="933" y="-302.3" font-family="Arial" font-size="11.00">x</text>
</g>
<!-- n53&#45;&gt;n54 -->
<g id="edge54" class="edge">
<title>n53&#45;&gt;n54</title>
<path fill="none" stroke="#555555" d="M989.02,-361.46C980.22,-352.91 969.07,-342.07 959.04,-332.32"/>
<polygon fill="#555555" stroke="#555555" points="961.65,-329.98 952.04,-325.52 956.78,-335 961.65,-329.98"/>
</g>
<!-- n55 -->
<g id="node56" class="node">
<title>n55</title>
<polygon fill="#d6eaf8" stroke="black" points="1032,-324 978,-324 978,-288 1032,-288 1032,-324"/>
<text xml:space="preserve" text-anchor="middle" x="1005" y="-302.3" font-family="Arial" font-size="11.00">:=</text>
</g>
<!-- n53&#45;&gt;n55 -->
<g id="edge55" class="edge">
<title>n53&#45;&gt;n55</title>
<path fill="none" stroke="#555555" d="M1005,-359.7C1005,-352.41 1005,-343.73 1005,-335.54"/>
<polygon fill="#555555" stroke="#555555" points="1008.5,-335.62 1005,-325.62 1001.5,-335.62 1008.5,-335.62"/>
</g>
<!-- n56 -->
<g id="node57" class="node">
<title>n56</title>
<ellipse fill="#d5f5e3" stroke="black" cx="1077" cy="-306" rx="27" ry="18"/>
<text xml:space="preserve" text-anchor="middle" x="1077" y="-302.3" font-family="Arial" font-size="11.00">expr</text>
</g>
<!-- n53&#45;&gt;n56 -->
<g id="edge56" class="edge">
<title>n53&#45;&gt;n56</title>
<path fill="none" stroke="#555555" d="M1020.98,-361.46C1030.79,-351.93 1043.5,-339.57 1054.34,-329.03"/>
<polygon fill="#555555" stroke="#555555" points="1056.72,-331.6 1061.45,-322.12 1051.84,-326.58 1056.72,-331.6"/>
</g>
<!-- n57 -->
<g id="node58" class="node">
<title>n57</title>
<ellipse fill="#d5f5e3" stroke="black" cx="1077" cy="-234" rx="49.25" ry="18"/>
<text xml:space="preserve" text-anchor="middle" x="1077" y="-230.3" font-family="Arial" font-size="11.00">expr_simples</text>
</g>
<!-- n56&#45;&gt;n57 -->
<g id="edge57" class="edge">
<title>n56&#45;&gt;n57</title>
<path fill="none" stroke="#555555" d="M1077,-287.7C1077,-280.41 1077,-271.73 1077,-263.54"/>
<polygon fill="#555555" stroke="#555555" points="1080.5,-263.62 1077,-253.62 1073.5,-263.62 1080.5,-263.62"/>
</g>
<!-- n58 -->
<g id="node59" class="node">
<title>n58</title>
<ellipse fill="#d5f5e3" stroke="black" cx="1004" cy="-162" rx="27.27" ry="18"/>
<text xml:space="preserve" text-anchor="middle" x="1004" y="-158.3" font-family="Arial" font-size="11.00">termo</text>
</g>
<!-- n57&#45;&gt;n58 -->
<g id="edge58" class="edge">
<title>n57&#45;&gt;n58</title>
<path fill="none" stroke="#555555" d="M1060.07,-216.76C1050.23,-207.33 1037.7,-195.32 1026.98,-185.04"/>
<polygon fill="#555555" stroke="#555555" points="1029.59,-182.69 1019.95,-178.3 1024.75,-187.74 1029.59,-182.69"/>
</g>
<!-- n61 -->
<g id="node62" class="node">
<title>n61</title>
<polygon fill="#d6eaf8" stroke="black" points="1103,-180 1049,-180 1049,-144 1103,-144 1103,-180"/>
<text xml:space="preserve" text-anchor="middle" x="1076" y="-158.3" font-family="Arial" font-size="11.00">&#45;</text>
</g>
<!-- n57&#45;&gt;n61 -->
<g id="edge61" class="edge">
<title>n57&#45;&gt;n61</title>
<path fill="none" stroke="#555555" d="M1076.75,-215.7C1076.65,-208.41 1076.52,-199.73 1076.41,-191.54"/>
<polygon fill="#555555" stroke="#555555" points="1079.91,-191.57 1076.27,-181.62 1072.91,-191.67 1079.91,-191.57"/>
</g>
<!-- n62 -->
<g id="node63" class="node">
<title>n62</title>
<ellipse fill="#d5f5e3" stroke="black" cx="1148" cy="-162" rx="27.27" ry="18"/>
<text xml:space="preserve" text-anchor="middle" x="1148" y="-158.3" font-family="Arial" font-size="11.00">termo</text>
</g>
<!-- n57&#45;&gt;n62 -->
<g id="edge62" class="edge">
<title>n57&#45;&gt;n62</title>
<path fill="none" stroke="#555555" d="M1093.47,-216.76C1103.04,-207.33 1115.22,-195.32 1125.65,-185.04"/>
<polygon fill="#555555" stroke="#555555" points="1127.8,-187.83 1132.47,-178.31 1122.89,-182.84 1127.8,-187.83"/>
</g>
<!-- n59 -->
<g id="node60" class="node">
<title>n59</title>
<ellipse fill="#d5f5e3" stroke="black" cx="1004" cy="-90" rx="27" ry="18"/>
<text xml:space="preserve" text-anchor="middle" x="1004" y="-86.3" font-family="Arial" font-size="11.00">fator</text>
</g>
<!-- n58&#45;&gt;n59 -->
<g id="edge59" class="edge">
<title>n58&#45;&gt;n59</title>
<path fill="none" stroke="#555555" d="M1004,-143.7C1004,-136.41 1004,-127.73 1004,-119.54"/>
<polygon fill="#555555" stroke="#555555" points="1007.5,-119.62 1004,-109.62 1000.5,-119.62 1007.5,-119.62"/>
</g>
<!-- n60 -->
<g id="node61" class="node">
<title>n60</title>
<polygon fill="#d6eaf8" stroke="black" points="1031,-36 977,-36 977,0 1031,0 1031,-36"/>
<text xml:space="preserve" text-anchor="middle" x="1004" y="-14.3" font-family="Arial" font-size="11.00">x</text>
</g>
<!-- n59&#45;&gt;n60 -->
<g id="edge60" class="edge">
<title>n59&#45;&gt;n60</title>
<path fill="none" stroke="#555555" d="M1004,-71.7C1004,-64.41 1004,-55.73 1004,-47.54"/>
<polygon fill="#555555" stroke="#555555" points="1007.5,-47.62 1004,-37.62 1000.5,-47.62 1007.5,-47.62"/>
</g>
<!-- n63 -->
<g id="node64" class="node">
<title>n63</title>
<ellipse fill="#d5f5e3" stroke="black" cx="1148" cy="-90" rx="27" ry="18"/>
<text xml:space="preserve" text-anchor="middle" x="1148" y="-86.3" font-family="Arial" font-size="11.00">fator</text>
</g>
<!-- n62&#45;&gt;n63 -->
<g id="edge63" class="edge">
<title>n62&#45;&gt;n63</title>
<path fill="none" stroke="#555555" d="M1148,-143.7C1148,-136.41 1148,-127.73 1148,-119.54"/>
<polygon fill="#555555" stroke="#555555" points="1151.5,-119.62 1148,-109.62 1144.5,-119.62 1151.5,-119.62"/>
</g>
<!-- n64 -->
<g id="node65" class="node">
<title>n64</title>
<polygon fill="#d6eaf8" stroke="black" points="1175,-36 1121,-36 1121,0 1175,0 1175,-36"/>
<text xml:space="preserve" text-anchor="middle" x="1148" y="-14.3" font-family="Arial" font-size="11.00">1</text>
</g>
<!-- n63&#45;&gt;n64 -->
<g id="edge64" class="edge">
<title>n63&#45;&gt;n64</title>
<path fill="none" stroke="#555555" d="M1148,-71.7C1148,-64.41 1148,-55.73 1148,-47.54"/>
<polygon fill="#555555" stroke="#555555" points="1151.5,-47.62 1148,-37.62 1144.5,-47.62 1151.5,-47.62"/>
</g>
<!-- n67 -->
<g id="node68" class="node">
<title>n67</title>
<ellipse fill="#d5f5e3" stroke="black" cx="1198" cy="-378" rx="38.96" ry="18"/>
<text xml:space="preserve" text-anchor="middle" x="1198" y="-374.3" font-family="Arial" font-size="11.00">atribuicao</text>
</g>
<!-- n66&#45;&gt;n67 -->
<g id="edge67" class="edge">
<title>n66&#45;&gt;n67</title>
<path fill="none" stroke="#555555" d="M1180.57,-432.05C1183.05,-424.52 1186.03,-415.44 1188.82,-406.94"/>
<polygon fill="#555555" stroke="#555555" points="1192.05,-408.31 1191.85,-397.71 1185.4,-406.12 1192.05,-408.31"/>
</g>
<!-- n68 -->
<g id="node69" class="node">
<title>n68</title>
<polygon fill="#d6eaf8" stroke="black" points="1176,-324 1122,-324 1122,-288 1176,-288 1176,-324"/>
<text xml:space="preserve" text-anchor="middle" x="1149" y="-302.3" font-family="Arial" font-size="11.00">y</text>
</g>
<!-- n67&#45;&gt;n68 -->
<g id="edge68" class="edge">
<title>n67&#45;&gt;n68</title>
<path fill="none" stroke="#555555" d="M1186.39,-360.41C1180.82,-352.45 1174.01,-342.72 1167.73,-333.76"/>
<polygon fill="#555555" stroke="#555555" points="1170.68,-331.87 1162.08,-325.69 1164.95,-335.89 1170.68,-331.87"/>
</g>
<!-- n69 -->
<g id="node70" class="node">
<title>n69</title>
<polygon fill="#d6eaf8" stroke="black" points="1248,-324 1194,-324 1194,-288 1248,-288 1248,-324"/>
<text xml:space="preserve" text-anchor="middle" x="1221" y="-302.3" font-family="Arial" font-size="11.00">:=</text>
</g>
<!-- n67&#45;&gt;n69 -->
<g id="edge69" class="edge">
<title>n67&#45;&gt;n69</title>
<path fill="none" stroke="#555555" d="M1203.69,-359.7C1206.14,-352.24 1209.07,-343.32 1211.81,-334.97"/>
<polygon fill="#555555" stroke="#555555" points="1215.11,-336.14 1214.91,-325.54 1208.46,-333.95 1215.11,-336.14"/>
</g>
<!-- n70 -->
<g id="node71" class="node">
<title>n70</title>
<ellipse fill="#d5f5e3" stroke="black" cx="1293" cy="-306" rx="27" ry="18"/>
<text xml:space="preserve" text-anchor="middle" x="1293" y="-302.3" font-family="Arial" font-size="11.00">expr</text>
</g>
<!-- n67&#45;&gt;n70 -->
<g id="edge70" class="edge">
<title>n67&#45;&gt;n70</title>
<path fill="none" stroke="#555555" d="M1218.15,-362.15C1232.22,-351.79 1251.15,-337.84 1266.45,-326.56"/>
<polygon fill="#555555" stroke="#555555" points="1268.24,-329.59 1274.22,-320.84 1264.09,-323.95 1268.24,-329.59"/>
</g>
<!-- n71 -->
<g id="node72" class="node">
<title>n71</title>
<ellipse fill="#d5f5e3" stroke="black" cx="1293" cy="-234" rx="49.25" ry="18"/>
<text xml:space="preserve" text-anchor="middle" x="1293" y="-230.3" font-family="Arial" font-size="11.00">expr_simples</text>
</g>
<!-- n70&#45;&gt;n71 -->
<g id="edge71" class="edge">
<title>n70&#45;&gt;n71</title>
<path fill="none" stroke="#555555" d="M1293,-287.7C1293,-280.41 1293,-271.73 1293,-263.54"/>
<polygon fill="#555555" stroke="#555555" points="1296.5,-263.62 1293,-253.62 1289.5,-263.62 1296.5,-263.62"/>
</g>
<!-- n72 -->
<g id="node73" class="node">
<title>n72</title>
<ellipse fill="#d5f5e3" stroke="black" cx="1221" cy="-162" rx="27.27" ry="18"/>
<text xml:space="preserve" text-anchor="middle" x="1221" y="-158.3" font-family="Arial" font-size="11.00">termo</text>
</g>
<!-- n71&#45;&gt;n72 -->
<g id="edge72" class="edge">
<title>n71&#45;&gt;n72</title>
<path fill="none" stroke="#555555" d="M1276.3,-216.76C1266.6,-207.33 1254.24,-195.32 1243.67,-185.04"/>
<polygon fill="#555555" stroke="#555555" points="1246.35,-182.77 1236.74,-178.3 1241.47,-187.79 1246.35,-182.77"/>
</g>
<!-- n75 -->
<g id="node76" class="node">
<title>n75</title>
<polygon fill="#d6eaf8" stroke="black" points="1320,-180 1266,-180 1266,-144 1320,-144 1320,-180"/>
<text xml:space="preserve" text-anchor="middle" x="1293" y="-158.3" font-family="Arial" font-size="11.00">+</text>
</g>
<!-- n71&#45;&gt;n75 -->
<g id="edge75" class="edge">
<title>n71&#45;&gt;n75</title>
<path fill="none" stroke="#555555" d="M1293,-215.7C1293,-208.41 1293,-199.73 1293,-191.54"/>
<polygon fill="#555555" stroke="#555555" points="1296.5,-191.62 1293,-181.62 1289.5,-191.62 1296.5,-191.62"/>
</g>
<!-- n76 -->
<g id="node77" class="node">
<title>n76</title>
<ellipse fill="#d5f5e3" stroke="black" cx="1365" cy="-162" rx="27.27" ry="18"/>
<text xml:space="preserve" text-anchor="middle" x="1365" y="-158.3" font-family="Arial" font-size="11.00">termo</text>
</g>
<!-- n71&#45;&gt;n76 -->
<g id="edge76" class="edge">
<title>n71&#45;&gt;n76</title>
<path fill="none" stroke="#555555" d="M1309.7,-216.76C1319.4,-207.33 1331.76,-195.32 1342.33,-185.04"/>
<polygon fill="#555555" stroke="#555555" points="1344.53,-187.79 1349.26,-178.3 1339.65,-182.77 1344.53,-187.79"/>
</g>
<!-- n73 -->
<g id="node74" class="node">
<title>n73</title>
<ellipse fill="#d5f5e3" stroke="black" cx="1221" cy="-90" rx="27" ry="18"/>
<text xml:space="preserve" text-anchor="middle" x="1221" y="-86.3" font-family="Arial" font-size="11.00">fator</text>
</g>
<!-- n72&#45;&gt;n73 -->
<g id="edge73" class="edge">
<title>n72&#45;&gt;n73</title>
<path fill="none" stroke="#555555" d="M1221,-143.7C1221,-136.41 1221,-127.73 1221,-119.54"/>
<polygon fill="#555555" stroke="#555555" points="1224.5,-119.62 1221,-109.62 1217.5,-119.62 1224.5,-119.62"/>
</g>
<!-- n74 -->
<g id="node75" class="node">
<title>n74</title>
<polygon fill="#d6eaf8" stroke="black" points="1248,-36 1194,-36 1194,0 1248,0 1248,-36"/>
<text xml:space="preserve" text-anchor="middle" x="1221" y="-14.3" font-family="Arial" font-size="11.00">y</text>
</g>
<!-- n73&#45;&gt;n74 -->
<g id="edge74" class="edge">
<title>n73&#45;&gt;n74</title>
<path fill="none" stroke="#555555" d="M1221,-71.7C1221,-64.41 1221,-55.73 1221,-47.54"/>
<polygon fill="#555555" stroke="#555555" points="1224.5,-47.62 1221,-37.62 1217.5,-47.62 1224.5,-47.62"/>
</g>
<!-- n77 -->
<g id="node78" class="node">
<title>n77</title>
<ellipse fill="#d5f5e3" stroke="black" cx="1365" cy="-90" rx="27" ry="18"/>
<text xml:space="preserve" text-anchor="middle" x="1365" y="-86.3" font-family="Arial" font-size="11.00">fator</text>
</g>
<!-- n76&#45;&gt;n77 -->
<g id="edge77" class="edge">
<title>n76&#45;&gt;n77</title>
<path fill="none" stroke="#555555" d="M1365,-143.7C1365,-136.41 1365,-127.73 1365,-119.54"/>
<polygon fill="#555555" stroke="#555555" points="1368.5,-119.62 1365,-109.62 1361.5,-119.62 1368.5,-119.62"/>
</g>
<!-- n78 -->
<g id="node79" class="node">
<title>n78</title>
<polygon fill="#d6eaf8" stroke="black" points="1392,-36 1338,-36 1338,0 1392,0 1392,-36"/>
<text xml:space="preserve" text-anchor="middle" x="1365" y="-14.3" font-family="Arial" font-size="11.00">1</text>
</g>
<!-- n77&#45;&gt;n78 -->
<g id="edge78" class="edge">
<title>n77&#45;&gt;n78</title>
<path fill="none" stroke="#555555" d="M1365,-71.7C1365,-64.41 1365,-55.73 1365,-47.54"/>
<polygon fill="#555555" stroke="#555555" points="1368.5,-47.62 1365,-37.62 1361.5,-47.62 1368.5,-47.62"/>
</g>
</g>
</svg>
