<?xml version="1.0" encoding="UTF-8" standalone="no"?>
<!DOCTYPE svg PUBLIC "-//W3C//DTD SVG 1.1//EN"
 "http://www.w3.org/Graphics/SVG/1.1/DTD/svg11.dtd">
<!-- Generated by graphviz version 14.1.4 (20260321.0153)
 -->
<!-- Title: afd_operador_maior Pages: 1 -->
<svg width="664pt" height="330pt"
 viewBox="0.00 0.00 664.00 330.00" xmlns="http://www.w3.org/2000/svg" xmlns:xlink="http://www.w3.org/1999/xlink">
<g id="graph0" class="graph" transform="scale(1 1) rotate(0) translate(57.6 272.26)">
<title>afd_operador_maior</title>
<polygon fill="white" stroke="none" points="-57.6,57.6 -57.6,-272.26 606.87,-272.26 606.87,57.6 -57.6,57.6"/>
<!-- inicio -->
<g id="node1" class="node">
<title>inicio</title>
</g>
<!-- q0 -->
<g id="node2" class="node">
<title>q0</title>
<ellipse fill="none" stroke="black" cx="126.18" cy="-107.58" rx="35.18" ry="35.18"/>
<text xml:space="preserve" text-anchor="middle" x="126.18" y="-110.03" font-family="Arial" font-size="14.00">q0</text>
<text xml:space="preserve" text-anchor="middle" x="126.18" y="-94.28" font-family="Arial" font-size="14.00">inicial</text>
</g>
<!-- inicio&#45;&gt;q0 -->
<g id="edge1" class="edge">
<title>inicio&#45;&gt;q0</title>
<path fill="none" stroke="black" d="M53.79,-107.58C61.68,-107.58 70.62,-107.58 79.43,-107.58"/>
<polygon fill="black" stroke="black" points="79.33,-111.08 89.33,-107.58 79.33,-104.08 79.33,-111.08"/>
</g>
<!-- q6 -->
<g id="node3" class="node">
<title>q6</title>
<ellipse fill="none" stroke="black" cx="313.98" cy="-107.58" rx="20.63" ry="20.63"/>
<text xml:space="preserve" text-anchor="middle" x="313.98" y="-102.16" font-family="Arial" font-size="14.00">q6</text>
</g>
<!-- q0&#45;&gt;q6 -->
<g id="edge2" class="edge">
<title>q0&#45;&gt;q6</title>
<path fill="none" stroke="black" d="M161.69,-107.58C196.09,-107.58 248.44,-107.58 281.67,-107.58"/>
<polygon fill="black" stroke="black" points="281.46,-111.08 291.46,-107.58 281.46,-104.08 281.46,-111.08"/>
<text xml:space="preserve" text-anchor="middle" x="227.36" y="-111.13" font-family="Arial" font-size="16.00">&gt; (maior que)</text>
</g>
<!-- qOP_GT -->
<g id="node4" class="node">
<title>qOP_GT</title>
<ellipse fill="none" stroke="black" cx="502.69" cy="-168.58" rx="42.08" ry="42.08"/>
<ellipse fill="none" stroke="black" cx="502.69" cy="-168.58" rx="46.08" ry="46.08"/>
<text xml:space="preserve" text-anchor="middle" x="502.69" y="-163.16" font-family="Arial" font-size="14.00">OP_GT</text>
</g>
<!-- q6&#45;&gt;qOP_GT -->
<g id="edge4" class="edge">
<title>q6&#45;&gt;qOP_GT</title>
<path fill="none" stroke="black" d="M333.71,-114.14C339.74,-116.23 346.45,-118.52 352.61,-120.58 383.92,-131.03 419.05,-142.36 447.35,-151.39"/>
<polygon fill="black" stroke="black" points="446.2,-154.7 456.79,-154.4 448.32,-148.03 446.2,-154.7"/>
<text xml:space="preserve" text-anchor="middle" x="395.36" y="-170.51" font-family="Arial" font-size="16.00">outro</text>
<text xml:space="preserve" text-anchor="middle" x="395.36" y="-151.76" font-family="Arial" font-size="16.00">(lookahead)</text>
</g>
<!-- qOP_GE -->
<g id="node5" class="node">
<title>qOP_GE</title>
<ellipse fill="none" stroke="black" cx="502.69" cy="-46.58" rx="42.58" ry="42.58"/>
<ellipse fill="none" stroke="black" cx="502.69" cy="-46.58" rx="46.58" ry="46.58"/>
<text xml:space="preserve" text-anchor="middle" x="502.69" y="-41.16" font-family="Arial" font-size="14.00">OP_GE</text>
</g>
<!-- q6&#45;&gt;qOP_GE -->
<g id="edge3" class="edge">
<title>q6&#45;&gt;qOP_GE</title>
<path fill="none" stroke="black" d="M333.91,-101.4C360.35,-92.76 409.39,-76.74 447.65,-64.24"/>
<polygon fill="black" stroke="black" points="448.27,-67.72 456.69,-61.28 446.1,-61.06 448.27,-67.72"/>
<text xml:space="preserve" text-anchor="middle" x="395.36" y="-97.95" font-family="Arial" font-size="16.00">= (igual)</text>
</g>
</g>
</svg>
