<?xml version="1.0" encoding="UTF-8" standalone="no"?>
<!DOCTYPE svg PUBLIC "-//W3C//DTD SVG 1.1//EN"
 "http://www.w3.org/Graphics/SVG/1.1/DTD/svg11.dtd">
<!-- Generated by graphviz version 14.1.4 (20260321.0153)
 -->
<!-- Title: afd_operador_atribuicao Pages: 1 -->
<svg width="695pt" height="364pt"
 viewBox="0.00 0.00 695.00 364.00" xmlns="http://www.w3.org/2000/svg" xmlns:xlink="http://www.w3.org/1999/xlink">
<g id="graph0" class="graph" transform="scale(1 1) rotate(0) translate(57.6 306.23)">
<title>afd_operador_atribuicao</title>
<polygon fill="white" stroke="none" points="-57.6,57.6 -57.6,-306.23 637.57,-306.23 637.57,57.6 -57.6,57.6"/>
<!-- inicio -->
<g id="node1" class="node">
<title>inicio</title>
</g>
<!-- q0 -->
<g id="node2" class="node">
<title>q0</title>
<ellipse fill="none" stroke="black" cx="126.18" cy="-127.56" rx="35.18" ry="35.18"/>
<text xml:space="preserve" text-anchor="middle" x="126.18" y="-130.01" font-family="Arial" font-size="14.00">q0</text>
<text xml:space="preserve" text-anchor="middle" x="126.18" y="-114.26" font-family="Arial" font-size="14.00">inicial</text>
</g>
<!-- inicio&#45;&gt;q0 -->
<g id="edge1" class="edge">
<title>inicio&#45;&gt;q0</title>
<path fill="none" stroke="black" d="M53.79,-127.56C61.68,-127.56 70.62,-127.56 79.43,-127.56"/>
<polygon fill="black" stroke="black" points="79.33,-131.06 89.33,-127.56 79.33,-124.06 79.33,-131.06"/>
</g>
<!-- q4 -->
<g id="node3" class="node">
<title>q4</title>
<ellipse fill="none" stroke="black" cx="320.73" cy="-127.56" rx="20.63" ry="20.63"/>
<text xml:space="preserve" text-anchor="middle" x="320.73" y="-122.13" font-family="Arial" font-size="14.00">q4</text>
</g>
<!-- q0&#45;&gt;q4 -->
<g id="edge2" class="edge">
<title>q0&#45;&gt;q4</title>
<path fill="none" stroke="black" d="M161.6,-127.56C197.6,-127.56 253.6,-127.56 288.4,-127.56"/>
<polygon fill="black" stroke="black" points="288.24,-131.06 298.24,-127.56 288.24,-124.06 288.24,-131.06"/>
<text xml:space="preserve" text-anchor="middle" x="230.73" y="-131.11" font-family="Arial" font-size="16.00">: (dois pontos)</text>
</g>
<!-- qOP_ASS -->
<g id="node4" class="node">
<title>qOP_ASS</title>
<ellipse fill="none" stroke="black" cx="521.41" cy="-197.56" rx="47.07" ry="47.07"/>
<ellipse fill="none" stroke="black" cx="521.41" cy="-197.56" rx="51.07" ry="51.07"/>
<text xml:space="preserve" text-anchor="middle" x="521.41" y="-192.13" font-family="Arial" font-size="14.00">OP_ASS</text>
</g>
<!-- q4&#45;&gt;qOP_ASS -->
<g id="edge3" class="edge">
<title>q4&#45;&gt;qOP_ASS</title>
<path fill="none" stroke="black" d="M336,-141.93C342.62,-147.86 350.88,-154.32 359.36,-158.56 390.53,-174.13 428.26,-183.7 459.36,-189.46"/>
<polygon fill="black" stroke="black" points="458.55,-192.87 469.01,-191.15 459.76,-185.97 458.55,-192.87"/>
<text xml:space="preserve" text-anchor="middle" x="402.11" y="-190.06" font-family="Arial" font-size="16.00">= (igual)</text>
</g>
<!-- qSMB_COL -->
<g id="node5" class="node">
<title>qSMB_COL</title>
<ellipse fill="none" stroke="black" cx="521.41" cy="-58.56" rx="54.56" ry="54.56"/>
<ellipse fill="none" stroke="black" cx="521.41" cy="-58.56" rx="58.56" ry="58.56"/>
<text xml:space="preserve" text-anchor="middle" x="521.41" y="-53.13" font-family="Arial" font-size="14.00">SMB_COL</text>
</g>
<!-- q4&#45;&gt;qSMB_COL -->
<g id="edge4" class="edge">
<title>q4&#45;&gt;qSMB_COL</title>
<path fill="none" stroke="black" d="M340.78,-120.94C366.85,-111.89 414.95,-95.18 454.82,-81.34"/>
<polygon fill="black" stroke="black" points="455.83,-84.69 464.12,-78.11 453.53,-78.08 455.83,-84.69"/>
<text xml:space="preserve" text-anchor="middle" x="402.11" y="-136.66" font-family="Arial" font-size="16.00">outro</text>
<text xml:space="preserve" text-anchor="middle" x="402.11" y="-117.91" font-family="Arial" font-size="16.00">(lookahead)</text>
</g>
</g>
</svg>
