<?xml version="1.0" encoding="UTF-8" standalone="no"?>
<!DOCTYPE svg PUBLIC "-//W3C//DTD SVG 1.1//EN"
 "http://www.w3.org/Graphics/SVG/1.1/DTD/svg11.dtd">
<!-- Generated by graphviz version 14.1.4 (20260321.0153)
 -->
<!-- Title: afd_operador_menor Pages: 1 -->
<svg width="678pt" height="439pt"
 viewBox="0.00 0.00 678.00 439.00" xmlns="http://www.w3.org/2000/svg" xmlns:xlink="http://www.w3.org/1999/xlink">
<g id="graph0" class="graph" transform="scale(1 1) rotate(0) translate(57.6 381.27)">
<title>afd_operador_menor</title>
<polygon fill="white" stroke="none" points="-57.6,57.6 -57.6,-381.27 620.62,-381.27 620.62,57.6 -57.6,57.6"/>
<!-- inicio -->
<g id="node1" class="node">
<title>inicio</title>
</g>
<!-- q0 -->
<g id="node2" class="node">
<title>q0</title>
<ellipse fill="none" stroke="black" cx="126.18" cy="-160.09" rx="35.18" ry="35.18"/>
<text xml:space="preserve" text-anchor="middle" x="126.18" y="-162.54" font-family="Arial" font-size="14.00">q0</text>
<text xml:space="preserve" text-anchor="middle" x="126.18" y="-146.79" font-family="Arial" font-size="14.00">inicial</text>
</g>
<!-- inicio&#45;&gt;q0 -->
<g id="edge1" class="edge">
<title>inicio&#45;&gt;q0</title>
<path fill="none" stroke="black" d="M53.79,-160.09C61.68,-160.09 70.62,-160.09 79.43,-160.09"/>
<polygon fill="black" stroke="black" points="79.33,-163.59 89.33,-160.09 79.33,-156.59 79.33,-163.59"/>
</g>
<!-- q5 -->
<g id="node3" class="node">
<title>q5</title>
<ellipse fill="none" stroke="black" cx="319.23" cy="-160.09" rx="20.63" ry="20.63"/>
<text xml:space="preserve" text-anchor="middle" x="319.23" y="-154.66" font-family="Arial" font-size="14.00">q5</text>
</g>
<!-- q0&#45;&gt;q5 -->
<g id="edge2" class="edge">
<title>q0&#45;&gt;q5</title>
<path fill="none" stroke="black" d="M161.78,-160.09C197.46,-160.09 252.62,-160.09 287.01,-160.09"/>
<polygon fill="black" stroke="black" points="286.73,-163.59 296.73,-160.09 286.73,-156.59 286.73,-163.59"/>
<text xml:space="preserve" text-anchor="middle" x="229.98" y="-163.64" font-family="Arial" font-size="16.00">&lt; (menor que)</text>
</g>
<!-- qOP_NE -->
<g id="node4" class="node">
<title>qOP_NE</title>
<ellipse fill="none" stroke="black" cx="517.44" cy="-278.09" rx="41.58" ry="41.58"/>
<ellipse fill="none" stroke="black" cx="517.44" cy="-278.09" rx="45.58" ry="45.58"/>
<text xml:space="preserve" text-anchor="middle" x="517.44" y="-272.66" font-family="Arial" font-size="14.00">OP_NE</text>
</g>
<!-- q5&#45;&gt;qOP_NE -->
<g id="edge3" class="edge">
<title>q5&#45;&gt;qOP_NE</title>
<path fill="none" stroke="black" d="M331.6,-177.08C338.39,-186.27 347.67,-197.29 357.86,-205.09 389.54,-229.32 430.57,-247.93 462.95,-260.3"/>
<polygon fill="black" stroke="black" points="461.57,-263.52 472.16,-263.72 464.01,-256.95 461.57,-263.52"/>
<text xml:space="preserve" text-anchor="middle" x="405.86" y="-259.73" font-family="Arial" font-size="16.00">&gt; (maior que)</text>
</g>
<!-- qOP_LT -->
<g id="node5" class="node">
<title>qOP_LT</title>
<ellipse fill="none" stroke="black" cx="517.44" cy="-160.09" rx="39.09" ry="39.09"/>
<ellipse fill="none" stroke="black" cx="517.44" cy="-160.09" rx="43.09" ry="43.09"/>
<text xml:space="preserve" text-anchor="middle" x="517.44" y="-154.66" font-family="Arial" font-size="14.00">OP_LT</text>
</g>
<!-- q5&#45;&gt;qOP_LT -->
<g id="edge5" class="edge">
<title>q5&#45;&gt;qOP_LT</title>
<path fill="none" stroke="black" d="M340.13,-160.09C368.65,-160.09 422.21,-160.09 462.84,-160.09"/>
<polygon fill="black" stroke="black" points="462.68,-163.59 472.68,-160.09 462.68,-156.59 462.68,-163.59"/>
<text xml:space="preserve" text-anchor="middle" x="405.86" y="-182.39" font-family="Arial" font-size="16.00">outro</text>
<text xml:space="preserve" text-anchor="middle" x="405.86" y="-163.64" font-family="Arial" font-size="16.00">(lookahead)</text>
</g>
<!-- qOP_LE -->
<g id="node6" class="node">
<title>qOP_LE</title>
<ellipse fill="none" stroke="black" cx="517.44" cy="-44.09" rx="40.09" ry="40.09"/>
<ellipse fill="none" stroke="black" cx="517.44" cy="-44.09" rx="44.09" ry="44.09"/>
<text xml:space="preserve" text-anchor="middle" x="517.44" y="-38.66" font-family="Arial" font-size="14.00">OP_LE</text>
</g>
<!-- q5&#45;&gt;qOP_LE -->
<g id="edge4" class="edge">
<title>q5&#45;&gt;qOP_LE</title>
<path fill="none" stroke="black" d="M336.52,-148.51C343.07,-143.96 350.74,-138.78 357.86,-134.34 394.21,-111.6 436.46,-87.68 468.2,-70.18"/>
<polygon fill="black" stroke="black" points="469.71,-73.35 476.79,-65.46 466.34,-67.21 469.71,-73.35"/>
<text xml:space="preserve" text-anchor="middle" x="405.86" y="-137.89" font-family="Arial" font-size="16.00">= (igual)</text>
</g>
</g>
</svg>
