<?xml version="1.0" encoding="UTF-8" standalone="no"?>
<!DOCTYPE svg PUBLIC "-//W3C//DTD SVG 1.1//EN"
 "http://www.w3.org/Graphics/SVG/1.1/DTD/svg11.dtd">
<!-- Generated by graphviz version 14.1.4 (20260321.0153)
 -->
<!-- Title: afd_tokens_simples Pages: 1 -->
<svg width="648pt" height="1206pt"
 viewBox="0.00 0.00 648.00 1206.00" xmlns="http://www.w3.org/2000/svg" xmlns:xlink="http://www.w3.org/1999/xlink">
<g id="graph0" class="graph" transform="scale(1 1) rotate(0) translate(57.6 1148.24)">
<title>afd_tokens_simples</title>
<polygon fill="white" stroke="none" points="-57.6,57.6 -57.6,-1148.24 590.56,-1148.24 590.56,57.6 -57.6,57.6"/>
<!-- inicio -->
<g id="node1" class="node">
<title>inicio</title>
</g>
<!-- q0 -->
<g id="node2" class="node">
<title>q0</title>
<ellipse fill="none" stroke="black" cx="126.18" cy="-574.06" rx="35.18" ry="35.18"/>
<text xml:space="preserve" text-anchor="middle" x="126.18" y="-576.51" font-family="Arial" font-size="14.00">q0</text>
<text xml:space="preserve" text-anchor="middle" x="126.18" y="-560.76" font-family="Arial" font-size="14.00">inicial</text>
</g>
<!-- inicio&#45;&gt;q0 -->
<g id="edge1" class="edge">
<title>inicio&#45;&gt;q0</title>
<path fill="none" stroke="black" d="M53.79,-574.06C61.68,-574.06 70.62,-574.06 79.43,-574.06"/>
<polygon fill="black" stroke="black" points="79.33,-577.56 89.33,-574.06 79.33,-570.56 79.33,-577.56"/>
</g>
<!-- qOP_EQ -->
<g id="node3" class="node">
<title>qOP_EQ</title>
<ellipse fill="none" stroke="black" cx="471.41" cy="-1044.06" rx="42.58" ry="42.58"/>
<ellipse fill="none" stroke="black" cx="471.41" cy="-1044.06" rx="46.58" ry="46.58"/>
<text xml:space="preserve" text-anchor="middle" x="471.41" y="-1038.63" font-family="Arial" font-size="14.00">OP_EQ</text>
</g>
<!-- q0&#45;&gt;qOP_EQ -->
<g id="edge2" class="edge">
<title>q0&#45;&gt;qOP_EQ</title>
<path fill="none" stroke="black" d="M129.33,-609.38C134.72,-671.13 153.39,-800.22 217.36,-885.06 268.96,-953.5 359.36,-999.83 416.98,-1024.08"/>
<polygon fill="black" stroke="black" points="415.36,-1027.19 425.94,-1027.77 418.03,-1020.72 415.36,-1027.19"/>
<text xml:space="preserve" text-anchor="middle" x="285.61" y="-997.49" font-family="Arial" font-size="16.00">= (igual)</text>
</g>
<!-- qOP_MUL -->
<g id="node4" class="node">
<title>qOP_MUL</title>
<ellipse fill="none" stroke="black" cx="471.41" cy="-916.06" rx="48.57" ry="48.57"/>
<ellipse fill="none" stroke="black" cx="471.41" cy="-916.06" rx="52.57" ry="52.57"/>
<text xml:space="preserve" text-anchor="middle" x="471.41" y="-910.63" font-family="Arial" font-size="14.00">OP_MUL</text>
</g>
<!-- q0&#45;&gt;qOP_MUL -->
<g id="edge3" class="edge">
<title>q0&#45;&gt;qOP_MUL</title>
<path fill="none" stroke="black" d="M137.71,-607.63C151.23,-646.59 177.77,-711.1 217.36,-755.06 272.8,-816.61 357.07,-863.84 412.92,-890.77"/>
<polygon fill="black" stroke="black" points="411.1,-893.79 421.63,-894.92 414.1,-887.46 411.1,-893.79"/>
<text xml:space="preserve" text-anchor="middle" x="285.61" y="-862.52" font-family="Arial" font-size="16.00">* (multiplicação)</text>
</g>
<!-- qOP_DIV -->
<g id="node5" class="node">
<title>qOP_DIV</title>
<ellipse fill="none" stroke="black" cx="471.41" cy="-786.06" rx="44.08" ry="44.08"/>
<ellipse fill="none" stroke="black" cx="471.41" cy="-786.06" rx="48.08" ry="48.08"/>
<text xml:space="preserve" text-anchor="middle" x="471.41" y="-780.63" font-family="Arial" font-size="14.00">OP_DIV</text>
</g>
<!-- q0&#45;&gt;qOP_DIV -->
<g id="edge4" class="edge">
<title>q0&#45;&gt;qOP_DIV</title>
<path fill="none" stroke="black" d="M152.54,-597.47C170.05,-613.04 194.25,-633.42 217.36,-649.06 283.1,-693.55 364.73,-735.59 417.19,-761.09"/>
<polygon fill="black" stroke="black" points="415.39,-764.1 425.92,-765.3 418.43,-757.8 415.39,-764.1"/>
<text xml:space="preserve" text-anchor="middle" x="285.61" y="-732.46" font-family="Arial" font-size="16.00">/ (divisão)</text>
</g>
<!-- qSMB_SEM -->
<g id="node6" class="node">
<title>qSMB_SEM</title>
<ellipse fill="none" stroke="black" cx="471.41" cy="-649.06" rx="55.55" ry="55.55"/>
<ellipse fill="none" stroke="black" cx="471.41" cy="-649.06" rx="59.55" ry="59.55"/>
<text xml:space="preserve" text-anchor="middle" x="471.41" y="-643.63" font-family="Arial" font-size="14.00">SMB_SEM</text>
</g>
<!-- q0&#45;&gt;qSMB_SEM -->
<g id="edge5" class="edge">
<title>q0&#45;&gt;qSMB_SEM</title>
<path fill="none" stroke="black" d="M161.03,-581.45C216.77,-593.63 328.94,-618.14 401.8,-634.06"/>
<polygon fill="black" stroke="black" points="400.7,-637.41 411.22,-636.12 402.2,-630.57 400.7,-637.41"/>
<text xml:space="preserve" text-anchor="middle" x="285.61" y="-627.03" font-family="Arial" font-size="16.00">; (ponto e vírgula)</text>
</g>
<!-- qSMB_COM -->
<g id="node7" class="node">
<title>qSMB_COM</title>
<ellipse fill="none" stroke="black" cx="471.41" cy="-499.06" rx="57.55" ry="57.55"/>
<ellipse fill="none" stroke="black" cx="471.41" cy="-499.06" rx="61.55" ry="61.55"/>
<text xml:space="preserve" text-anchor="middle" x="471.41" y="-493.63" font-family="Arial" font-size="14.00">SMB_COM</text>
</g>
<!-- q0&#45;&gt;qSMB_COM -->
<g id="edge6" class="edge">
<title>q0&#45;&gt;qSMB_COM</title>
<path fill="none" stroke="black" d="M161.03,-566.66C216.29,-554.58 327.01,-530.39 399.9,-514.46"/>
<polygon fill="black" stroke="black" points="400.31,-517.96 409.34,-512.4 398.82,-511.12 400.31,-517.96"/>
<text xml:space="preserve" text-anchor="middle" x="285.61" y="-557.84" font-family="Arial" font-size="16.00">, (vírgula)</text>
</g>
<!-- qSMB_OPA -->
<g id="node8" class="node">
<title>qSMB_OPA</title>
<ellipse fill="none" stroke="black" cx="471.41" cy="-350.06" rx="54.56" ry="54.56"/>
<ellipse fill="none" stroke="black" cx="471.41" cy="-350.06" rx="58.56" ry="58.56"/>
<text xml:space="preserve" text-anchor="middle" x="471.41" y="-344.63" font-family="Arial" font-size="14.00">SMB_OPA</text>
</g>
<!-- q0&#45;&gt;qSMB_OPA -->
<g id="edge7" class="edge">
<title>q0&#45;&gt;qSMB_OPA</title>
<path fill="none" stroke="black" d="M152.74,-551C170.34,-535.6 194.56,-515.32 217.36,-499.31 280.28,-455.09 356.87,-411.18 409.19,-382.56"/>
<polygon fill="black" stroke="black" points="410.56,-385.8 417.67,-377.94 407.21,-379.65 410.56,-385.8"/>
<text xml:space="preserve" text-anchor="middle" x="285.61" y="-502.86" font-family="Arial" font-size="16.00">( (abre parêntese)</text>
</g>
<!-- qSMB_CPA -->
<g id="node9" class="node">
<title>qSMB_CPA</title>
<ellipse fill="none" stroke="black" cx="471.41" cy="-205.06" rx="53.56" ry="53.56"/>
<ellipse fill="none" stroke="black" cx="471.41" cy="-205.06" rx="57.56" ry="57.56"/>
<text xml:space="preserve" text-anchor="middle" x="471.41" y="-199.63" font-family="Arial" font-size="14.00">SMB_CPA</text>
</g>
<!-- q0&#45;&gt;qSMB_CPA -->
<g id="edge8" class="edge">
<title>q0&#45;&gt;qSMB_CPA</title>
<path fill="none" stroke="black" d="M137.85,-540.36C151.59,-500.8 178.42,-434.72 217.36,-388.31 271.95,-323.23 354.44,-269.2 410.27,-237.05"/>
<polygon fill="black" stroke="black" points="411.75,-240.24 418.71,-232.25 408.29,-234.15 411.75,-240.24"/>
<text xml:space="preserve" text-anchor="middle" x="285.61" y="-391.86" font-family="Arial" font-size="16.00">) (fecha parêntese)</text>
</g>
<!-- qSMB_DOT -->
<g id="node10" class="node">
<title>qSMB_DOT</title>
<ellipse fill="none" stroke="black" cx="471.41" cy="-59.06" rx="55.06" ry="55.06"/>
<ellipse fill="none" stroke="black" cx="471.41" cy="-59.06" rx="59.06" ry="59.06"/>
<text xml:space="preserve" text-anchor="middle" x="471.41" y="-53.63" font-family="Arial" font-size="14.00">SMB_DOT</text>
</g>
<!-- q0&#45;&gt;qSMB_DOT -->
<g id="edge9" class="edge">
<title>q0&#45;&gt;qSMB_DOT</title>
<path fill="none" stroke="black" d="M129.43,-539C135.02,-475.58 154.04,-339.82 217.36,-247.31 265.86,-176.44 349.91,-121.75 407.75,-90.01"/>
<polygon fill="black" stroke="black" points="409.4,-93.1 416.54,-85.27 406.07,-86.94 409.4,-93.1"/>
<text xml:space="preserve" text-anchor="middle" x="285.61" y="-250.86" font-family="Arial" font-size="16.00">. (ponto)</text>
</g>
</g>
</svg>
