<?xml version="1.0" encoding="UTF-8" standalone="no"?>
<!DOCTYPE svg PUBLIC "-//W3C//DTD SVG 1.1//EN"
 "http://www.w3.org/Graphics/SVG/1.1/DTD/svg11.dtd">
<!-- Generated by graphviz version 14.1.4 (20260321.0153)
 -->
<!-- Title: afd_numeros_e_sinais Pages: 1 -->
<svg width="1715pt" height="542pt"
 viewBox="0.00 0.00 1715.00 542.00" xmlns="http://www.w3.org/2000/svg" xmlns:xlink="http://www.w3.org/1999/xlink">
<g id="graph0" class="graph" transform="scale(1 1) rotate(0) translate(57.6 484.19)">
<title>afd_numeros_e_sinais</title>
<polygon fill="white" stroke="none" points="-57.6,57.6 -57.6,-484.19 1657.07,-484.19 1657.07,57.6 -57.6,57.6"/>
<!-- inicio -->
<g id="node1" class="node">
<title>inicio</title>
</g>
<!-- q0 -->
<g id="node2" class="node">
<title>q0</title>
<ellipse fill="none" stroke="black" cx="126.18" cy="-256.01" rx="35.18" ry="35.18"/>
<text xml:space="preserve" text-anchor="middle" x="126.18" y="-258.46" font-family="Arial" font-size="14.00">q0</text>
<text xml:space="preserve" text-anchor="middle" x="126.18" y="-242.71" font-family="Arial" font-size="14.00">inicial</text>
</g>
<!-- inicio&#45;&gt;q0 -->
<g id="edge1" class="edge">
<title>inicio&#45;&gt;q0</title>
<path fill="none" stroke="black" d="M53.79,-256.01C61.68,-256.01 70.62,-256.01 79.43,-256.01"/>
<polygon fill="black" stroke="black" points="79.33,-259.51 89.33,-256.01 79.33,-252.51 79.33,-259.51"/>
</g>
<!-- q2 -->
<g id="node3" class="node">
<title>q2</title>
<ellipse fill="none" stroke="black" cx="511.66" cy="-249.01" rx="20.63" ry="20.63"/>
<text xml:space="preserve" text-anchor="middle" x="511.66" y="-243.58" font-family="Arial" font-size="14.00">q2</text>
</g>
<!-- q0&#45;&gt;q2 -->
<g id="edge2" class="edge">
<title>q0&#45;&gt;q2</title>
<path fill="none" stroke="black" d="M161.55,-255.38C235.41,-254.03 408.31,-250.87 479.35,-249.58"/>
<polygon fill="black" stroke="black" points="479.17,-253.08 489.1,-249.4 479.04,-246.08 479.17,-253.08"/>
<text xml:space="preserve" text-anchor="middle" x="314.47" y="-256.52" font-family="Arial" font-size="16.00">[0&#45;9]</text>
</g>
<!-- q11 -->
<g id="node8" class="node">
<title>q11</title>
<ellipse fill="none" stroke="black" cx="314.47" cy="-329.01" rx="25.12" ry="25.12"/>
<text xml:space="preserve" text-anchor="middle" x="314.47" y="-323.58" font-family="Arial" font-size="14.00">q11</text>
</g>
<!-- q0&#45;&gt;q11 -->
<g id="edge10" class="edge">
<title>q0&#45;&gt;q11</title>
<path fill="none" stroke="black" d="M159.11,-269.68C165.78,-272.48 172.79,-275.37 179.36,-278.01 213.5,-291.69 252.87,-306.55 280.09,-316.69"/>
<polygon fill="black" stroke="black" points="278.58,-319.86 289.18,-320.06 281.02,-313.3 278.58,-319.86"/>
<text xml:space="preserve" text-anchor="middle" x="225.11" y="-315.95" font-family="Arial" font-size="16.00">+ (adição)</text>
</g>
<!-- q12 -->
<g id="node9" class="node">
<title>q12</title>
<ellipse fill="none" stroke="black" cx="314.47" cy="-172.01" rx="25.62" ry="25.62"/>
<text xml:space="preserve" text-anchor="middle" x="314.47" y="-166.58" font-family="Arial" font-size="14.00">q12</text>
</g>
<!-- q0&#45;&gt;q12 -->
<g id="edge13" class="edge">
<title>q0&#45;&gt;q12</title>
<path fill="none" stroke="black" d="M153.02,-232.94C161.06,-226.58 170.22,-220.1 179.36,-215.26 210.94,-198.51 250.17,-186.79 278.02,-179.81"/>
<polygon fill="black" stroke="black" points="278.83,-183.22 287.73,-177.47 277.19,-176.41 278.83,-183.22"/>
<text xml:space="preserve" text-anchor="middle" x="225.11" y="-218.81" font-family="Arial" font-size="16.00">&#45; (subtração)</text>
</g>
<!-- q2&#45;&gt;q2 -->
<g id="edge3" class="edge">
<title>q2&#45;&gt;q2</title>
<path fill="none" stroke="black" d="M496.41,-263.23C485.58,-279.63 490.67,-298.63 511.66,-298.63 528.39,-298.63 535.02,-286.57 531.54,-273.37"/>
<polygon fill="black" stroke="black" points="534.88,-272.25 527.54,-264.61 528.51,-275.16 534.88,-272.25"/>
<text xml:space="preserve" text-anchor="middle" x="511.66" y="-302.18" font-family="Arial" font-size="16.00">[0&#45;9]</text>
</g>
<!-- q3 -->
<g id="node4" class="node">
<title>q3</title>
<ellipse fill="none" stroke="black" cx="738.3" cy="-249.01" rx="20.63" ry="20.63"/>
<text xml:space="preserve" text-anchor="middle" x="738.3" y="-243.58" font-family="Arial" font-size="14.00">q3</text>
</g>
<!-- q2&#45;&gt;q3 -->
<g id="edge6" class="edge">
<title>q2&#45;&gt;q3</title>
<path fill="none" stroke="black" d="M532.6,-249.01C571.81,-249.01 659.23,-249.01 706.14,-249.01"/>
<polygon fill="black" stroke="black" points="705.9,-252.51 715.9,-249.01 705.9,-245.51 705.9,-252.51"/>
<text xml:space="preserve" text-anchor="middle" x="622.49" y="-252.56" font-family="Arial" font-size="16.00">. (ponto)</text>
</g>
<!-- q8 -->
<g id="node5" class="node">
<title>q8</title>
<ellipse fill="none" stroke="black" cx="873.99" cy="-249.01" rx="20.63" ry="20.63"/>
<text xml:space="preserve" text-anchor="middle" x="873.99" y="-243.58" font-family="Arial" font-size="14.00">q8</text>
</g>
<!-- q2&#45;&gt;q8 -->
<g id="edge4" class="edge">
<title>q2&#45;&gt;q8</title>
<path fill="none" stroke="black" d="M529.21,-260.23C573.23,-288.6 696.41,-358.34 793.36,-321.01 817.72,-311.63 839.26,-290.96 853.78,-274.16"/>
<polygon fill="black" stroke="black" points="856.44,-276.42 860.12,-266.49 851.05,-271.96 856.44,-276.42"/>
<text xml:space="preserve" text-anchor="middle" x="738.3" y="-335.29" font-family="Arial" font-size="16.00">Ee</text>
</g>
<!-- qNUM_INT -->
<g id="node10" class="node">
<title>qNUM_INT</title>
<ellipse fill="none" stroke="black" cx="738.3" cy="-144.01" rx="51.06" ry="51.06"/>
<ellipse fill="none" stroke="black" cx="738.3" cy="-144.01" rx="55.06" ry="55.06"/>
<text xml:space="preserve" text-anchor="middle" x="738.3" y="-138.58" font-family="Arial" font-size="14.00">NUM_INT</text>
</g>
<!-- q2&#45;&gt;qNUM_INT -->
<g id="edge5" class="edge">
<title>q2&#45;&gt;qNUM_INT</title>
<path fill="none" stroke="black" d="M528.86,-236.79C542.07,-227.2 561.48,-213.92 579.74,-204.51 610,-188.89 645.26,-174.99 674.75,-164.46"/>
<polygon fill="black" stroke="black" points="675.63,-167.86 683.9,-161.23 673.31,-161.25 675.63,-167.86"/>
<text xml:space="preserve" text-anchor="middle" x="622.49" y="-226.81" font-family="Arial" font-size="16.00">outro</text>
<text xml:space="preserve" text-anchor="middle" x="622.49" y="-208.06" font-family="Arial" font-size="16.00">(lookahead)</text>
</g>
<!-- q3&#45;&gt;q3 -->
<g id="edge7" class="edge">
<title>q3&#45;&gt;q3</title>
<path fill="none" stroke="black" d="M725.51,-265.53C718.67,-281.35 722.93,-298.63 738.3,-298.63 750.19,-298.63 755.43,-288.3 754.03,-276.29"/>
<polygon fill="black" stroke="black" points="757.5,-275.71 751.48,-266.99 750.74,-277.56 757.5,-275.71"/>
<text xml:space="preserve" text-anchor="middle" x="738.3" y="-302.18" font-family="Arial" font-size="16.00">[0&#45;9]</text>
</g>
<!-- q3&#45;&gt;q8 -->
<g id="edge8" class="edge">
<title>q3&#45;&gt;q8</title>
<path fill="none" stroke="black" d="M759.31,-249.01C781.2,-249.01 816.54,-249.01 842.01,-249.01"/>
<polygon fill="black" stroke="black" points="841.76,-252.51 851.76,-249.01 841.76,-245.51 841.76,-252.51"/>
<text xml:space="preserve" text-anchor="middle" x="823.36" y="-252.56" font-family="Arial" font-size="16.00">E e</text>
</g>
<!-- qNUM_REAL -->
<g id="node11" class="node">
<title>qNUM_REAL</title>
<ellipse fill="none" stroke="black" cx="1535.42" cy="-276.01" rx="60.05" ry="60.05"/>
<ellipse fill="none" stroke="black" cx="1535.42" cy="-276.01" rx="64.05" ry="64.05"/>
<text xml:space="preserve" text-anchor="middle" x="1535.42" y="-270.58" font-family="Arial" font-size="14.00">NUM_REAL</text>
</g>
<!-- q3&#45;&gt;qNUM_REAL -->
<g id="edge9" class="edge">
<title>q3&#45;&gt;qNUM_REAL</title>
<path fill="none" stroke="black" d="M752.9,-264.05C775.42,-287.23 822.95,-329.01 872.99,-329.01 872.99,-329.01 872.99,-329.01 1266.87,-329.01 1350.56,-329.01 1371.89,-322.09 1453.37,-303.01 1456.73,-302.22 1460.15,-301.35 1463.58,-300.43"/>
<polygon fill="black" stroke="black" points="1464.46,-303.82 1473.13,-297.71 1462.55,-297.08 1464.46,-303.82"/>
<text xml:space="preserve" text-anchor="middle" x="1017.61" y="-351.31" font-family="Arial" font-size="16.00">outro</text>
<text xml:space="preserve" text-anchor="middle" x="1017.61" y="-332.56" font-family="Arial" font-size="16.00">(lookahead)</text>
</g>
<!-- q9 -->
<g id="node6" class="node">
<title>q9</title>
<ellipse fill="none" stroke="black" cx="1017.61" cy="-171.01" rx="20.63" ry="20.63"/>
<text xml:space="preserve" text-anchor="middle" x="1017.61" y="-165.58" font-family="Arial" font-size="14.00">q9</text>
</g>
<!-- q8&#45;&gt;q9 -->
<g id="edge16" class="edge">
<title>q8&#45;&gt;q9</title>
<path fill="none" stroke="black" d="M882.39,-229.95C888.51,-216.79 898.49,-200.01 912.61,-190.51 934.09,-176.06 963.43,-171.6 985.47,-170.52"/>
<polygon fill="black" stroke="black" points="985.45,-174.03 995.36,-170.27 985.27,-167.03 985.45,-174.03"/>
<text xml:space="preserve" text-anchor="middle" x="934.74" y="-212.81" font-family="Arial" font-size="16.00">+ | &#45;</text>
<text xml:space="preserve" text-anchor="middle" x="934.74" y="-194.06" font-family="Arial" font-size="16.00">(sinal)</text>
</g>
<!-- q10 -->
<g id="node7" class="node">
<title>q10</title>
<ellipse fill="none" stroke="black" cx="1265.87" cy="-223.01" rx="25.62" ry="25.62"/>
<text xml:space="preserve" text-anchor="middle" x="1265.87" y="-217.58" font-family="Arial" font-size="14.00">q10</text>
</g>
<!-- q8&#45;&gt;q10 -->
<g id="edge17" class="edge">
<title>q8&#45;&gt;q10</title>
<path fill="none" stroke="black" d="M894.86,-247.68C957.05,-243.53 1148.6,-230.76 1228.88,-225.41"/>
<polygon fill="black" stroke="black" points="1228.64,-228.93 1238.38,-224.77 1228.17,-221.95 1228.64,-228.93"/>
<text xml:space="preserve" text-anchor="middle" x="1017.61" y="-245.81" font-family="Arial" font-size="16.00">[0&#45;9]</text>
</g>
<!-- qTOKEN_ERROR -->
<g id="node14" class="node">
<title>qTOKEN_ERROR</title>
<ellipse fill="none" stroke="black" cx="1265.87" cy="-84.01" rx="80.01" ry="80.01"/>
<ellipse fill="none" stroke="black" cx="1265.87" cy="-84.01" rx="84.01" ry="84.01"/>
<text xml:space="preserve" text-anchor="middle" x="1265.87" y="-78.58" font-family="Arial" font-size="14.00">TOKEN_ERROR</text>
</g>
<!-- q8&#45;&gt;qTOKEN_ERROR -->
<g id="edge20" class="edge">
<title>q8&#45;&gt;qTOKEN_ERROR</title>
<path fill="none" stroke="black" d="M880.74,-229.23C892.07,-194.54 921,-123.97 974.86,-98.51 1035.77,-69.72 1112.12,-67.03 1171.18,-71.04"/>
<polygon fill="black" stroke="black" points="1170.63,-74.51 1180.87,-71.78 1171.17,-67.53 1170.63,-74.51"/>
<text xml:space="preserve" text-anchor="middle" x="1017.61" y="-120.81" font-family="Arial" font-size="16.00">outro</text>
<text xml:space="preserve" text-anchor="middle" x="1017.61" y="-102.06" font-family="Arial" font-size="16.00">(lookahead)</text>
</g>
<!-- q9&#45;&gt;q10 -->
<g id="edge18" class="edge">
<title>q9&#45;&gt;q10</title>
<path fill="none" stroke="black" d="M1037.94,-175.09C1079.26,-183.81 1176.73,-204.39 1229.48,-215.53"/>
<polygon fill="black" stroke="black" points="1228.65,-218.93 1239.16,-217.58 1230.1,-212.09 1228.65,-218.93"/>
<text xml:space="preserve" text-anchor="middle" x="1121.11" y="-205.21" font-family="Arial" font-size="16.00">[0&#45;9]</text>
</g>
<!-- q9&#45;&gt;qTOKEN_ERROR -->
<g id="edge21" class="edge">
<title>q9&#45;&gt;qTOKEN_ERROR</title>
<path fill="none" stroke="black" d="M1036.01,-161.09C1047.73,-154.66 1063.67,-146.43 1078.36,-140.51 1108.82,-128.23 1142.99,-117.14 1173.68,-108.11"/>
<polygon fill="black" stroke="black" points="1174.3,-111.57 1182.93,-105.42 1172.35,-104.85 1174.3,-111.57"/>
<text xml:space="preserve" text-anchor="middle" x="1121.11" y="-162.81" font-family="Arial" font-size="16.00">outro</text>
<text xml:space="preserve" text-anchor="middle" x="1121.11" y="-144.06" font-family="Arial" font-size="16.00">(lookahead)</text>
</g>
<!-- q10&#45;&gt;q10 -->
<g id="edge19" class="edge">
<title>q10&#45;&gt;q10</title>
<path fill="none" stroke="black" d="M1245.51,-239.22C1231.94,-257.14 1238.73,-277.62 1265.87,-277.62 1288.13,-277.62 1296.7,-263.84 1291.57,-248.99"/>
<polygon fill="black" stroke="black" points="1294.82,-247.64 1286.95,-240.55 1288.68,-251 1294.82,-247.64"/>
<text xml:space="preserve" text-anchor="middle" x="1265.87" y="-281.17" font-family="Arial" font-size="16.00">[0&#45;9]</text>
</g>
<!-- q10&#45;&gt;qNUM_REAL -->
<g id="edge22" class="edge">
<title>q10&#45;&gt;qNUM_REAL</title>
<path fill="none" stroke="black" d="M1291.08,-227.8C1329.13,-235.34 1404.43,-250.26 1461.24,-261.51"/>
<polygon fill="black" stroke="black" points="1460.37,-264.9 1470.85,-263.41 1461.73,-258.04 1460.37,-264.9"/>
<text xml:space="preserve" text-anchor="middle" x="1410.62" y="-281.16" font-family="Arial" font-size="16.00">outro</text>
<text xml:space="preserve" text-anchor="middle" x="1410.62" y="-262.41" font-family="Arial" font-size="16.00">(lookahead)</text>
</g>
<!-- q11&#45;&gt;q2 -->
<g id="edge11" class="edge">
<title>q11&#45;&gt;q2</title>
<path fill="none" stroke="black" d="M338.23,-320.18C363.91,-310.16 406.88,-293.24 443.59,-278.01 456.24,-272.75 470.14,-266.78 482,-261.62"/>
<polygon fill="black" stroke="black" points="483.07,-264.97 490.83,-257.76 480.27,-258.55 483.07,-264.97"/>
<text xml:space="preserve" text-anchor="middle" x="400.84" y="-315.87" font-family="Arial" font-size="16.00">[0&#45;9]</text>
</g>
<!-- qOP_AD -->
<g id="node12" class="node">
<title>qOP_AD</title>
<ellipse fill="none" stroke="black" cx="511.66" cy="-381.01" rx="41.58" ry="41.58"/>
<ellipse fill="none" stroke="black" cx="511.66" cy="-381.01" rx="45.58" ry="45.58"/>
<text xml:space="preserve" text-anchor="middle" x="511.66" y="-375.58" font-family="Arial" font-size="14.00">OP_AD</text>
</g>
<!-- q11&#45;&gt;qOP_AD -->
<g id="edge12" class="edge">
<title>q11&#45;&gt;qOP_AD</title>
<path fill="none" stroke="black" d="M337.25,-339.75C343.83,-342.72 351.16,-345.74 358.09,-348.01 389.58,-358.31 425.8,-366.3 455.04,-371.83"/>
<polygon fill="black" stroke="black" points="454.33,-375.26 464.8,-373.63 455.6,-368.38 454.33,-375.26"/>
<text xml:space="preserve" text-anchor="middle" x="400.84" y="-391.24" font-family="Arial" font-size="16.00">outro</text>
<text xml:space="preserve" text-anchor="middle" x="400.84" y="-372.49" font-family="Arial" font-size="16.00">(lookahead)</text>
</g>
<!-- q12&#45;&gt;q2 -->
<g id="edge14" class="edge">
<title>q12&#45;&gt;q2</title>
<path fill="none" stroke="black" d="M339.46,-179C365.48,-186.84 408.07,-200.41 443.59,-215.26 456.89,-220.82 471.22,-227.87 483.2,-234.09"/>
<polygon fill="black" stroke="black" points="481.23,-237.01 491.71,-238.58 484.5,-230.82 481.23,-237.01"/>
<text xml:space="preserve" text-anchor="middle" x="400.84" y="-218.81" font-family="Arial" font-size="16.00">[0&#45;9]</text>
</g>
<!-- qOP_MIN -->
<g id="node13" class="node">
<title>qOP_MIN</title>
<ellipse fill="none" stroke="black" cx="511.66" cy="-145.01" rx="46.07" ry="46.07"/>
<ellipse fill="none" stroke="black" cx="511.66" cy="-145.01" rx="50.07" ry="50.07"/>
<text xml:space="preserve" text-anchor="middle" x="511.66" y="-139.58" font-family="Arial" font-size="14.00">OP_MIN</text>
</g>
<!-- q12&#45;&gt;qOP_MIN -->
<g id="edge15" class="edge">
<title>q12&#45;&gt;qOP_MIN</title>
<path fill="none" stroke="black" d="M334.6,-155.73C341.54,-150.81 349.74,-146.04 358.09,-143.51 387.61,-134.54 421.84,-134.05 450.39,-136.17"/>
<polygon fill="black" stroke="black" points="450.07,-139.65 460.34,-137.04 450.68,-132.68 450.07,-139.65"/>
<text xml:space="preserve" text-anchor="middle" x="400.84" y="-165.81" font-family="Arial" font-size="16.00">outro</text>
<text xml:space="preserve" text-anchor="middle" x="400.84" y="-147.06" font-family="Arial" font-size="16.00">(lookahead)</text>
</g>
</g>
</svg>
