<?xml version="1.0" encoding="UTF-8" standalone="no"?>
<!DOCTYPE svg PUBLIC "-//W3C//DTD SVG 1.1//EN"
 "http://www.w3.org/Graphics/SVG/1.1/DTD/svg11.dtd">
<!-- Generated by graphviz version 14.1.4 (20260321.0153)
 -->
<!-- Title: afd_identificadores Pages: 1 -->
<svg width="623pt" height="225pt"
 viewBox="0.00 0.00 623.00 225.00" xmlns="http://www.w3.org/2000/svg" xmlns:xlink="http://www.w3.org/1999/xlink">
<g id="graph0" class="graph" transform="scale(1 1) rotate(0) translate(57.6 167.07)">
<title>afd_identificadores</title>
<polygon fill="white" stroke="none" points="-57.6,57.6 -57.6,-167.07 565.89,-167.07 565.89,57.6 -57.6,57.6"/>
<!-- inicio -->
<g id="node1" class="node">
<title>inicio</title>
</g>
<!-- q0 -->
<g id="node2" class="node">
<title>q0</title>
<ellipse fill="none" stroke="black" cx="126.18" cy="-41.09" rx="35.18" ry="35.18"/>
<text xml:space="preserve" text-anchor="middle" x="126.18" y="-43.54" font-family="Arial" font-size="14.00">q0</text>
<text xml:space="preserve" text-anchor="middle" x="126.18" y="-27.79" font-family="Arial" font-size="14.00">inicial</text>
</g>
<!-- inicio&#45;&gt;q0 -->
<g id="edge1" class="edge">
<title>inicio&#45;&gt;q0</title>
<path fill="none" stroke="black" d="M53.79,-41.09C61.68,-41.09 70.62,-41.09 79.43,-41.09"/>
<polygon fill="black" stroke="black" points="79.33,-44.59 89.33,-41.09 79.33,-37.59 79.33,-44.59"/>
</g>
<!-- q1 -->
<g id="node3" class="node">
<title>q1</title>
<ellipse fill="none" stroke="black" cx="283.98" cy="-41.09" rx="20.63" ry="20.63"/>
<text xml:space="preserve" text-anchor="middle" x="283.98" y="-35.67" font-family="Arial" font-size="14.00">q1</text>
</g>
<!-- q0&#45;&gt;q1 -->
<g id="edge2" class="edge">
<title>q0&#45;&gt;q1</title>
<path fill="none" stroke="black" d="M161.76,-41.09C188.69,-41.09 225.75,-41.09 251.79,-41.09"/>
<polygon fill="black" stroke="black" points="251.73,-44.59 261.73,-41.09 251.73,-37.59 251.73,-44.59"/>
<text xml:space="preserve" text-anchor="middle" x="212.36" y="-44.64" font-family="Arial" font-size="16.00">[a&#45;z][A&#45;Z]</text>
</g>
<!-- q1&#45;&gt;q1 -->
<g id="edge3" class="edge">
<title>q1&#45;&gt;q1</title>
<path fill="none" stroke="black" d="M272.77,-58.9C267.65,-74.36 271.39,-90.72 283.98,-90.72 293.52,-90.72 297.98,-81.32 297.35,-70.05"/>
<polygon fill="black" stroke="black" points="300.82,-69.54 295.48,-60.39 293.95,-70.87 300.82,-69.54"/>
<text xml:space="preserve" text-anchor="middle" x="283.98" y="-94.27" font-family="Arial" font-size="16.00">[a&#45;z][A&#45;Z] | [0&#45;9]</text>
</g>
<!-- qID_KW -->
<g id="node4" class="node">
<title>qID_KW</title>
<ellipse fill="none" stroke="black" cx="467.2" cy="-41.09" rx="37.09" ry="37.09"/>
<ellipse fill="none" stroke="black" cx="467.2" cy="-41.09" rx="41.09" ry="41.09"/>
<text xml:space="preserve" text-anchor="middle" x="467.2" y="-35.67" font-family="Arial" font-size="14.00">ID/KW</text>
</g>
<!-- q1&#45;&gt;qID_KW -->
<g id="edge4" class="edge">
<title>q1&#45;&gt;qID_KW</title>
<path fill="none" stroke="black" d="M305.07,-41.09C331.26,-41.09 378.03,-41.09 414.46,-41.09"/>
<polygon fill="black" stroke="black" points="414.37,-44.59 424.37,-41.09 414.37,-37.59 414.37,-44.59"/>
<text xml:space="preserve" text-anchor="middle" x="365.36" y="-63.39" font-family="Arial" font-size="16.00">outro</text>
<text xml:space="preserve" text-anchor="middle" x="365.36" y="-44.64" font-family="Arial" font-size="16.00">(lookahead)</text>
</g>
</g>
</svg>
