<?xml version="1.0" encoding="UTF-8" standalone="no"?>
<!DOCTYPE svg PUBLIC "-//W3C//DTD SVG 1.1//EN"
 "http://www.w3.org/Graphics/SVG/1.1/DTD/svg11.dtd">
<!-- Generated by graphviz version 14.1.4 (20260321.0153)
 -->
<!-- Title: afd_completo Pages: 1 -->
<svg width="1935pt" height="2765pt"
 viewBox="0.00 0.00 1935.00 2765.00" xmlns="http://www.w3.org/2000/svg" xmlns:xlink="http://www.w3.org/1999/xlink">
<g id="graph0" class="graph" transform="scale(1 1) rotate(0) translate(57.6 2707.03)">
<title>afd_completo</title>
<polygon fill="white" stroke="none" points="-57.6,57.6 -57.6,-2707.03 1877.31,-2707.03 1877.31,57.6 -57.6,57.6"/>
<!-- inicio -->
<g id="node1" class="node">
<title>inicio</title>
</g>
<!-- q0 -->
<g id="node2" class="node">
<title>q0</title>
<ellipse fill="none" stroke="black" cx="35.18" cy="-1133.06" rx="35.18" ry="35.18"/>
<text xml:space="preserve" text-anchor="middle" x="35.18" y="-1135.51" font-family="Arial" font-size="14.00">q0</text>
<text xml:space="preserve" text-anchor="middle" x="35.18" y="-1119.76" font-family="Arial" font-size="14.00">inicial</text>
</g>
<!-- inicio&#45;&gt;q0 -->
<g id="edge1" class="edge">
<title>inicio&#45;&gt;q0</title>
<path fill="none" stroke="black" d="M35.18,-1226.08C35.18,-1210.66 35.18,-1195.25 35.18,-1179.83"/>
<polygon fill="black" stroke="black" points="38.68,-1180.12 35.18,-1170.12 31.68,-1180.12 38.68,-1180.12"/>
</g>
<!-- q1 -->
<g id="node3" class="node">
<title>q1</title>
<ellipse fill="none" stroke="black" cx="565.18" cy="-2581.06" rx="20.63" ry="20.63"/>
<text xml:space="preserve" text-anchor="middle" x="565.18" y="-2575.63" font-family="Arial" font-size="14.00">q1</text>
</g>
<!-- q0&#45;&gt;q1 -->
<g id="edge4" class="edge">
<title>q0&#45;&gt;q1</title>
<path fill="none" stroke="black" d="M52.77,-1163.63C59.62,-1177.91 66.79,-1195.4 70.36,-1212.06 77.88,-1247.15 64.9,-2476.89 88.36,-2504.06 202.62,-2636.41 447.35,-2604.01 533.45,-2587.62"/>
<polygon fill="black" stroke="black" points="534.12,-2591.06 543.26,-2585.68 532.77,-2584.19 534.12,-2591.06"/>
<text xml:space="preserve" text-anchor="middle" x="270.23" y="-2606.15" font-family="Arial" font-size="16.00">[a&#45;z][A&#45;Z]</text>
</g>
<!-- q2 -->
<g id="node4" class="node">
<title>q2</title>
<ellipse fill="none" stroke="black" cx="565.18" cy="-2185.06" rx="20.63" ry="20.63"/>
<text xml:space="preserve" text-anchor="middle" x="565.18" y="-2179.63" font-family="Arial" font-size="14.00">q2</text>
</g>
<!-- q0&#45;&gt;q2 -->
<g id="edge7" class="edge">
<title>q0&#45;&gt;q2</title>
<path fill="none" stroke="black" d="M52.88,-1164.02C59.67,-1178.23 66.75,-1195.56 70.36,-1212.06 80.1,-1256.63 67.37,-1992.55 88.36,-2033.06 172.53,-2195.55 441.25,-2193.44 533.08,-2187.68"/>
<polygon fill="black" stroke="black" points="533.1,-2191.18 542.83,-2187 532.61,-2184.2 533.1,-2191.18"/>
<text xml:space="preserve" text-anchor="middle" x="270.23" y="-2182.36" font-family="Arial" font-size="16.00">[0&#45;9]</text>
</g>
<!-- q4 -->
<g id="node5" class="node">
<title>q4</title>
<ellipse fill="none" stroke="black" cx="565.18" cy="-1849.06" rx="20.63" ry="20.63"/>
<text xml:space="preserve" text-anchor="middle" x="565.18" y="-1843.63" font-family="Arial" font-size="14.00">q4</text>
</g>
<!-- q0&#45;&gt;q4 -->
<g id="edge15" class="edge">
<title>q0&#45;&gt;q4</title>
<path fill="none" stroke="black" d="M52.07,-1164.22C58.7,-1178.47 65.88,-1195.77 70.36,-1212.06 86.98,-1272.55 66.92,-1293.1 88.36,-1352.06 175.72,-1592.36 449.64,-1778.27 537.07,-1832.75"/>
<polygon fill="black" stroke="black" points="535.15,-1835.67 545.5,-1837.94 538.82,-1829.72 535.15,-1835.67"/>
<text xml:space="preserve" text-anchor="middle" x="270.23" y="-1687.49" font-family="Arial" font-size="16.00">: (dois pontos)</text>
</g>
<!-- q5 -->
<g id="node6" class="node">
<title>q5</title>
<ellipse fill="none" stroke="black" cx="565.18" cy="-1602.06" rx="20.63" ry="20.63"/>
<text xml:space="preserve" text-anchor="middle" x="565.18" y="-1596.63" font-family="Arial" font-size="14.00">q5</text>
</g>
<!-- q0&#45;&gt;q5 -->
<g id="edge18" class="edge">
<title>q0&#45;&gt;q5</title>
<path fill="none" stroke="black" d="M51.14,-1164.51C57.58,-1178.82 64.89,-1196.08 70.36,-1212.06 80.77,-1242.45 69.82,-1255.82 88.36,-1282.06 208.81,-1452.49 451.07,-1558.38 534.87,-1591.14"/>
<polygon fill="black" stroke="black" points="533.61,-1594.41 544.2,-1594.73 536.13,-1587.87 533.61,-1594.41"/>
<text xml:space="preserve" text-anchor="middle" x="270.23" y="-1500.68" font-family="Arial" font-size="16.00">&lt; (menor que)</text>
</g>
<!-- q6 -->
<g id="node7" class="node">
<title>q6</title>
<ellipse fill="none" stroke="black" cx="565.18" cy="-1303.06" rx="20.63" ry="20.63"/>
<text xml:space="preserve" text-anchor="middle" x="565.18" y="-1297.63" font-family="Arial" font-size="14.00">q6</text>
</g>
<!-- q0&#45;&gt;q6 -->
<g id="edge22" class="edge">
<title>q0&#45;&gt;q6</title>
<path fill="none" stroke="black" d="M50.41,-1165.07C63.52,-1193.88 81.87,-1232.41 88.36,-1237.06 228.28,-1337.33 451.89,-1318.81 533.28,-1307.87"/>
<polygon fill="black" stroke="black" points="533.75,-1311.34 543.16,-1306.48 532.77,-1304.41 533.75,-1311.34"/>
<text xml:space="preserve" text-anchor="middle" x="270.23" y="-1318.09" font-family="Arial" font-size="16.00">&gt; (maior que)</text>
</g>
<!-- q7 -->
<g id="node8" class="node">
<title>q7</title>
<ellipse fill="none" stroke="black" cx="565.18" cy="-1095.06" rx="20.63" ry="20.63"/>
<text xml:space="preserve" text-anchor="middle" x="565.18" y="-1089.63" font-family="Arial" font-size="14.00">q7</text>
</g>
<!-- q0&#45;&gt;q7 -->
<g id="edge25" class="edge">
<title>q0&#45;&gt;q7</title>
<path fill="none" stroke="black" d="M67.54,-1118.63C99.51,-1104.84 150.94,-1085.17 197.86,-1078.31 321.25,-1060.25 470.28,-1079.63 533.47,-1089.73"/>
<polygon fill="black" stroke="black" points="532.66,-1093.14 543.1,-1091.31 533.8,-1086.24 532.66,-1093.14"/>
<text xml:space="preserve" text-anchor="middle" x="270.23" y="-1081.86" font-family="Arial" font-size="16.00">{ (abre comentário)</text>
</g>
<!-- qTOKEN_EOF -->
<g id="node9" class="node">
<title>qTOKEN_EOF</title>
<ellipse fill="none" stroke="black" cx="1486.11" cy="-1173.06" rx="66.03" ry="66.03"/>
<ellipse fill="none" stroke="black" cx="1486.11" cy="-1173.06" rx="70.03" ry="70.03"/>
<text xml:space="preserve" text-anchor="middle" x="1486.11" y="-1167.63" font-family="Arial" font-size="14.00">TOKEN_EOF</text>
</g>
<!-- q0&#45;&gt;qTOKEN_EOF -->
<g id="edge3" class="edge">
<title>q0&#45;&gt;qTOKEN_EOF</title>
<path fill="none" stroke="black" d="M69.15,-1143.17C75.49,-1144.93 82.1,-1146.65 88.36,-1148.06 136.47,-1158.89 148.85,-1160.5 197.86,-1166.06 602.91,-1212 707.21,-1188.33 1114.86,-1186.06 1234.53,-1185.39 1264.61,-1189.62 1384.11,-1183.06 1390.84,-1182.69 1397.81,-1182.2 1404.81,-1181.65"/>
<polygon fill="black" stroke="black" points="1404.99,-1185.15 1414.66,-1180.82 1404.4,-1178.17 1404.99,-1185.15"/>
<text xml:space="preserve" text-anchor="middle" x="808.81" y="-1196.47" font-family="Arial" font-size="16.00">EOF</text>
</g>
<!-- qTOKEN_ERROR -->
<g id="node10" class="node">
<title>qTOKEN_ERROR</title>
<ellipse fill="none" stroke="black" cx="1486.11" cy="-2408.06" rx="80.01" ry="80.01"/>
<ellipse fill="none" stroke="black" cx="1486.11" cy="-2408.06" rx="84.01" ry="84.01"/>
<text xml:space="preserve" text-anchor="middle" x="1486.11" y="-2402.63" font-family="Arial" font-size="14.00">TOKEN_ERROR</text>
</g>
<!-- q0&#45;&gt;qTOKEN_ERROR -->
<g id="edge2" class="edge">
<title>q0&#45;&gt;qTOKEN_ERROR</title>
<path fill="none" stroke="black" d="M52.9,-1164.02C59.69,-1178.23 66.77,-1195.56 70.36,-1212.06 112.38,-1405.13 42.98,-1908.74 88.36,-2101.06 131.41,-2283.49 81.79,-2482.06 269.23,-2482.06 269.23,-2482.06 269.23,-2482.06 1238.86,-2482.06 1293.63,-2482.06 1352.46,-2465.06 1398.89,-2447.36"/>
<polygon fill="black" stroke="black" points="1400.05,-2450.66 1408.09,-2443.76 1397.5,-2444.14 1400.05,-2450.66"/>
<text xml:space="preserve" text-anchor="middle" x="808.81" y="-2504.36" font-family="Arial" font-size="16.00">outro</text>
<text xml:space="preserve" text-anchor="middle" x="808.81" y="-2485.61" font-family="Arial" font-size="16.00">(char inválido)</text>
</g>
<!-- q11 -->
<g id="node15" class="node">
<title>q11</title>
<ellipse fill="none" stroke="black" cx="270.23" cy="-2074.06" rx="25.12" ry="25.12"/>
<text xml:space="preserve" text-anchor="middle" x="270.23" y="-2068.63" font-family="Arial" font-size="14.00">q11</text>
</g>
<!-- q0&#45;&gt;q11 -->
<g id="edge37" class="edge">
<title>q0&#45;&gt;q11</title>
<path fill="none" stroke="black" d="M52.85,-1164.03C59.63,-1178.24 66.72,-1195.57 70.36,-1212.06 86.75,-1286.29 58.06,-1826.33 88.36,-1896.06 119.81,-1968.44 195.81,-2026.68 238.61,-2055.13"/>
<polygon fill="black" stroke="black" points="236.67,-2058.04 246.96,-2060.56 240.49,-2052.17 236.67,-2058.04"/>
<text xml:space="preserve" text-anchor="middle" x="134.11" y="-2011.28" font-family="Arial" font-size="16.00">+ (adição)</text>
</g>
<!-- q12 -->
<g id="node16" class="node">
<title>q12</title>
<ellipse fill="none" stroke="black" cx="270.23" cy="-1949.06" rx="25.62" ry="25.62"/>
<text xml:space="preserve" text-anchor="middle" x="270.23" y="-1943.63" font-family="Arial" font-size="14.00">q12</text>
</g>
<!-- q0&#45;&gt;q12 -->
<g id="edge40" class="edge">
<title>q0&#45;&gt;q12</title>
<path fill="none" stroke="black" d="M52.79,-1164.04C59.56,-1178.26 66.65,-1195.58 70.36,-1212.06 83.35,-1269.87 66.4,-1690.02 88.36,-1745.06 120.07,-1824.55 197.23,-1893.53 239.8,-1927.18"/>
<polygon fill="black" stroke="black" points="237.6,-1929.9 247.64,-1933.27 241.89,-1924.37 237.6,-1929.9"/>
<text xml:space="preserve" text-anchor="middle" x="134.11" y="-1874.04" font-family="Arial" font-size="16.00">&#45; (subtração)</text>
</g>
<!-- qOP_EQ -->
<g id="node20" class="node">
<title>qOP_EQ</title>
<ellipse fill="none" stroke="black" cx="808.81" cy="-1044.06" rx="42.58" ry="42.58"/>
<ellipse fill="none" stroke="black" cx="808.81" cy="-1044.06" rx="46.58" ry="46.58"/>
<text xml:space="preserve" text-anchor="middle" x="808.81" y="-1038.63" font-family="Arial" font-size="14.00">OP_EQ</text>
</g>
<!-- q0&#45;&gt;qOP_EQ -->
<g id="edge29" class="edge">
<title>q0&#45;&gt;qOP_EQ</title>
<path fill="none" stroke="black" d="M55.27,-1103.98C64,-1093.06 75.33,-1081.7 88.36,-1075.06 311.32,-961.32 625.57,-1006.52 751.96,-1031.62"/>
<polygon fill="black" stroke="black" points="750.9,-1034.98 761.39,-1033.54 752.29,-1028.12 750.9,-1034.98"/>
<text xml:space="preserve" text-anchor="middle" x="428.86" y="-1008.34" font-family="Arial" font-size="16.00">= (igual)</text>
</g>
<!-- qOP_MUL -->
<g id="node28" class="node">
<title>qOP_MUL</title>
<ellipse fill="none" stroke="black" cx="808.81" cy="-916.06" rx="48.57" ry="48.57"/>
<ellipse fill="none" stroke="black" cx="808.81" cy="-916.06" rx="52.57" ry="52.57"/>
<text xml:space="preserve" text-anchor="middle" x="808.81" y="-910.63" font-family="Arial" font-size="14.00">OP_MUL</text>
</g>
<!-- q0&#45;&gt;qOP_MUL -->
<g id="edge30" class="edge">
<title>q0&#45;&gt;qOP_MUL</title>
<path fill="none" stroke="black" d="M45.82,-1099.5C53.82,-1077.37 67.34,-1049.37 88.36,-1032.06 127.49,-999.82 148.35,-1011 197.86,-1000.06 395.18,-956.42 633.72,-931.42 744.98,-921.33"/>
<polygon fill="black" stroke="black" points="745.15,-924.83 754.8,-920.45 744.52,-917.86 745.15,-924.83"/>
<text xml:space="preserve" text-anchor="middle" x="428.86" y="-972.18" font-family="Arial" font-size="16.00">* (multiplicação)</text>
</g>
<!-- qOP_DIV -->
<g id="node29" class="node">
<title>qOP_DIV</title>
<ellipse fill="none" stroke="black" cx="808.81" cy="-786.06" rx="44.08" ry="44.08"/>
<ellipse fill="none" stroke="black" cx="808.81" cy="-786.06" rx="48.08" ry="48.08"/>
<text xml:space="preserve" text-anchor="middle" x="808.81" y="-780.63" font-family="Arial" font-size="14.00">OP_DIV</text>
</g>
<!-- q0&#45;&gt;qOP_DIV -->
<g id="edge31" class="edge">
<title>q0&#45;&gt;qOP_DIV</title>
<path fill="none" stroke="black" d="M40.66,-1098.1C46.44,-1067.11 59.46,-1022.73 88.36,-996.06 280.66,-818.54 614.91,-790.33 749.34,-786.4"/>
<polygon fill="black" stroke="black" points="749.15,-789.9 759.06,-786.15 748.98,-782.91 749.15,-789.9"/>
<text xml:space="preserve" text-anchor="middle" x="428.86" y="-849.92" font-family="Arial" font-size="16.00">/ (divisão)</text>
</g>
<!-- qSMB_SEM -->
<g id="node31" class="node">
<title>qSMB_SEM</title>
<ellipse fill="none" stroke="black" cx="808.81" cy="-649.06" rx="55.55" ry="55.55"/>
<ellipse fill="none" stroke="black" cx="808.81" cy="-649.06" rx="59.55" ry="59.55"/>
<text xml:space="preserve" text-anchor="middle" x="808.81" y="-643.63" font-family="Arial" font-size="14.00">SMB_SEM</text>
</g>
<!-- q0&#45;&gt;qSMB_SEM -->
<g id="edge32" class="edge">
<title>q0&#45;&gt;qSMB_SEM</title>
<path fill="none" stroke="black" d="M37.46,-1097.76C40.64,-1053.51 51.53,-977.03 88.36,-924.06 122.03,-875.62 145.43,-876.1 197.86,-849.06 383.09,-753.52 623.21,-690.83 739.17,-663.98"/>
<polygon fill="black" stroke="black" points="739.89,-667.41 748.85,-661.76 738.32,-660.58 739.89,-667.41"/>
<text xml:space="preserve" text-anchor="middle" x="428.86" y="-779.16" font-family="Arial" font-size="16.00">; (ponto e vírgula)</text>
</g>
<!-- qSMB_COM -->
<g id="node32" class="node">
<title>qSMB_COM</title>
<ellipse fill="none" stroke="black" cx="808.81" cy="-499.06" rx="57.55" ry="57.55"/>
<ellipse fill="none" stroke="black" cx="808.81" cy="-499.06" rx="61.55" ry="61.55"/>
<text xml:space="preserve" text-anchor="middle" x="808.81" y="-493.63" font-family="Arial" font-size="14.00">SMB_COM</text>
</g>
<!-- q0&#45;&gt;qSMB_COM -->
<g id="edge33" class="edge">
<title>q0&#45;&gt;qSMB_COM</title>
<path fill="none" stroke="black" d="M39.27,-1097.77C45.64,-1031.44 61.88,-891.22 88.36,-851.06 239.6,-621.65 586.01,-536.67 736.18,-509.84"/>
<polygon fill="black" stroke="black" points="736.77,-513.29 746.02,-508.12 735.57,-506.39 736.77,-513.29"/>
<text xml:space="preserve" text-anchor="middle" x="428.86" y="-628.87" font-family="Arial" font-size="16.00">, (vírgula)</text>
</g>
<!-- qSMB_OPA -->
<g id="node33" class="node">
<title>qSMB_OPA</title>
<ellipse fill="none" stroke="black" cx="808.81" cy="-350.06" rx="54.56" ry="54.56"/>
<ellipse fill="none" stroke="black" cx="808.81" cy="-350.06" rx="58.56" ry="58.56"/>
<text xml:space="preserve" text-anchor="middle" x="808.81" y="-344.63" font-family="Arial" font-size="14.00">SMB_OPA</text>
</g>
<!-- q0&#45;&gt;qSMB_OPA -->
<g id="edge34" class="edge">
<title>q0&#45;&gt;qSMB_OPA</title>
<path fill="none" stroke="black" d="M38.09,-1097.71C43.06,-1014.19 58.15,-806.98 88.36,-745.06 213.84,-487.84 585.28,-391.09 739.49,-361.34"/>
<polygon fill="black" stroke="black" points="739.99,-364.81 749.17,-359.51 738.69,-357.93 739.99,-364.81"/>
<text xml:space="preserve" text-anchor="middle" x="428.86" y="-489.93" font-family="Arial" font-size="16.00">( (abre parêntese)</text>
</g>
<!-- qSMB_CPA -->
<g id="node34" class="node">
<title>qSMB_CPA</title>
<ellipse fill="none" stroke="black" cx="808.81" cy="-205.06" rx="53.56" ry="53.56"/>
<ellipse fill="none" stroke="black" cx="808.81" cy="-205.06" rx="57.56" ry="57.56"/>
<text xml:space="preserve" text-anchor="middle" x="808.81" y="-199.63" font-family="Arial" font-size="14.00">SMB_CPA</text>
</g>
<!-- q0&#45;&gt;qSMB_CPA -->
<g id="edge35" class="edge">
<title>q0&#45;&gt;qSMB_CPA</title>
<path fill="none" stroke="black" d="M36.89,-1097.73C39.4,-995.76 49.85,-702.72 88.36,-616.06 206.15,-350.9 584.95,-248.43 740.34,-216.9"/>
<polygon fill="black" stroke="black" points="740.97,-220.34 750.09,-214.95 739.6,-213.47 740.97,-220.34"/>
<text xml:space="preserve" text-anchor="middle" x="428.86" y="-352.49" font-family="Arial" font-size="16.00">) (fecha parêntese)</text>
</g>
<!-- qSMB_DOT -->
<g id="node36" class="node">
<title>qSMB_DOT</title>
<ellipse fill="none" stroke="black" cx="808.81" cy="-59.06" rx="55.06" ry="55.06"/>
<ellipse fill="none" stroke="black" cx="808.81" cy="-59.06" rx="59.06" ry="59.06"/>
<text xml:space="preserve" text-anchor="middle" x="808.81" y="-53.63" font-family="Arial" font-size="14.00">SMB_DOT</text>
</g>
<!-- q0&#45;&gt;qSMB_DOT -->
<g id="edge36" class="edge">
<title>q0&#45;&gt;qSMB_DOT</title>
<path fill="none" stroke="black" d="M36.08,-1097.56C36.19,-978 40.33,-591.2 88.36,-478.06 202.18,-209.91 582.68,-104.28 739.43,-71.47"/>
<polygon fill="black" stroke="black" points="739.75,-74.98 748.84,-69.54 738.34,-68.12 739.75,-74.98"/>
<text xml:space="preserve" text-anchor="middle" x="428.86" y="-206.31" font-family="Arial" font-size="16.00">. (ponto)</text>
</g>
<!-- q1&#45;&gt;q1 -->
<g id="edge5" class="edge">
<title>q1&#45;&gt;q1</title>
<path fill="none" stroke="black" d="M549.38,-2595.03C537.81,-2611.49 543.08,-2630.68 565.18,-2630.68 582.8,-2630.68 589.72,-2618.49 585.95,-2605.21"/>
<polygon fill="black" stroke="black" points="589.17,-2603.84 581.65,-2596.39 582.88,-2606.91 589.17,-2603.84"/>
<text xml:space="preserve" text-anchor="middle" x="565.18" y="-2634.23" font-family="Arial" font-size="16.00">[a&#45;z][A&#45;Z] | [0&#45;9]</text>
</g>
<!-- qID_KW -->
<g id="node17" class="node">
<title>qID_KW</title>
<ellipse fill="none" stroke="black" cx="808.81" cy="-2590.06" rx="37.09" ry="37.09"/>
<ellipse fill="none" stroke="black" cx="808.81" cy="-2590.06" rx="41.09" ry="41.09"/>
<text xml:space="preserve" text-anchor="middle" x="808.81" y="-2584.63" font-family="Arial" font-size="14.00">ID/KW</text>
</g>
<!-- q1&#45;&gt;qID_KW -->
<g id="edge6" class="edge">
<title>q1&#45;&gt;qID_KW</title>
<path fill="none" stroke="black" d="M585.95,-2581.79C622.81,-2583.17 703.08,-2586.16 756.28,-2588.14"/>
<polygon fill="black" stroke="black" points="755.89,-2591.62 766.01,-2588.5 756.15,-2584.63 755.89,-2591.62"/>
<text xml:space="preserve" text-anchor="middle" x="681.25" y="-2609.19" font-family="Arial" font-size="16.00">outro</text>
<text xml:space="preserve" text-anchor="middle" x="681.25" y="-2590.44" font-family="Arial" font-size="16.00">(lookahead)</text>
</g>
<!-- q2&#45;&gt;q2 -->
<g id="edge8" class="edge">
<title>q2&#45;&gt;q2</title>
<path fill="none" stroke="black" d="M549.38,-2199.03C537.81,-2215.49 543.08,-2234.68 565.18,-2234.68 582.8,-2234.68 589.72,-2222.49 585.95,-2209.21"/>
<polygon fill="black" stroke="black" points="589.17,-2207.84 581.65,-2200.39 582.88,-2210.91 589.17,-2207.84"/>
<text xml:space="preserve" text-anchor="middle" x="565.18" y="-2238.23" font-family="Arial" font-size="16.00">[0&#45;9]</text>
</g>
<!-- q3 -->
<g id="node11" class="node">
<title>q3</title>
<ellipse fill="none" stroke="black" cx="808.81" cy="-2290.06" rx="20.63" ry="20.63"/>
<text xml:space="preserve" text-anchor="middle" x="808.81" y="-2284.63" font-family="Arial" font-size="14.00">q3</text>
</g>
<!-- q2&#45;&gt;q3 -->
<g id="edge11" class="edge">
<title>q2&#45;&gt;q3</title>
<path fill="none" stroke="black" d="M582,-2197.4C595.15,-2207.23 614.67,-2220.82 633.25,-2230.06 681.47,-2254.01 741.58,-2272.36 777.21,-2282.15"/>
<polygon fill="black" stroke="black" points="776.27,-2285.52 786.83,-2284.74 778.09,-2278.76 776.27,-2285.52"/>
<text xml:space="preserve" text-anchor="middle" x="681.25" y="-2270.49" font-family="Arial" font-size="16.00">. (ponto)</text>
</g>
<!-- q8 -->
<g id="node12" class="node">
<title>q8</title>
<ellipse fill="none" stroke="black" cx="1022.61" cy="-2315.06" rx="20.63" ry="20.63"/>
<text xml:space="preserve" text-anchor="middle" x="1022.61" y="-2309.63" font-family="Arial" font-size="14.00">q8</text>
</g>
<!-- q2&#45;&gt;q8 -->
<g id="edge9" class="edge">
<title>q2&#45;&gt;q8</title>
<path fill="none" stroke="black" d="M574.39,-2203.69C585.26,-2226.79 606.26,-2266.37 633.25,-2293.06 675.37,-2334.69 690.21,-2346.14 747.25,-2362.06 835.1,-2386.57 942.53,-2349.4 992.93,-2328.17"/>
<polygon fill="black" stroke="black" points="994.17,-2331.44 1001.96,-2324.26 991.39,-2325.02 994.17,-2331.44"/>
<text xml:space="preserve" text-anchor="middle" x="808.81" y="-2373.67" font-family="Arial" font-size="16.00">Ee</text>
</g>
<!-- qNUM_INT -->
<g id="node18" class="node">
<title>qNUM_INT</title>
<ellipse fill="none" stroke="black" cx="808.81" cy="-2185.06" rx="51.06" ry="51.06"/>
<ellipse fill="none" stroke="black" cx="808.81" cy="-2185.06" rx="55.06" ry="55.06"/>
<text xml:space="preserve" text-anchor="middle" x="808.81" y="-2179.63" font-family="Arial" font-size="14.00">NUM_INT</text>
</g>
<!-- q2&#45;&gt;qNUM_INT -->
<g id="edge10" class="edge">
<title>q2&#45;&gt;qNUM_INT</title>
<path fill="none" stroke="black" d="M585.95,-2185.06C619.66,-2185.06 689.68,-2185.06 742.09,-2185.06"/>
<polygon fill="black" stroke="black" points="741.81,-2188.56 751.81,-2185.06 741.81,-2181.56 741.81,-2188.56"/>
<text xml:space="preserve" text-anchor="middle" x="681.25" y="-2207.36" font-family="Arial" font-size="16.00">outro</text>
<text xml:space="preserve" text-anchor="middle" x="681.25" y="-2188.61" font-family="Arial" font-size="16.00">(lookahead)</text>
</g>
<!-- qOP_ASS -->
<g id="node30" class="node">
<title>qOP_ASS</title>
<ellipse fill="none" stroke="black" cx="808.81" cy="-2050.06" rx="47.07" ry="47.07"/>
<ellipse fill="none" stroke="black" cx="808.81" cy="-2050.06" rx="51.07" ry="51.07"/>
<text xml:space="preserve" text-anchor="middle" x="808.81" y="-2044.63" font-family="Arial" font-size="14.00">OP_ASS</text>
</g>
<!-- q4&#45;&gt;qOP_ASS -->
<g id="edge16" class="edge">
<title>q4&#45;&gt;qOP_ASS</title>
<path fill="none" stroke="black" d="M584.17,-1858.27C594.51,-1864.36 607.04,-1873.21 615.25,-1884.06 629.52,-1902.88 618.68,-1915.47 633.25,-1934.06 664.58,-1974.01 713.61,-2004.87 751.74,-2024.68"/>
<polygon fill="black" stroke="black" points="749.83,-2027.64 760.33,-2029.04 753,-2021.4 749.83,-2027.64"/>
<text xml:space="preserve" text-anchor="middle" x="681.25" y="-2015.56" font-family="Arial" font-size="16.00">= (igual)</text>
</g>
<!-- qSMB_COL -->
<g id="node35" class="node">
<title>qSMB_COL</title>
<ellipse fill="none" stroke="black" cx="808.81" cy="-1911.06" rx="54.56" ry="54.56"/>
<ellipse fill="none" stroke="black" cx="808.81" cy="-1911.06" rx="58.56" ry="58.56"/>
<text xml:space="preserve" text-anchor="middle" x="808.81" y="-1905.63" font-family="Arial" font-size="14.00">SMB_COL</text>
</g>
<!-- q4&#45;&gt;qSMB_COL -->
<g id="edge17" class="edge">
<title>q4&#45;&gt;qSMB_COL</title>
<path fill="none" stroke="black" d="M585.55,-1854.02C618.79,-1862.56 688.21,-1880.37 740.68,-1893.83"/>
<polygon fill="black" stroke="black" points="739.57,-1897.16 750.13,-1896.26 741.31,-1890.38 739.57,-1897.16"/>
<text xml:space="preserve" text-anchor="middle" x="681.25" y="-1911.53" font-family="Arial" font-size="16.00">outro</text>
<text xml:space="preserve" text-anchor="middle" x="681.25" y="-1892.78" font-family="Arial" font-size="16.00">(lookahead)</text>
</g>
<!-- qOP_NE -->
<g id="node21" class="node">
<title>qOP_NE</title>
<ellipse fill="none" stroke="black" cx="808.81" cy="-1778.06" rx="41.58" ry="41.58"/>
<ellipse fill="none" stroke="black" cx="808.81" cy="-1778.06" rx="45.58" ry="45.58"/>
<text xml:space="preserve" text-anchor="middle" x="808.81" y="-1772.63" font-family="Arial" font-size="14.00">OP_NE</text>
</g>
<!-- q5&#45;&gt;qOP_NE -->
<g id="edge19" class="edge">
<title>q5&#45;&gt;qOP_NE</title>
<path fill="none" stroke="black" d="M577.15,-1619.11C589.26,-1636.95 610.13,-1664.98 633.25,-1684.06 670.47,-1714.75 719.26,-1740.01 755.8,-1756.59"/>
<polygon fill="black" stroke="black" points="754.29,-1759.75 764.85,-1760.62 757.14,-1753.36 754.29,-1759.75"/>
<text xml:space="preserve" text-anchor="middle" x="681.25" y="-1747.18" font-family="Arial" font-size="16.00">&gt; (maior que)</text>
</g>
<!-- qOP_LT -->
<g id="node22" class="node">
<title>qOP_LT</title>
<ellipse fill="none" stroke="black" cx="808.81" cy="-1660.06" rx="39.09" ry="39.09"/>
<ellipse fill="none" stroke="black" cx="808.81" cy="-1660.06" rx="43.09" ry="43.09"/>
<text xml:space="preserve" text-anchor="middle" x="808.81" y="-1654.63" font-family="Arial" font-size="14.00">OP_LT</text>
</g>
<!-- q5&#45;&gt;qOP_LT -->
<g id="edge21" class="edge">
<title>q5&#45;&gt;qOP_LT</title>
<path fill="none" stroke="black" d="M585.55,-1606.7C622.03,-1615.46 702.09,-1634.68 755.49,-1647.5"/>
<polygon fill="black" stroke="black" points="754.44,-1650.85 764.98,-1649.78 756.07,-1644.04 754.44,-1650.85"/>
<text xml:space="preserve" text-anchor="middle" x="681.25" y="-1661.94" font-family="Arial" font-size="16.00">outro</text>
<text xml:space="preserve" text-anchor="middle" x="681.25" y="-1643.19" font-family="Arial" font-size="16.00">(lookahead)</text>
</g>
<!-- qOP_LE -->
<g id="node23" class="node">
<title>qOP_LE</title>
<ellipse fill="none" stroke="black" cx="808.81" cy="-1544.06" rx="40.09" ry="40.09"/>
<ellipse fill="none" stroke="black" cx="808.81" cy="-1544.06" rx="44.09" ry="44.09"/>
<text xml:space="preserve" text-anchor="middle" x="808.81" y="-1538.63" font-family="Arial" font-size="14.00">OP_LE</text>
</g>
<!-- q5&#45;&gt;qOP_LE -->
<g id="edge20" class="edge">
<title>q5&#45;&gt;qOP_LE</title>
<path fill="none" stroke="black" d="M585.55,-1597.41C621.82,-1588.7 701.17,-1569.65 754.57,-1556.84"/>
<polygon fill="black" stroke="black" points="755.16,-1560.29 764.07,-1554.55 753.53,-1553.49 755.16,-1560.29"/>
<text xml:space="preserve" text-anchor="middle" x="681.25" y="-1588.47" font-family="Arial" font-size="16.00">= (igual)</text>
</g>
<!-- qOP_GT -->
<g id="node24" class="node">
<title>qOP_GT</title>
<ellipse fill="none" stroke="black" cx="808.81" cy="-1425.06" rx="42.08" ry="42.08"/>
<ellipse fill="none" stroke="black" cx="808.81" cy="-1425.06" rx="46.08" ry="46.08"/>
<text xml:space="preserve" text-anchor="middle" x="808.81" y="-1419.63" font-family="Arial" font-size="14.00">OP_GT</text>
</g>
<!-- q6&#45;&gt;qOP_GT -->
<g id="edge24" class="edge">
<title>q6&#45;&gt;qOP_GT</title>
<path fill="none" stroke="black" d="M583.95,-1312.03C619.99,-1330.22 702.86,-1372.07 757.03,-1399.42"/>
<polygon fill="black" stroke="black" points="755.27,-1402.45 765.77,-1403.83 758.42,-1396.2 755.27,-1402.45"/>
<text xml:space="preserve" text-anchor="middle" x="681.25" y="-1404.41" font-family="Arial" font-size="16.00">outro</text>
<text xml:space="preserve" text-anchor="middle" x="681.25" y="-1385.66" font-family="Arial" font-size="16.00">(lookahead)</text>
</g>
<!-- qOP_GE -->
<g id="node25" class="node">
<title>qOP_GE</title>
<ellipse fill="none" stroke="black" cx="808.81" cy="-1303.06" rx="42.58" ry="42.58"/>
<ellipse fill="none" stroke="black" cx="808.81" cy="-1303.06" rx="46.58" ry="46.58"/>
<text xml:space="preserve" text-anchor="middle" x="808.81" y="-1297.63" font-family="Arial" font-size="14.00">OP_GE</text>
</g>
<!-- q6&#45;&gt;qOP_GE -->
<g id="edge23" class="edge">
<title>q6&#45;&gt;qOP_GE</title>
<path fill="none" stroke="black" d="M585.95,-1303.06C621.55,-1303.06 697.65,-1303.06 750.73,-1303.06"/>
<polygon fill="black" stroke="black" points="750.51,-1306.56 760.51,-1303.06 750.51,-1299.56 750.51,-1306.56"/>
<text xml:space="preserve" text-anchor="middle" x="681.25" y="-1306.61" font-family="Arial" font-size="16.00">= (igual)</text>
</g>
<!-- q7&#45;&gt;q0 -->
<g id="edge27" class="edge">
<title>q7&#45;&gt;q0</title>
<path fill="none" stroke="black" d="M544.22,-1096.56C530.89,-1097.56 512.95,-1098.9 497.11,-1100.06 345,-1111.17 164.62,-1123.98 81.84,-1129.83"/>
<polygon fill="black" stroke="black" points="81.82,-1126.32 72.09,-1130.52 82.32,-1133.31 81.82,-1126.32"/>
<text xml:space="preserve" text-anchor="middle" x="270.23" y="-1143.61" font-family="Arial" font-size="16.00">} (fecha comentário)</text>
<text xml:space="preserve" text-anchor="middle" x="270.23" y="-1124.86" font-family="Arial" font-size="16.00">(sem gerar token)</text>
</g>
<!-- q7&#45;&gt;q7 -->
<g id="edge26" class="edge">
<title>q7&#45;&gt;q7</title>
<path fill="none" stroke="black" d="M549.38,-1109.03C537.81,-1125.49 543.08,-1144.68 565.18,-1144.68 582.8,-1144.68 589.72,-1132.49 585.95,-1119.21"/>
<polygon fill="black" stroke="black" points="589.17,-1117.84 581.65,-1110.39 582.88,-1120.91 589.17,-1117.84"/>
<text xml:space="preserve" text-anchor="middle" x="565.18" y="-1166.98" font-family="Arial" font-size="16.00">qualquer char</text>
<text xml:space="preserve" text-anchor="middle" x="565.18" y="-1148.23" font-family="Arial" font-size="16.00">(exceto &#39;}&#39; e EOF)</text>
</g>
<!-- q7&#45;&gt;qTOKEN_EOF -->
<g id="edge28" class="edge">
<title>q7&#45;&gt;qTOKEN_EOF</title>
<path fill="none" stroke="black" d="M586.23,-1096.76C693.79,-1105.89 1205,-1149.28 1404.81,-1166.24"/>
<polygon fill="black" stroke="black" points="1404.33,-1169.71 1414.59,-1167.07 1404.92,-1162.74 1404.33,-1169.71"/>
<text xml:space="preserve" text-anchor="middle" x="1022.61" y="-1163.88" font-family="Arial" font-size="16.00">EOF</text>
<text xml:space="preserve" text-anchor="middle" x="1022.61" y="-1145.13" font-family="Arial" font-size="16.00">(comentário não fechado)</text>
</g>
<!-- q3&#45;&gt;q3 -->
<g id="edge12" class="edge">
<title>q3&#45;&gt;q3</title>
<path fill="none" stroke="black" d="M795.29,-2306.06C787.58,-2322.03 792.09,-2339.68 808.81,-2339.68 821.74,-2339.68 827.36,-2329.12 825.68,-2316.95"/>
<polygon fill="black" stroke="black" points="829.06,-2316.04 822.77,-2307.51 822.37,-2318.1 829.06,-2316.04"/>
<text xml:space="preserve" text-anchor="middle" x="808.81" y="-2343.23" font-family="Arial" font-size="16.00">[0&#45;9]</text>
</g>
<!-- q3&#45;&gt;q8 -->
<g id="edge13" class="edge">
<title>q3&#45;&gt;q8</title>
<path fill="none" stroke="black" d="M829.73,-2292.41C866.8,-2296.78 946.6,-2306.2 990.71,-2311.41"/>
<polygon fill="black" stroke="black" points="990.04,-2314.85 1000.39,-2312.55 990.86,-2307.9 990.04,-2314.85"/>
<text xml:space="preserve" text-anchor="middle" x="900.36" y="-2305.36" font-family="Arial" font-size="16.00">E e</text>
</g>
<!-- qNUM_REAL -->
<g id="node19" class="node">
<title>qNUM_REAL</title>
<ellipse fill="none" stroke="black" cx="1755.66" cy="-2168.06" rx="60.05" ry="60.05"/>
<ellipse fill="none" stroke="black" cx="1755.66" cy="-2168.06" rx="64.05" ry="64.05"/>
<text xml:space="preserve" text-anchor="middle" x="1755.66" y="-2162.63" font-family="Arial" font-size="14.00">NUM_REAL</text>
</g>
<!-- q3&#45;&gt;qNUM_REAL -->
<g id="edge14" class="edge">
<title>q3&#45;&gt;qNUM_REAL</title>
<path fill="none" stroke="black" d="M827.6,-2280.44C839.83,-2273.67 856.33,-2264.22 870.36,-2255.06 940.17,-2209.46 938.22,-2144.06 1021.61,-2144.06 1021.61,-2144.06 1021.61,-2144.06 1487.11,-2144.06 1552.75,-2144.06 1627.08,-2151.31 1680.71,-2157.84"/>
<polygon fill="black" stroke="black" points="1679.97,-2161.28 1690.33,-2159.03 1680.83,-2154.33 1679.97,-2161.28"/>
<text xml:space="preserve" text-anchor="middle" x="1237.86" y="-2166.36" font-family="Arial" font-size="16.00">outro</text>
<text xml:space="preserve" text-anchor="middle" x="1237.86" y="-2147.61" font-family="Arial" font-size="16.00">(lookahead)</text>
</g>
<!-- q8&#45;&gt;qTOKEN_ERROR -->
<g id="edge47" class="edge">
<title>q8&#45;&gt;qTOKEN_ERROR</title>
<path fill="none" stroke="black" d="M1041.29,-2323.99C1062.49,-2334.32 1099.38,-2351.04 1132.86,-2360.06 1218.56,-2383.14 1319.13,-2395.43 1390.83,-2401.78"/>
<polygon fill="black" stroke="black" points="1390.31,-2405.25 1400.57,-2402.62 1390.91,-2398.27 1390.31,-2405.25"/>
<text xml:space="preserve" text-anchor="middle" x="1237.86" y="-2410.84" font-family="Arial" font-size="16.00">outro</text>
<text xml:space="preserve" text-anchor="middle" x="1237.86" y="-2392.09" font-family="Arial" font-size="16.00">(lookahead)</text>
</g>
<!-- q9 -->
<g id="node13" class="node">
<title>q9</title>
<ellipse fill="none" stroke="black" cx="1237.86" cy="-2315.06" rx="20.63" ry="20.63"/>
<text xml:space="preserve" text-anchor="middle" x="1237.86" y="-2309.63" font-family="Arial" font-size="14.00">q9</text>
</g>
<!-- q8&#45;&gt;q9 -->
<g id="edge43" class="edge">
<title>q8&#45;&gt;q9</title>
<path fill="none" stroke="black" d="M1043.67,-2315.06C1080.99,-2315.06 1161.34,-2315.06 1205.75,-2315.06"/>
<polygon fill="black" stroke="black" points="1205.49,-2318.56 1215.49,-2315.06 1205.49,-2311.56 1205.49,-2318.56"/>
<text xml:space="preserve" text-anchor="middle" x="1154.98" y="-2337.36" font-family="Arial" font-size="16.00">+ | &#45;</text>
<text xml:space="preserve" text-anchor="middle" x="1154.98" y="-2318.61" font-family="Arial" font-size="16.00">(sinal)</text>
</g>
<!-- q10 -->
<g id="node14" class="node">
<title>q10</title>
<ellipse fill="none" stroke="black" cx="1486.11" cy="-2233.06" rx="25.62" ry="25.62"/>
<text xml:space="preserve" text-anchor="middle" x="1486.11" y="-2227.63" font-family="Arial" font-size="14.00">q10</text>
</g>
<!-- q8&#45;&gt;q10 -->
<g id="edge44" class="edge">
<title>q8&#45;&gt;q10</title>
<path fill="none" stroke="black" d="M1042.31,-2307.79C1073.47,-2296 1138.23,-2272.86 1195.11,-2261.31 1285.17,-2243.01 1393.45,-2236.46 1448.74,-2234.19"/>
<polygon fill="black" stroke="black" points="1448.66,-2237.7 1458.52,-2233.82 1448.39,-2230.7 1448.66,-2237.7"/>
<text xml:space="preserve" text-anchor="middle" x="1237.86" y="-2264.86" font-family="Arial" font-size="16.00">[0&#45;9]</text>
</g>
<!-- q9&#45;&gt;qTOKEN_ERROR -->
<g id="edge48" class="edge">
<title>q9&#45;&gt;qTOKEN_ERROR</title>
<path fill="none" stroke="black" d="M1258.83,-2315.96C1287.51,-2317.83 1341.57,-2323.5 1384.11,-2340.56 1392.23,-2343.81 1400.37,-2347.79 1408.31,-2352.16"/>
<polygon fill="black" stroke="black" points="1406.52,-2355.17 1416.94,-2357.13 1410.02,-2349.11 1406.52,-2355.17"/>
<text xml:space="preserve" text-anchor="middle" x="1341.36" y="-2362.86" font-family="Arial" font-size="16.00">outro</text>
<text xml:space="preserve" text-anchor="middle" x="1341.36" y="-2344.11" font-family="Arial" font-size="16.00">(lookahead)</text>
</g>
<!-- q9&#45;&gt;q10 -->
<g id="edge45" class="edge">
<title>q9&#45;&gt;q10</title>
<path fill="none" stroke="black" d="M1256.86,-2305.82C1268.56,-2300.04 1284.26,-2292.69 1298.61,-2287.31 1350.25,-2267.93 1412.05,-2251.17 1449.93,-2241.59"/>
<polygon fill="black" stroke="black" points="1450.56,-2245.04 1459.42,-2239.22 1448.87,-2238.25 1450.56,-2245.04"/>
<text xml:space="preserve" text-anchor="middle" x="1341.36" y="-2290.86" font-family="Arial" font-size="16.00">[0&#45;9]</text>
</g>
<!-- q10&#45;&gt;q10 -->
<g id="edge46" class="edge">
<title>q10&#45;&gt;q10</title>
<path fill="none" stroke="black" d="M1465.76,-2249.27C1452.19,-2267.19 1458.97,-2287.67 1486.11,-2287.67 1508.38,-2287.67 1516.94,-2273.89 1511.81,-2259.04"/>
<polygon fill="black" stroke="black" points="1515.06,-2257.69 1507.19,-2250.6 1508.92,-2261.05 1515.06,-2257.69"/>
<text xml:space="preserve" text-anchor="middle" x="1486.11" y="-2291.22" font-family="Arial" font-size="16.00">[0&#45;9]</text>
</g>
<!-- q10&#45;&gt;qNUM_REAL -->
<g id="edge49" class="edge">
<title>q10&#45;&gt;qNUM_REAL</title>
<path fill="none" stroke="black" d="M1511.33,-2227.17C1549.5,-2217.9 1625.15,-2199.52 1682.02,-2185.7"/>
<polygon fill="black" stroke="black" points="1682.77,-2189.12 1691.66,-2183.36 1681.12,-2182.32 1682.77,-2189.12"/>
<text xml:space="preserve" text-anchor="middle" x="1630.87" y="-2230.59" font-family="Arial" font-size="16.00">outro</text>
<text xml:space="preserve" text-anchor="middle" x="1630.87" y="-2211.84" font-family="Arial" font-size="16.00">(lookahead)</text>
</g>
<!-- q11&#45;&gt;q2 -->
<g id="edge38" class="edge">
<title>q11&#45;&gt;q2</title>
<path fill="none" stroke="black" d="M293.19,-2085.01C311.01,-2093.57 336.97,-2105.27 360.61,-2113.06 419.72,-2132.53 439.44,-2120.9 497.11,-2144.31 511.51,-2150.15 526.39,-2158.88 538.47,-2166.76"/>
<polygon fill="black" stroke="black" points="536.38,-2169.57 546.63,-2172.25 540.29,-2163.76 536.38,-2169.57"/>
<text xml:space="preserve" text-anchor="middle" x="428.86" y="-2147.86" font-family="Arial" font-size="16.00">[0&#45;9]</text>
</g>
<!-- qOP_AD -->
<g id="node26" class="node">
<title>qOP_AD</title>
<ellipse fill="none" stroke="black" cx="565.18" cy="-2074.06" rx="41.58" ry="41.58"/>
<ellipse fill="none" stroke="black" cx="565.18" cy="-2074.06" rx="45.58" ry="45.58"/>
<text xml:space="preserve" text-anchor="middle" x="565.18" y="-2068.63" font-family="Arial" font-size="14.00">OP_AD</text>
</g>
<!-- q11&#45;&gt;qOP_AD -->
<g id="edge39" class="edge">
<title>q11&#45;&gt;qOP_AD</title>
<path fill="none" stroke="black" d="M295.51,-2073.54C313.48,-2073.18 338.57,-2072.74 360.61,-2072.56 421.27,-2072.05 436.44,-2071.88 497.11,-2072.56 500.72,-2072.6 504.44,-2072.65 508.19,-2072.71"/>
<polygon fill="black" stroke="black" points="507.87,-2076.2 517.93,-2072.89 508,-2069.21 507.87,-2076.2"/>
<text xml:space="preserve" text-anchor="middle" x="428.86" y="-2094.86" font-family="Arial" font-size="16.00">outro</text>
<text xml:space="preserve" text-anchor="middle" x="428.86" y="-2076.11" font-family="Arial" font-size="16.00">(lookahead)</text>
</g>
<!-- q12&#45;&gt;q2 -->
<g id="edge41" class="edge">
<title>q12&#45;&gt;q2</title>
<path fill="none" stroke="black" d="M293.99,-1959.05C312.03,-1966.95 337.91,-1978.26 360.61,-1988.06 421.17,-2014.19 455.38,-1995.22 497.11,-2046.31 522.29,-2077.14 496.57,-2098.82 515.11,-2134.06 521.26,-2145.76 530.91,-2156.63 540.04,-2165.31"/>
<polygon fill="black" stroke="black" points="537.58,-2167.81 547.36,-2171.9 542.27,-2162.61 537.58,-2167.81"/>
<text xml:space="preserve" text-anchor="middle" x="428.86" y="-2049.86" font-family="Arial" font-size="16.00">[0&#45;9]</text>
</g>
<!-- qOP_MIN -->
<g id="node27" class="node">
<title>qOP_MIN</title>
<ellipse fill="none" stroke="black" cx="565.18" cy="-1949.06" rx="46.07" ry="46.07"/>
<ellipse fill="none" stroke="black" cx="565.18" cy="-1949.06" rx="50.07" ry="50.07"/>
<text xml:space="preserve" text-anchor="middle" x="565.18" y="-1943.63" font-family="Arial" font-size="14.00">OP_MIN</text>
</g>
<!-- q12&#45;&gt;qOP_MIN -->
<g id="edge42" class="edge">
<title>q12&#45;&gt;qOP_MIN</title>
<path fill="none" stroke="black" d="M296.27,-1948.52C314.19,-1948.17 338.88,-1947.74 360.61,-1947.56 421.27,-1947.05 436.44,-1946.88 497.11,-1947.56 499.16,-1947.58 501.24,-1947.61 503.35,-1947.64"/>
<polygon fill="black" stroke="black" points="503.16,-1951.13 513.22,-1947.8 503.28,-1944.13 503.16,-1951.13"/>
<text xml:space="preserve" text-anchor="middle" x="428.86" y="-1969.86" font-family="Arial" font-size="16.00">outro</text>
<text xml:space="preserve" text-anchor="middle" x="428.86" y="-1951.11" font-family="Arial" font-size="16.00">(lookahead)</text>
</g>
</g>
</svg>
