<?xml version="1.0" encoding="UTF-8" standalone="no"?>
<!DOCTYPE svg PUBLIC "-//W3C//DTD SVG 1.1//EN"
 "http://www.w3.org/Graphics/SVG/1.1/DTD/svg11.dtd">
<!-- Generated by graphviz version 14.1.4 (20260321.0153)
 -->
<!-- Title: afd_comentario Pages: 1 -->
<svg width="859pt" height="272pt"
 viewBox="0.00 0.00 859.00 272.00" xmlns="http://www.w3.org/2000/svg" xmlns:xlink="http://www.w3.org/1999/xlink">
<g id="graph0" class="graph" transform="scale(1 1) rotate(0) translate(57.6 214.76)">
<title>afd_comentario</title>
<polygon fill="white" stroke="none" points="-57.6,57.6 -57.6,-214.76 801.52,-214.76 801.52,57.6 -57.6,57.6"/>
<!-- inicio -->
<g id="node1" class="node">
<title>inicio</title>
</g>
<!-- q0 -->
<g id="node2" class="node">
<title>q0</title>
<ellipse fill="none" stroke="black" cx="126.18" cy="-70.03" rx="35.18" ry="35.18"/>
<text xml:space="preserve" text-anchor="middle" x="126.18" y="-72.48" font-family="Arial" font-size="14.00">q0</text>
<text xml:space="preserve" text-anchor="middle" x="126.18" y="-56.73" font-family="Arial" font-size="14.00">inicial</text>
</g>
<!-- inicio&#45;&gt;q0 -->
<g id="edge1" class="edge">
<title>inicio&#45;&gt;q0</title>
<path fill="none" stroke="black" d="M53.79,-70.03C61.68,-70.03 70.62,-70.03 79.43,-70.03"/>
<polygon fill="black" stroke="black" points="79.33,-73.53 89.33,-70.03 79.33,-66.53 79.33,-73.53"/>
</g>
<!-- q7 -->
<g id="node3" class="node">
<title>q7</title>
<ellipse fill="none" stroke="black" cx="362.73" cy="-70.03" rx="20.63" ry="20.63"/>
<text xml:space="preserve" text-anchor="middle" x="362.73" y="-64.61" font-family="Arial" font-size="14.00">q7</text>
</g>
<!-- q0&#45;&gt;q7 -->
<g id="edge2" class="edge">
<title>q0&#45;&gt;q7</title>
<path fill="none" stroke="black" d="M161.69,-72.3C167.58,-72.6 173.64,-72.87 179.36,-73.03 243.66,-74.88 259.82,-75.59 324.11,-73.03 326.18,-72.95 328.31,-72.84 330.46,-72.72"/>
<polygon fill="black" stroke="black" points="330.59,-76.22 340.32,-72.02 330.1,-69.23 330.59,-76.22"/>
<text xml:space="preserve" text-anchor="middle" x="251.73" y="-78.25" font-family="Arial" font-size="16.00">{ (abre comentário)</text>
</g>
<!-- q7&#45;&gt;q0 -->
<g id="edge4" class="edge">
<title>q7&#45;&gt;q0</title>
<path fill="none" stroke="black" d="M351.15,-52.64C344.6,-43.63 335.31,-33.5 324.11,-28.53 265.29,-2.47 240.09,-7.33 179.36,-28.53 172.76,-30.84 166.37,-34.36 160.46,-38.41"/>
<polygon fill="black" stroke="black" points="158.69,-35.36 152.81,-44.17 162.91,-40.95 158.69,-35.36"/>
<text xml:space="preserve" text-anchor="middle" x="251.73" y="-50.83" font-family="Arial" font-size="16.00">} (fecha comentário)</text>
<text xml:space="preserve" text-anchor="middle" x="251.73" y="-32.08" font-family="Arial" font-size="16.00">(sem gerar token)</text>
</g>
<!-- q7&#45;&gt;q7 -->
<g id="edge3" class="edge">
<title>q7&#45;&gt;q7</title>
<path fill="none" stroke="black" d="M347.45,-84.26C336.61,-100.66 341.7,-119.66 362.73,-119.66 379.49,-119.66 386.13,-107.59 382.65,-94.39"/>
<polygon fill="black" stroke="black" points="385.98,-93.27 378.64,-85.63 379.62,-96.18 385.98,-93.27"/>
<text xml:space="preserve" text-anchor="middle" x="362.73" y="-141.96" font-family="Arial" font-size="16.00">qualquer char</text>
<text xml:space="preserve" text-anchor="middle" x="362.73" y="-123.21" font-family="Arial" font-size="16.00">(exceto &#39;}&#39; e EOF)</text>
</g>
<!-- qTOKEN_EOF -->
<g id="node4" class="node">
<title>qTOKEN_EOF</title>
<ellipse fill="none" stroke="black" cx="673.89" cy="-70.03" rx="66.03" ry="66.03"/>
<ellipse fill="none" stroke="black" cx="673.89" cy="-70.03" rx="70.03" ry="70.03"/>
<text xml:space="preserve" text-anchor="middle" x="673.89" y="-64.61" font-family="Arial" font-size="14.00">TOKEN_EOF</text>
</g>
<!-- q7&#45;&gt;qTOKEN_EOF -->
<g id="edge5" class="edge">
<title>q7&#45;&gt;qTOKEN_EOF</title>
<path fill="none" stroke="black" d="M383.54,-70.03C424.76,-70.03 521.76,-70.03 592.12,-70.03"/>
<polygon fill="black" stroke="black" points="592.09,-73.53 602.09,-70.03 592.09,-66.53 592.09,-73.53"/>
<text xml:space="preserve" text-anchor="middle" x="493.61" y="-92.33" font-family="Arial" font-size="16.00">EOF</text>
<text xml:space="preserve" text-anchor="middle" x="493.61" y="-73.58" font-family="Arial" font-size="16.00">(comentário não fechado)</text>
</g>
</g>
</svg>
