<?xml version="1.0" encoding="UTF-8" standalone="no"?>
<!DOCTYPE svg PUBLIC "-//W3C//DTD SVG 1.1//EN"
 "http://www.w3.org/Graphics/SVG/1.1/DTD/svg11.dtd">
<!-- Generated by graphviz version 14.1.4 (20260321.0153)
 -->
<!-- Title: afd_erro_lexico Pages: 1 -->
<svg width="583pt" height="283pt"
 viewBox="0.00 0.00 583.00 283.00" xmlns="http://www.w3.org/2000/svg" xmlns:xlink="http://www.w3.org/1999/xlink">
<g id="graph0" class="graph" transform="scale(1 1) rotate(0) translate(57.6 225.61)">
<title>afd_erro_lexico</title>
<polygon fill="white" stroke="none" points="-57.6,57.6 -57.6,-225.61 524.97,-225.61 524.97,57.6 -57.6,57.6"/>
<!-- inicio -->
<g id="node1" class="node">
<title>inicio</title>
</g>
<!-- q0 -->
<g id="node2" class="node">
<title>q0</title>
<ellipse fill="none" stroke="black" cx="126.18" cy="-84.01" rx="35.18" ry="35.18"/>
<text xml:space="preserve" text-anchor="middle" x="126.18" y="-86.46" font-family="Arial" font-size="14.00">q0</text>
<text xml:space="preserve" text-anchor="middle" x="126.18" y="-70.71" font-family="Arial" font-size="14.00">inicial</text>
</g>
<!-- inicio&#45;&gt;q0 -->
<g id="edge1" class="edge">
<title>inicio&#45;&gt;q0</title>
<path fill="none" stroke="black" d="M53.79,-84.01C61.68,-84.01 70.62,-84.01 79.43,-84.01"/>
<polygon fill="black" stroke="black" points="79.33,-87.51 89.33,-84.01 79.33,-80.51 79.33,-87.51"/>
</g>
<!-- qTOKEN_ERROR -->
<g id="node3" class="node">
<title>qTOKEN_ERROR</title>
<ellipse fill="none" stroke="black" cx="383.36" cy="-84.01" rx="80.01" ry="80.01"/>
<ellipse fill="none" stroke="black" cx="383.36" cy="-84.01" rx="84.01" ry="84.01"/>
<text xml:space="preserve" text-anchor="middle" x="383.36" y="-78.58" font-family="Arial" font-size="14.00">TOKEN_ERROR</text>
</g>
<!-- q0&#45;&gt;qTOKEN_ERROR -->
<g id="edge2" class="edge">
<title>q0&#45;&gt;qTOKEN_ERROR</title>
<path fill="none" stroke="black" d="M161.59,-84.01C193.82,-84.01 243.48,-84.01 287.55,-84.01"/>
<polygon fill="black" stroke="black" points="287.4,-87.51 297.4,-84.01 287.4,-80.51 287.4,-87.51"/>
<text xml:space="preserve" text-anchor="middle" x="230.36" y="-106.31" font-family="Arial" font-size="16.00">outro</text>
<text xml:space="preserve" text-anchor="middle" x="230.36" y="-87.56" font-family="Arial" font-size="16.00">(char inválido)</text>
</g>
</g>
</svg>
