<?xml version="1.0" encoding="UTF-8" standalone="no"?>
<!DOCTYPE svg PUBLIC "-//W3C//DTD SVG 1.1//EN"
 "http://www.w3.org/Graphics/SVG/1.1/DTD/svg11.dtd">
<!-- Generated by graphviz version 14.1.4 (20260321.0153)
 -->
<!-- Title: afd_fim_arquivo_eof Pages: 1 -->
<svg width="486pt" height="255pt"
 viewBox="0.00 0.00 486.00 255.00" xmlns="http://www.w3.org/2000/svg" xmlns:xlink="http://www.w3.org/1999/xlink">
<g id="graph0" class="graph" transform="scale(1 1) rotate(0) translate(57.6 197.67)">
<title>afd_fim_arquivo_eof</title>
<polygon fill="white" stroke="none" points="-57.6,57.6 -57.6,-197.67 428.02,-197.67 428.02,57.6 -57.6,57.6"/>
<!-- inicio -->
<g id="node1" class="node">
<title>inicio</title>
</g>
<!-- q0 -->
<g id="node2" class="node">
<title>q0</title>
<ellipse fill="none" stroke="black" cx="126.18" cy="-70.03" rx="35.18" ry="35.18"/>
<text xml:space="preserve" text-anchor="middle" x="126.18" y="-72.48" font-family="Arial" font-size="14.00">q0</text>
<text xml:space="preserve" text-anchor="middle" x="126.18" y="-56.73" font-family="Arial" font-size="14.00">inicial</text>
</g>
<!-- inicio&#45;&gt;q0 -->
<g id="edge1" class="edge">
<title>inicio&#45;&gt;q0</title>
<path fill="none" stroke="black" d="M53.79,-70.03C61.68,-70.03 70.62,-70.03 79.43,-70.03"/>
<polygon fill="black" stroke="black" points="79.33,-73.53 89.33,-70.03 79.33,-66.53 79.33,-73.53"/>
</g>
<!-- qTOKEN_EOF -->
<g id="node3" class="node">
<title>qTOKEN_EOF</title>
<ellipse fill="none" stroke="black" cx="300.39" cy="-70.03" rx="66.03" ry="66.03"/>
<ellipse fill="none" stroke="black" cx="300.39" cy="-70.03" rx="70.03" ry="70.03"/>
<text xml:space="preserve" text-anchor="middle" x="300.39" y="-64.61" font-family="Arial" font-size="14.00">TOKEN_EOF</text>
</g>
<!-- q0&#45;&gt;qTOKEN_EOF -->
<g id="edge2" class="edge">
<title>q0&#45;&gt;qTOKEN_EOF</title>
<path fill="none" stroke="black" d="M161.61,-70.03C178.1,-70.03 198.6,-70.03 218.7,-70.03"/>
<polygon fill="black" stroke="black" points="218.62,-73.53 228.62,-70.03 218.62,-66.53 218.62,-73.53"/>
<text xml:space="preserve" text-anchor="middle" x="195.86" y="-73.58" font-family="Arial" font-size="16.00">EOF</text>
</g>
</g>
</svg>
