<?xml version="1.0" encoding="UTF-8" standalone="no"?>
<!DOCTYPE svg PUBLIC "-//W3C//DTD SVG 1.1//EN"
 "http://www.w3.org/Graphics/SVG/1.1/DTD/svg11.dtd">
<!-- Generated by graphviz version 14.1.4 (20260321.0153)
 -->
<!-- Title: AFD Pages: 1 -->
<svg width="1935pt" height="2765pt"
 viewBox="0.00 0.00 1935.00 2765.00" xmlns="http://www.w3.org/2000/svg" xmlns:xlink="http://www.w3.org/1999/xlink">
<g id="graph0" class="graph" transform="scale(1 1) rotate(0) translate(57.6 2707.03)">
<title>AFD</title>
<polygon fill="white" stroke="none" points="-57.6,57.6 -57.6,-2707.03 1877.31,-2707.03 1877.31,57.6 -57.6,57.6"/>
<!-- inicio -->
<g id="node1" class="node">
<title>inicio</title>
</g>
<!-- q0 -->
<g id="node2" class="node">
<title>q0</title>
<ellipse fill="none" stroke="black" cx="35.18" cy="-1222.06" rx="35.18" ry="35.18"/>
<text xml:space="preserve" text-anchor="middle" x="35.18" y="-1224.51" font-family="Arial" font-size="14.00">q0</text>
<text xml:space="preserve" text-anchor="middle" x="35.18" y="-1208.76" font-family="Arial" font-size="14.00">inicial</text>
</g>
<!-- inicio&#45;&gt;q0 -->
<g id="edge1" class="edge">
<title>inicio&#45;&gt;q0</title>
<path fill="none" stroke="black" d="M35.18,-1315.08C35.18,-1299.66 35.18,-1284.25 35.18,-1268.83"/>
<polygon fill="black" stroke="black" points="38.68,-1269.12 35.18,-1259.12 31.68,-1269.12 38.68,-1269.12"/>
</g>
<!-- q1 -->
<g id="node3" class="node">
<title>q1</title>
<ellipse fill="none" stroke="black" cx="565.18" cy="-2581.06" rx="20.63" ry="20.63"/>
<text xml:space="preserve" text-anchor="middle" x="565.18" y="-2575.63" font-family="Arial" font-size="14.00">q1</text>
</g>
<!-- q0&#45;&gt;q1 -->
<g id="edge4" class="edge">
<title>q0&#45;&gt;q1</title>
<path fill="none" stroke="black" d="M52.76,-1252.64C59.61,-1266.91 66.78,-1284.4 70.36,-1301.06 77.38,-1333.73 66.51,-2478.77 88.36,-2504.06 202.69,-2636.35 447.37,-2603.98 533.45,-2587.62"/>
<polygon fill="black" stroke="black" points="534.13,-2591.05 543.26,-2585.68 532.77,-2584.18 534.13,-2591.05"/>
<text xml:space="preserve" text-anchor="middle" x="270.23" y="-2606.12" font-family="Arial" font-size="16.00">[a&#45;z][A&#45;Z]</text>
</g>
<!-- q2 -->
<g id="node4" class="node">
<title>q2</title>
<ellipse fill="none" stroke="black" cx="565.18" cy="-2185.06" rx="20.63" ry="20.63"/>
<text xml:space="preserve" text-anchor="middle" x="565.18" y="-2179.63" font-family="Arial" font-size="14.00">q2</text>
</g>
<!-- q0&#45;&gt;q2 -->
<g id="edge7" class="edge">
<title>q0&#45;&gt;q2</title>
<path fill="none" stroke="black" d="M52.86,-1253.03C59.64,-1267.24 66.73,-1284.56 70.36,-1301.06 87.42,-1378.56 55.24,-1942.94 88.36,-2015.06 165.69,-2183.48 439.44,-2189.69 532.75,-2186.73"/>
<polygon fill="black" stroke="black" points="532.83,-2190.23 542.68,-2186.34 532.56,-2183.23 532.83,-2190.23"/>
<text xml:space="preserve" text-anchor="middle" x="270.23" y="-2176.39" font-family="Arial" font-size="16.00">[0&#45;9]</text>
</g>
<!-- q4 -->
<g id="node5" class="node">
<title>q4</title>
<ellipse fill="none" stroke="black" cx="565.18" cy="-1849.06" rx="20.63" ry="20.63"/>
<text xml:space="preserve" text-anchor="middle" x="565.18" y="-1843.63" font-family="Arial" font-size="14.00">q4</text>
</g>
<!-- q0&#45;&gt;q4 -->
<g id="edge15" class="edge">
<title>q0&#45;&gt;q4</title>
<path fill="none" stroke="black" d="M51.36,-1253.44C57.86,-1267.73 65.13,-1285 70.36,-1301.06 81.64,-1335.71 73.51,-1347.77 88.36,-1381.06 188.98,-1606.56 451.82,-1780.94 537.06,-1833.04"/>
<polygon fill="black" stroke="black" points="535.11,-1835.95 545.48,-1838.13 538.74,-1829.96 535.11,-1835.95"/>
<text xml:space="preserve" text-anchor="middle" x="270.23" y="-1691.24" font-family="Arial" font-size="16.00">: (dois pontos)</text>
</g>
<!-- q5 -->
<g id="node6" class="node">
<title>q5</title>
<ellipse fill="none" stroke="black" cx="565.18" cy="-1613.06" rx="20.63" ry="20.63"/>
<text xml:space="preserve" text-anchor="middle" x="565.18" y="-1607.63" font-family="Arial" font-size="14.00">q5</text>
</g>
<!-- q0&#45;&gt;q5 -->
<g id="edge18" class="edge">
<title>q0&#45;&gt;q5</title>
<path fill="none" stroke="black" d="M48.85,-1254.72C57.77,-1274.85 71.18,-1300.3 88.36,-1319.06 225.2,-1468.52 455.13,-1569.67 535.45,-1601.96"/>
<polygon fill="black" stroke="black" points="533.77,-1605.06 544.36,-1605.49 536.36,-1598.55 533.77,-1605.06"/>
<text xml:space="preserve" text-anchor="middle" x="270.23" y="-1513.11" font-family="Arial" font-size="16.00">&lt; (menor que)</text>
</g>
<!-- q6 -->
<g id="node7" class="node">
<title>q6</title>
<ellipse fill="none" stroke="black" cx="565.18" cy="-1395.06" rx="20.63" ry="20.63"/>
<text xml:space="preserve" text-anchor="middle" x="565.18" y="-1389.63" font-family="Arial" font-size="14.00">q6</text>
</g>
<!-- q0&#45;&gt;q6 -->
<g id="edge22" class="edge">
<title>q0&#45;&gt;q6</title>
<path fill="none" stroke="black" d="M57.35,-1249.67C66.01,-1259.29 76.73,-1269.34 88.36,-1276.06 239.5,-1363.36 453.66,-1387.15 533.02,-1393.16"/>
<polygon fill="black" stroke="black" points="532.42,-1396.63 542.64,-1393.85 532.92,-1389.65 532.42,-1396.63"/>
<text xml:space="preserve" text-anchor="middle" x="270.23" y="-1368.6" font-family="Arial" font-size="16.00">&gt; (maior que)</text>
</g>
<!-- q7 -->
<g id="node8" class="node">
<title>q7</title>
<ellipse fill="none" stroke="black" cx="565.18" cy="-1222.06" rx="20.63" ry="20.63"/>
<text xml:space="preserve" text-anchor="middle" x="565.18" y="-1216.63" font-family="Arial" font-size="14.00">q7</text>
</g>
<!-- q0&#45;&gt;q7 -->
<g id="edge25" class="edge">
<title>q0&#45;&gt;q7</title>
<path fill="none" stroke="black" d="M67.55,-1236.43C74.32,-1239.21 81.51,-1241.91 88.36,-1244.06 135.82,-1258.9 148.39,-1261.92 197.86,-1267.06 330.54,-1280.84 367.3,-1274.77 497.11,-1244.06 509.54,-1241.11 522.97,-1236.92 534.52,-1232.98"/>
<polygon fill="black" stroke="black" points="535.64,-1236.3 543.92,-1229.68 533.32,-1229.69 535.64,-1236.3"/>
<text xml:space="preserve" text-anchor="middle" x="270.23" y="-1277.6" font-family="Arial" font-size="16.00">{ (abre comentário)</text>
</g>
<!-- qTOKEN_EOF -->
<g id="node9" class="node">
<title>qTOKEN_EOF</title>
<ellipse fill="none" stroke="black" cx="1486.11" cy="-1180.06" rx="66.03" ry="66.03"/>
<ellipse fill="none" stroke="black" cx="1486.11" cy="-1180.06" rx="70.03" ry="70.03"/>
<text xml:space="preserve" text-anchor="middle" x="1486.11" y="-1174.63" font-family="Arial" font-size="14.00">TOKEN_EOF</text>
</g>
<!-- q0&#45;&gt;qTOKEN_EOF -->
<g id="edge3" class="edge">
<title>q0&#45;&gt;qTOKEN_EOF</title>
<path fill="none" stroke="black" d="M66.88,-1205.85C110.57,-1184.35 193.76,-1149.06 269.23,-1149.06 269.23,-1149.06 269.23,-1149.06 682.25,-1149.06 946.75,-1149.06 1259.89,-1166.06 1404.51,-1174.88"/>
<polygon fill="black" stroke="black" points="1404.17,-1178.37 1414.37,-1175.49 1404.6,-1171.38 1404.17,-1178.37"/>
<text xml:space="preserve" text-anchor="middle" x="808.81" y="-1154.9" font-family="Arial" font-size="16.00">EOF</text>
</g>
<!-- qTOKEN_ERROR -->
<g id="node10" class="node">
<title>qTOKEN_ERROR</title>
<ellipse fill="none" stroke="black" cx="1486.11" cy="-2482.06" rx="80.01" ry="80.01"/>
<ellipse fill="none" stroke="black" cx="1486.11" cy="-2482.06" rx="84.01" ry="84.01"/>
<text xml:space="preserve" text-anchor="middle" x="1486.11" y="-2476.63" font-family="Arial" font-size="14.00">TOKEN_ERROR</text>
</g>
<!-- q0&#45;&gt;qTOKEN_ERROR -->
<g id="edge2" class="edge">
<title>q0&#45;&gt;qTOKEN_ERROR</title>
<path fill="none" stroke="black" d="M52.88,-1253.03C59.66,-1267.24 66.74,-1284.56 70.36,-1301.06 107.65,-1471.29 49.44,-1915.19 88.36,-2085.06 131.66,-2274.05 75.34,-2482.06 269.23,-2482.06 269.23,-2482.06 269.23,-2482.06 1238.86,-2482.06 1288.81,-2482.06 1344.47,-2482.06 1390.21,-2482.06"/>
<polygon fill="black" stroke="black" points="1390.11,-2485.56 1400.11,-2482.06 1390.11,-2478.56 1390.11,-2485.56"/>
<text xml:space="preserve" text-anchor="middle" x="808.81" y="-2504.36" font-family="Arial" font-size="16.00">outro</text>
<text xml:space="preserve" text-anchor="middle" x="808.81" y="-2485.61" font-family="Arial" font-size="16.00">(char inválido)</text>
</g>
<!-- q11 -->
<g id="node15" class="node">
<title>q11</title>
<ellipse fill="none" stroke="black" cx="270.23" cy="-2074.06" rx="25.12" ry="25.12"/>
<text xml:space="preserve" text-anchor="middle" x="270.23" y="-2068.63" font-family="Arial" font-size="14.00">q11</text>
</g>
<!-- q0&#45;&gt;q11 -->
<g id="edge37" class="edge">
<title>q0&#45;&gt;q11</title>
<path fill="none" stroke="black" d="M52.8,-1253.04C59.57,-1267.25 66.67,-1284.58 70.36,-1301.06 83.87,-1361.37 66.44,-1799.26 88.36,-1857.06 120.19,-1941.01 198.99,-2015.86 241.31,-2051.7"/>
<polygon fill="black" stroke="black" points="238.91,-2054.26 248.84,-2057.97 243.4,-2048.88 238.91,-2054.26"/>
<text xml:space="preserve" text-anchor="middle" x="134.11" y="-1993.05" font-family="Arial" font-size="16.00">+ (adição)</text>
</g>
<!-- q12 -->
<g id="node16" class="node">
<title>q12</title>
<ellipse fill="none" stroke="black" cx="270.23" cy="-1949.06" rx="25.62" ry="25.62"/>
<text xml:space="preserve" text-anchor="middle" x="270.23" y="-1943.63" font-family="Arial" font-size="14.00">q12</text>
</g>
<!-- q0&#45;&gt;q12 -->
<g id="edge40" class="edge">
<title>q0&#45;&gt;q12</title>
<path fill="none" stroke="black" d="M52.67,-1253.07C59.41,-1267.29 66.52,-1284.61 70.36,-1301.06 88.46,-1378.63 64.52,-1583.05 88.36,-1659.06 121.81,-1765.7 203.96,-1872.41 245.03,-1921.35"/>
<polygon fill="black" stroke="black" points="242.32,-1923.57 251.46,-1928.93 247.65,-1919.04 242.32,-1923.57"/>
<text xml:space="preserve" text-anchor="middle" x="134.11" y="-1834.54" font-family="Arial" font-size="16.00">&#45; (subtração)</text>
</g>
<!-- qOP_EQ -->
<g id="node20" class="node">
<title>qOP_EQ</title>
<ellipse fill="none" stroke="black" cx="808.81" cy="-1044.06" rx="42.58" ry="42.58"/>
<ellipse fill="none" stroke="black" cx="808.81" cy="-1044.06" rx="46.58" ry="46.58"/>
<text xml:space="preserve" text-anchor="middle" x="808.81" y="-1038.63" font-family="Arial" font-size="14.00">OP_EQ</text>
</g>
<!-- q0&#45;&gt;qOP_EQ -->
<g id="edge29" class="edge">
<title>q0&#45;&gt;qOP_EQ</title>
<path fill="none" stroke="black" d="M45.82,-1188.41C53.72,-1167.25 67.12,-1141.33 88.36,-1127.06 298.05,-986.14 621.8,-1015.3 751.37,-1034.37"/>
<polygon fill="black" stroke="black" points="750.66,-1037.8 761.07,-1035.83 751.7,-1030.88 750.66,-1037.8"/>
<text xml:space="preserve" text-anchor="middle" x="428.86" y="-1033.5" font-family="Arial" font-size="16.00">= (igual)</text>
</g>
<!-- qOP_MUL -->
<g id="node28" class="node">
<title>qOP_MUL</title>
<ellipse fill="none" stroke="black" cx="808.81" cy="-916.06" rx="48.57" ry="48.57"/>
<ellipse fill="none" stroke="black" cx="808.81" cy="-916.06" rx="52.57" ry="52.57"/>
<text xml:space="preserve" text-anchor="middle" x="808.81" y="-910.63" font-family="Arial" font-size="14.00">OP_MUL</text>
</g>
<!-- q0&#45;&gt;qOP_MUL -->
<g id="edge30" class="edge">
<title>q0&#45;&gt;qOP_MUL</title>
<path fill="none" stroke="black" d="M40.5,-1186.84C46.22,-1153.97 59.25,-1105.4 88.36,-1074.06 124.51,-1035.11 147.19,-1042.06 197.86,-1026.06 392.1,-964.72 632.59,-933.95 744.72,-922.08"/>
<polygon fill="black" stroke="black" points="745.05,-925.56 754.63,-921.04 744.32,-918.6 745.05,-925.56"/>
<text xml:space="preserve" text-anchor="middle" x="428.86" y="-986.32" font-family="Arial" font-size="16.00">* (multiplicação)</text>
</g>
<!-- qOP_DIV -->
<g id="node29" class="node">
<title>qOP_DIV</title>
<ellipse fill="none" stroke="black" cx="808.81" cy="-786.06" rx="44.08" ry="44.08"/>
<ellipse fill="none" stroke="black" cx="808.81" cy="-786.06" rx="48.08" ry="48.08"/>
<text xml:space="preserve" text-anchor="middle" x="808.81" y="-780.63" font-family="Arial" font-size="14.00">OP_DIV</text>
</g>
<!-- q0&#45;&gt;qOP_DIV -->
<g id="edge31" class="edge">
<title>q0&#45;&gt;qOP_DIV</title>
<path fill="none" stroke="black" d="M36.18,-1186.41C38.07,-1142.88 47.65,-1069.44 88.36,-1024.06 265.9,-826.11 611.53,-792.37 749.19,-786.94"/>
<polygon fill="black" stroke="black" points="749.3,-790.44 759.17,-786.59 749.05,-783.44 749.3,-790.44"/>
<text xml:space="preserve" text-anchor="middle" x="428.86" y="-857.78" font-family="Arial" font-size="16.00">/ (divisão)</text>
</g>
<!-- qSMB_SEM -->
<g id="node31" class="node">
<title>qSMB_SEM</title>
<ellipse fill="none" stroke="black" cx="808.81" cy="-649.06" rx="55.55" ry="55.55"/>
<ellipse fill="none" stroke="black" cx="808.81" cy="-649.06" rx="59.55" ry="59.55"/>
<text xml:space="preserve" text-anchor="middle" x="808.81" y="-643.63" font-family="Arial" font-size="14.00">SMB_SEM</text>
</g>
<!-- q0&#45;&gt;qSMB_SEM -->
<g id="edge32" class="edge">
<title>q0&#45;&gt;qSMB_SEM</title>
<path fill="none" stroke="black" d="M39.5,-1186.64C46.23,-1120.43 63.02,-980.88 88.36,-940.06 229.71,-712.31 585.85,-662.8 737.58,-652.04"/>
<polygon fill="black" stroke="black" points="737.77,-655.54 747.51,-651.38 737.3,-648.55 737.77,-655.54"/>
<text xml:space="preserve" text-anchor="middle" x="428.86" y="-735.94" font-family="Arial" font-size="16.00">; (ponto e vírgula)</text>
</g>
<!-- qSMB_COM -->
<g id="node32" class="node">
<title>qSMB_COM</title>
<ellipse fill="none" stroke="black" cx="808.81" cy="-499.06" rx="57.55" ry="57.55"/>
<ellipse fill="none" stroke="black" cx="808.81" cy="-499.06" rx="61.55" ry="61.55"/>
<text xml:space="preserve" text-anchor="middle" x="808.81" y="-493.63" font-family="Arial" font-size="14.00">SMB_COM</text>
</g>
<!-- q0&#45;&gt;qSMB_COM -->
<g id="edge33" class="edge">
<title>q0&#45;&gt;qSMB_COM</title>
<path fill="none" stroke="black" d="M37.84,-1186.5C42.24,-1102.49 56.18,-894.18 88.36,-833.06 216.01,-590.54 580.01,-523.23 735.72,-505.29"/>
<polygon fill="black" stroke="black" points="735.95,-508.78 745.5,-504.2 735.18,-501.82 735.95,-508.78"/>
<text xml:space="preserve" text-anchor="middle" x="428.86" y="-602.48" font-family="Arial" font-size="16.00">, (vírgula)</text>
</g>
<!-- qSMB_OPA -->
<g id="node33" class="node">
<title>qSMB_OPA</title>
<ellipse fill="none" stroke="black" cx="808.81" cy="-350.06" rx="54.56" ry="54.56"/>
<ellipse fill="none" stroke="black" cx="808.81" cy="-350.06" rx="58.56" ry="58.56"/>
<text xml:space="preserve" text-anchor="middle" x="808.81" y="-344.63" font-family="Arial" font-size="14.00">SMB_OPA</text>
</g>
<!-- q0&#45;&gt;qSMB_OPA -->
<g id="edge34" class="edge">
<title>q0&#45;&gt;qSMB_OPA</title>
<path fill="none" stroke="black" d="M36.69,-1186.73C38.65,-1085.49 47.75,-796.23 88.36,-712.06 210.37,-459.11 583.78,-380.24 739.01,-358"/>
<polygon fill="black" stroke="black" points="739.32,-361.49 748.75,-356.64 738.36,-354.56 739.32,-361.49"/>
<text xml:space="preserve" text-anchor="middle" x="428.86" y="-468.82" font-family="Arial" font-size="16.00">( (abre parêntese)</text>
</g>
<!-- qSMB_CPA -->
<g id="node34" class="node">
<title>qSMB_CPA</title>
<ellipse fill="none" stroke="black" cx="808.81" cy="-205.06" rx="53.56" ry="53.56"/>
<ellipse fill="none" stroke="black" cx="808.81" cy="-205.06" rx="57.56" ry="57.56"/>
<text xml:space="preserve" text-anchor="middle" x="808.81" y="-199.63" font-family="Arial" font-size="14.00">SMB_CPA</text>
</g>
<!-- q0&#45;&gt;qSMB_CPA -->
<g id="edge35" class="edge">
<title>q0&#45;&gt;qSMB_CPA</title>
<path fill="none" stroke="black" d="M35.93,-1186.4C35.61,-1068.16 38.58,-690.27 88.36,-581.06 206.19,-322.55 584.54,-238.02 740.07,-213.76"/>
<polygon fill="black" stroke="black" points="740.46,-217.24 749.82,-212.28 739.41,-210.32 740.46,-217.24"/>
<text xml:space="preserve" text-anchor="middle" x="428.86" y="-331.19" font-family="Arial" font-size="16.00">) (fecha parêntese)</text>
</g>
<!-- qSMB_DOT -->
<g id="node36" class="node">
<title>qSMB_DOT</title>
<ellipse fill="none" stroke="black" cx="808.81" cy="-59.06" rx="55.06" ry="55.06"/>
<ellipse fill="none" stroke="black" cx="808.81" cy="-59.06" rx="59.06" ry="59.06"/>
<text xml:space="preserve" text-anchor="middle" x="808.81" y="-53.63" font-family="Arial" font-size="14.00">SMB_DOT</text>
</g>
<!-- q0&#45;&gt;qSMB_DOT -->
<g id="edge36" class="edge">
<title>q0&#45;&gt;qSMB_DOT</title>
<path fill="none" stroke="black" d="M37.14,-1186.87C41.24,-1044.47 58.35,-515.34 88.36,-447.06 203.29,-185.54 582.29,-95.4 739.03,-68.81"/>
<polygon fill="black" stroke="black" points="739.14,-72.34 748.43,-67.25 737.99,-65.44 739.14,-72.34"/>
<text xml:space="preserve" text-anchor="middle" x="428.86" y="-188.08" font-family="Arial" font-size="16.00">. (ponto)</text>
</g>
<!-- q1&#45;&gt;q1 -->
<g id="edge5" class="edge">
<title>q1&#45;&gt;q1</title>
<path fill="none" stroke="black" d="M549.38,-2595.03C537.81,-2611.49 543.08,-2630.68 565.18,-2630.68 582.8,-2630.68 589.72,-2618.49 585.95,-2605.21"/>
<polygon fill="black" stroke="black" points="589.17,-2603.84 581.65,-2596.39 582.88,-2606.91 589.17,-2603.84"/>
<text xml:space="preserve" text-anchor="middle" x="565.18" y="-2634.23" font-family="Arial" font-size="16.00">[a&#45;z][A&#45;Z][0&#45;9]</text>
</g>
<!-- qID_KW -->
<g id="node17" class="node">
<title>qID_KW</title>
<ellipse fill="none" stroke="black" cx="808.81" cy="-2590.06" rx="37.09" ry="37.09"/>
<ellipse fill="none" stroke="black" cx="808.81" cy="-2590.06" rx="41.09" ry="41.09"/>
<text xml:space="preserve" text-anchor="middle" x="808.81" y="-2584.63" font-family="Arial" font-size="14.00">ID/KW</text>
</g>
<!-- q1&#45;&gt;qID_KW -->
<g id="edge6" class="edge">
<title>q1&#45;&gt;qID_KW</title>
<path fill="none" stroke="black" d="M585.95,-2581.79C622.81,-2583.17 703.08,-2586.16 756.28,-2588.14"/>
<polygon fill="black" stroke="black" points="755.89,-2591.62 766.01,-2588.5 756.15,-2584.63 755.89,-2591.62"/>
<text xml:space="preserve" text-anchor="middle" x="681.25" y="-2609.19" font-family="Arial" font-size="16.00">outro</text>
<text xml:space="preserve" text-anchor="middle" x="681.25" y="-2590.44" font-family="Arial" font-size="16.00">(lookahead)</text>
</g>
<!-- q2&#45;&gt;q2 -->
<g id="edge8" class="edge">
<title>q2&#45;&gt;q2</title>
<path fill="none" stroke="black" d="M549.38,-2199.03C537.81,-2215.49 543.08,-2234.68 565.18,-2234.68 582.8,-2234.68 589.72,-2222.49 585.95,-2209.21"/>
<polygon fill="black" stroke="black" points="589.17,-2207.84 581.65,-2200.39 582.88,-2210.91 589.17,-2207.84"/>
<text xml:space="preserve" text-anchor="middle" x="565.18" y="-2238.23" font-family="Arial" font-size="16.00">[0&#45;9]</text>
</g>
<!-- q3 -->
<g id="node11" class="node">
<title>q3</title>
<ellipse fill="none" stroke="black" cx="808.81" cy="-2290.06" rx="20.63" ry="20.63"/>
<text xml:space="preserve" text-anchor="middle" x="808.81" y="-2284.63" font-family="Arial" font-size="14.00">q3</text>
</g>
<!-- q2&#45;&gt;q3 -->
<g id="edge11" class="edge">
<title>q2&#45;&gt;q3</title>
<path fill="none" stroke="black" d="M582,-2197.4C595.15,-2207.23 614.67,-2220.82 633.25,-2230.06 681.47,-2254.01 741.58,-2272.36 777.21,-2282.15"/>
<polygon fill="black" stroke="black" points="776.27,-2285.52 786.83,-2284.74 778.09,-2278.76 776.27,-2285.52"/>
<text xml:space="preserve" text-anchor="middle" x="681.25" y="-2270.49" font-family="Arial" font-size="16.00">. (ponto)</text>
</g>
<!-- q8 -->
<g id="node12" class="node">
<title>q8</title>
<ellipse fill="none" stroke="black" cx="1022.61" cy="-2355.06" rx="20.63" ry="20.63"/>
<text xml:space="preserve" text-anchor="middle" x="1022.61" y="-2349.63" font-family="Arial" font-size="14.00">q8</text>
</g>
<!-- q2&#45;&gt;q8 -->
<g id="edge9" class="edge">
<title>q2&#45;&gt;q8</title>
<path fill="none" stroke="black" d="M574.39,-2203.69C585.26,-2226.79 606.26,-2266.37 633.25,-2293.06 675.37,-2334.69 690.21,-2346.14 747.25,-2362.06 832.87,-2385.95 939.39,-2371.3 990.89,-2361.6"/>
<polygon fill="black" stroke="black" points="991.55,-2365.03 1000.69,-2359.67 990.2,-2358.17 991.55,-2365.03"/>
<text xml:space="preserve" text-anchor="middle" x="808.81" y="-2378.56" font-family="Arial" font-size="16.00">E e</text>
</g>
<!-- qNUM_INT -->
<g id="node18" class="node">
<title>qNUM_INT</title>
<ellipse fill="none" stroke="black" cx="808.81" cy="-2185.06" rx="51.06" ry="51.06"/>
<ellipse fill="none" stroke="black" cx="808.81" cy="-2185.06" rx="55.06" ry="55.06"/>
<text xml:space="preserve" text-anchor="middle" x="808.81" y="-2179.63" font-family="Arial" font-size="14.00">NUM_INT</text>
</g>
<!-- q2&#45;&gt;qNUM_INT -->
<g id="edge10" class="edge">
<title>q2&#45;&gt;qNUM_INT</title>
<path fill="none" stroke="black" d="M585.95,-2185.06C619.66,-2185.06 689.68,-2185.06 742.09,-2185.06"/>
<polygon fill="black" stroke="black" points="741.81,-2188.56 751.81,-2185.06 741.81,-2181.56 741.81,-2188.56"/>
<text xml:space="preserve" text-anchor="middle" x="681.25" y="-2207.36" font-family="Arial" font-size="16.00">outro</text>
<text xml:space="preserve" text-anchor="middle" x="681.25" y="-2188.61" font-family="Arial" font-size="16.00">(lookahead)</text>
</g>
<!-- qOP_ASS -->
<g id="node30" class="node">
<title>qOP_ASS</title>
<ellipse fill="none" stroke="black" cx="808.81" cy="-2050.06" rx="47.07" ry="47.07"/>
<ellipse fill="none" stroke="black" cx="808.81" cy="-2050.06" rx="51.07" ry="51.07"/>
<text xml:space="preserve" text-anchor="middle" x="808.81" y="-2044.63" font-family="Arial" font-size="14.00">OP_ASS</text>
</g>
<!-- q4&#45;&gt;qOP_ASS -->
<g id="edge16" class="edge">
<title>q4&#45;&gt;qOP_ASS</title>
<path fill="none" stroke="black" d="M584.17,-1858.27C594.51,-1864.36 607.04,-1873.21 615.25,-1884.06 629.52,-1902.88 618.68,-1915.47 633.25,-1934.06 664.58,-1974.01 713.61,-2004.87 751.74,-2024.68"/>
<polygon fill="black" stroke="black" points="749.83,-2027.64 760.33,-2029.04 753,-2021.4 749.83,-2027.64"/>
<text xml:space="preserve" text-anchor="middle" x="681.25" y="-2015.56" font-family="Arial" font-size="16.00">= (igual)</text>
</g>
<!-- qSMB_COL -->
<g id="node35" class="node">
<title>qSMB_COL</title>
<ellipse fill="none" stroke="black" cx="808.81" cy="-1911.06" rx="54.56" ry="54.56"/>
<ellipse fill="none" stroke="black" cx="808.81" cy="-1911.06" rx="58.56" ry="58.56"/>
<text xml:space="preserve" text-anchor="middle" x="808.81" y="-1905.63" font-family="Arial" font-size="14.00">SMB_COL</text>
</g>
<!-- q4&#45;&gt;qSMB_COL -->
<g id="edge17" class="edge">
<title>q4&#45;&gt;qSMB_COL</title>
<path fill="none" stroke="black" d="M585.55,-1854.02C618.79,-1862.56 688.21,-1880.37 740.68,-1893.83"/>
<polygon fill="black" stroke="black" points="739.57,-1897.16 750.13,-1896.26 741.31,-1890.38 739.57,-1897.16"/>
<text xml:space="preserve" text-anchor="middle" x="681.25" y="-1911.53" font-family="Arial" font-size="16.00">outro</text>
<text xml:space="preserve" text-anchor="middle" x="681.25" y="-1892.78" font-family="Arial" font-size="16.00">(lookahead)</text>
</g>
<!-- qOP_NE -->
<g id="node21" class="node">
<title>qOP_NE</title>
<ellipse fill="none" stroke="black" cx="808.81" cy="-1778.06" rx="41.58" ry="41.58"/>
<ellipse fill="none" stroke="black" cx="808.81" cy="-1778.06" rx="45.58" ry="45.58"/>
<text xml:space="preserve" text-anchor="middle" x="808.81" y="-1772.63" font-family="Arial" font-size="14.00">OP_NE</text>
</g>
<!-- q5&#45;&gt;qOP_NE -->
<g id="edge19" class="edge">
<title>q5&#45;&gt;qOP_NE</title>
<path fill="none" stroke="black" d="M578.08,-1629.57C590.48,-1645.93 611.15,-1670.95 633.25,-1688.06 670.8,-1717.11 719.15,-1741.19 755.44,-1757.1"/>
<polygon fill="black" stroke="black" points="753.85,-1760.23 764.42,-1760.98 756.62,-1753.8 753.85,-1760.23"/>
<text xml:space="preserve" text-anchor="middle" x="681.25" y="-1748.54" font-family="Arial" font-size="16.00">&gt; (maior que)</text>
</g>
<!-- qOP_LT -->
<g id="node22" class="node">
<title>qOP_LT</title>
<ellipse fill="none" stroke="black" cx="808.81" cy="-1660.06" rx="39.09" ry="39.09"/>
<ellipse fill="none" stroke="black" cx="808.81" cy="-1660.06" rx="43.09" ry="43.09"/>
<text xml:space="preserve" text-anchor="middle" x="808.81" y="-1654.63" font-family="Arial" font-size="14.00">OP_LT</text>
</g>
<!-- q5&#45;&gt;qOP_LT -->
<g id="edge21" class="edge">
<title>q5&#45;&gt;qOP_LT</title>
<path fill="none" stroke="black" d="M585.55,-1616.82C621.93,-1623.9 701.63,-1639.4 755.03,-1649.79"/>
<polygon fill="black" stroke="black" points="754.03,-1653.16 764.51,-1651.63 755.36,-1646.29 754.03,-1653.16"/>
<text xml:space="preserve" text-anchor="middle" x="681.25" y="-1665.81" font-family="Arial" font-size="16.00">outro</text>
<text xml:space="preserve" text-anchor="middle" x="681.25" y="-1647.06" font-family="Arial" font-size="16.00">(lookahead)</text>
</g>
<!-- qOP_LE -->
<g id="node23" class="node">
<title>qOP_LE</title>
<ellipse fill="none" stroke="black" cx="808.81" cy="-1544.06" rx="40.09" ry="40.09"/>
<ellipse fill="none" stroke="black" cx="808.81" cy="-1544.06" rx="44.09" ry="44.09"/>
<text xml:space="preserve" text-anchor="middle" x="808.81" y="-1538.63" font-family="Arial" font-size="14.00">OP_LE</text>
</g>
<!-- q5&#45;&gt;qOP_LE -->
<g id="edge20" class="edge">
<title>q5&#45;&gt;qOP_LE</title>
<path fill="none" stroke="black" d="M585.55,-1607.53C621.93,-1597.14 701.63,-1574.38 755.03,-1559.13"/>
<polygon fill="black" stroke="black" points="755.89,-1562.52 764.54,-1556.41 753.97,-1555.79 755.89,-1562.52"/>
<text xml:space="preserve" text-anchor="middle" x="681.25" y="-1596.22" font-family="Arial" font-size="16.00">= (igual)</text>
</g>
<!-- qOP_GT -->
<g id="node24" class="node">
<title>qOP_GT</title>
<ellipse fill="none" stroke="black" cx="808.81" cy="-1425.06" rx="42.08" ry="42.08"/>
<ellipse fill="none" stroke="black" cx="808.81" cy="-1425.06" rx="46.08" ry="46.08"/>
<text xml:space="preserve" text-anchor="middle" x="808.81" y="-1419.63" font-family="Arial" font-size="14.00">OP_GT</text>
</g>
<!-- q6&#45;&gt;qOP_GT -->
<g id="edge24" class="edge">
<title>q6&#45;&gt;qOP_GT</title>
<path fill="none" stroke="black" d="M585.95,-1397.51C621.76,-1401.96 698.55,-1411.49 751.67,-1418.09"/>
<polygon fill="black" stroke="black" points="751.1,-1421.54 761.46,-1419.3 751.96,-1414.6 751.1,-1421.54"/>
<text xml:space="preserve" text-anchor="middle" x="681.25" y="-1436.8" font-family="Arial" font-size="16.00">outro</text>
<text xml:space="preserve" text-anchor="middle" x="681.25" y="-1418.05" font-family="Arial" font-size="16.00">(lookahead)</text>
</g>
<!-- qOP_GE -->
<g id="node25" class="node">
<title>qOP_GE</title>
<ellipse fill="none" stroke="black" cx="808.81" cy="-1303.06" rx="42.58" ry="42.58"/>
<ellipse fill="none" stroke="black" cx="808.81" cy="-1303.06" rx="46.58" ry="46.58"/>
<text xml:space="preserve" text-anchor="middle" x="808.81" y="-1297.63" font-family="Arial" font-size="14.00">OP_GE</text>
</g>
<!-- q6&#45;&gt;qOP_GE -->
<g id="edge23" class="edge">
<title>q6&#45;&gt;qOP_GE</title>
<path fill="none" stroke="black" d="M584.74,-1387.99C620.51,-1374.37 700.21,-1344.02 754,-1323.54"/>
<polygon fill="black" stroke="black" points="755.21,-1326.83 763.31,-1320 752.72,-1320.29 755.21,-1326.83"/>
<text xml:space="preserve" text-anchor="middle" x="681.25" y="-1371.42" font-family="Arial" font-size="16.00">= (igual)</text>
</g>
<!-- q7&#45;&gt;q0 -->
<g id="edge27" class="edge">
<title>q7&#45;&gt;q0</title>
<path fill="none" stroke="black" d="M544.19,-1222.06C467.69,-1222.06 192.33,-1222.06 82.19,-1222.06"/>
<polygon fill="black" stroke="black" points="82.34,-1218.56 72.34,-1222.06 82.34,-1225.56 82.34,-1218.56"/>
<text xml:space="preserve" text-anchor="middle" x="270.23" y="-1244.36" font-family="Arial" font-size="16.00">} (fecha comentário)</text>
<text xml:space="preserve" text-anchor="middle" x="270.23" y="-1225.61" font-family="Arial" font-size="16.00">(sem gerar token)</text>
</g>
<!-- q7&#45;&gt;q7 -->
<g id="edge26" class="edge">
<title>q7&#45;&gt;q7</title>
<path fill="none" stroke="black" d="M549.38,-1236.03C537.81,-1252.49 543.08,-1271.68 565.18,-1271.68 582.8,-1271.68 589.72,-1259.49 585.95,-1246.21"/>
<polygon fill="black" stroke="black" points="589.17,-1244.84 581.65,-1237.39 582.88,-1247.91 589.17,-1244.84"/>
<text xml:space="preserve" text-anchor="middle" x="565.18" y="-1293.98" font-family="Arial" font-size="16.00">qualquer char</text>
<text xml:space="preserve" text-anchor="middle" x="565.18" y="-1275.23" font-family="Arial" font-size="16.00">(exceto &#39;}&#39; e EOF)</text>
</g>
<!-- q7&#45;&gt;qTOKEN_EOF -->
<g id="edge28" class="edge">
<title>q7&#45;&gt;qTOKEN_EOF</title>
<path fill="none" stroke="black" d="M586.23,-1221.14C693.72,-1216.23 1204.39,-1192.89 1404.46,-1183.74"/>
<polygon fill="black" stroke="black" points="1404.41,-1187.25 1414.24,-1183.3 1404.09,-1180.26 1404.41,-1187.25"/>
<text xml:space="preserve" text-anchor="middle" x="1022.61" y="-1227.41" font-family="Arial" font-size="16.00">EOF</text>
<text xml:space="preserve" text-anchor="middle" x="1022.61" y="-1208.66" font-family="Arial" font-size="16.00">(comentário não fechado)</text>
</g>
<!-- q3&#45;&gt;q3 -->
<g id="edge12" class="edge">
<title>q3&#45;&gt;q3</title>
<path fill="none" stroke="black" d="M795.29,-2306.06C787.58,-2322.03 792.09,-2339.68 808.81,-2339.68 821.74,-2339.68 827.36,-2329.12 825.68,-2316.95"/>
<polygon fill="black" stroke="black" points="829.06,-2316.04 822.77,-2307.51 822.37,-2318.1 829.06,-2316.04"/>
<text xml:space="preserve" text-anchor="middle" x="808.81" y="-2343.23" font-family="Arial" font-size="16.00">[0&#45;9]</text>
</g>
<!-- q3&#45;&gt;q8 -->
<g id="edge13" class="edge">
<title>q3&#45;&gt;q8</title>
<path fill="none" stroke="black" d="M828.98,-2295.94C865.9,-2307.27 947.14,-2332.2 991.4,-2345.79"/>
<polygon fill="black" stroke="black" points="990.29,-2349.11 1000.88,-2348.7 992.35,-2342.42 990.29,-2349.11"/>
<text xml:space="preserve" text-anchor="middle" x="900.36" y="-2324.16" font-family="Arial" font-size="16.00">E e</text>
</g>
<!-- qNUM_REAL -->
<g id="node19" class="node">
<title>qNUM_REAL</title>
<ellipse fill="none" stroke="black" cx="1755.66" cy="-2250.06" rx="60.05" ry="60.05"/>
<ellipse fill="none" stroke="black" cx="1755.66" cy="-2250.06" rx="64.05" ry="64.05"/>
<text xml:space="preserve" text-anchor="middle" x="1755.66" y="-2244.63" font-family="Arial" font-size="14.00">NUM_REAL</text>
</g>
<!-- q3&#45;&gt;qNUM_REAL -->
<g id="edge14" class="edge">
<title>q3&#45;&gt;qNUM_REAL</title>
<path fill="none" stroke="black" d="M827.67,-2280.75C863.45,-2263 946.89,-2226.06 1021.61,-2226.06 1021.61,-2226.06 1021.61,-2226.06 1487.11,-2226.06 1552.75,-2226.06 1627.08,-2233.31 1680.71,-2239.84"/>
<polygon fill="black" stroke="black" points="1679.97,-2243.28 1690.33,-2241.03 1680.83,-2236.33 1679.97,-2243.28"/>
<text xml:space="preserve" text-anchor="middle" x="1237.86" y="-2248.36" font-family="Arial" font-size="16.00">outro</text>
<text xml:space="preserve" text-anchor="middle" x="1237.86" y="-2229.61" font-family="Arial" font-size="16.00">(lookahead)</text>
</g>
<!-- q9 -->
<g id="node13" class="node">
<title>q9</title>
<ellipse fill="none" stroke="black" cx="1237.86" cy="-2390.06" rx="20.63" ry="20.63"/>
<text xml:space="preserve" text-anchor="middle" x="1237.86" y="-2384.63" font-family="Arial" font-size="14.00">q9</text>
</g>
<!-- q8&#45;&gt;q9 -->
<g id="edge43" class="edge">
<title>q8&#45;&gt;q9</title>
<path fill="none" stroke="black" d="M1043.29,-2358.29C1080.5,-2364.39 1161.43,-2377.68 1205.96,-2384.98"/>
<polygon fill="black" stroke="black" points="1205.3,-2388.42 1215.73,-2386.59 1206.43,-2381.52 1205.3,-2388.42"/>
<text xml:space="preserve" text-anchor="middle" x="1154.98" y="-2402.01" font-family="Arial" font-size="16.00">+ &#45;</text>
<text xml:space="preserve" text-anchor="middle" x="1154.98" y="-2383.26" font-family="Arial" font-size="16.00">(sinal)</text>
</g>
<!-- q10 -->
<g id="node14" class="node">
<title>q10</title>
<ellipse fill="none" stroke="black" cx="1486.11" cy="-2307.06" rx="25.62" ry="25.62"/>
<text xml:space="preserve" text-anchor="middle" x="1486.11" y="-2301.63" font-family="Arial" font-size="14.00">q10</text>
</g>
<!-- q8&#45;&gt;q10 -->
<g id="edge44" class="edge">
<title>q8&#45;&gt;q10</title>
<path fill="none" stroke="black" d="M1043.41,-2352.84C1075.33,-2349.27 1140.15,-2342.08 1195.11,-2336.31 1286.53,-2326.7 1394.25,-2316 1449.09,-2310.59"/>
<polygon fill="black" stroke="black" points="1449.16,-2314.1 1458.77,-2309.64 1448.48,-2307.13 1449.16,-2314.1"/>
<text xml:space="preserve" text-anchor="middle" x="1237.86" y="-2339.86" font-family="Arial" font-size="16.00">[0&#45;9]</text>
</g>
<!-- q9&#45;&gt;qTOKEN_ERROR -->
<g id="edge47" class="edge">
<title>q9&#45;&gt;qTOKEN_ERROR</title>
<path fill="none" stroke="black" d="M1258.7,-2392.5C1287.21,-2396.44 1341.09,-2405.56 1384.11,-2422.56 1390.97,-2425.27 1397.92,-2428.41 1404.79,-2431.8"/>
<polygon fill="black" stroke="black" points="1402.94,-2434.78 1413.44,-2436.23 1406.14,-2428.55 1402.94,-2434.78"/>
<text xml:space="preserve" text-anchor="middle" x="1341.36" y="-2444.86" font-family="Arial" font-size="16.00">outro</text>
<text xml:space="preserve" text-anchor="middle" x="1341.36" y="-2426.11" font-family="Arial" font-size="16.00">(lookahead)</text>
</g>
<!-- q9&#45;&gt;q10 -->
<g id="edge45" class="edge">
<title>q9&#45;&gt;q10</title>
<path fill="none" stroke="black" d="M1257.67,-2383.46C1269.43,-2379.35 1284.89,-2373.98 1298.61,-2369.31 1351.46,-2351.31 1412.92,-2330.89 1450.41,-2318.5"/>
<polygon fill="black" stroke="black" points="1451.4,-2321.86 1459.8,-2315.4 1449.2,-2315.21 1451.4,-2321.86"/>
<text xml:space="preserve" text-anchor="middle" x="1341.36" y="-2372.86" font-family="Arial" font-size="16.00">[0&#45;9]</text>
</g>
<!-- q10&#45;&gt;q10 -->
<g id="edge46" class="edge">
<title>q10&#45;&gt;q10</title>
<path fill="none" stroke="black" d="M1465.76,-2323.27C1452.19,-2341.19 1458.97,-2361.67 1486.11,-2361.67 1508.38,-2361.67 1516.94,-2347.89 1511.81,-2333.04"/>
<polygon fill="black" stroke="black" points="1515.06,-2331.69 1507.19,-2324.6 1508.92,-2335.05 1515.06,-2331.69"/>
<text xml:space="preserve" text-anchor="middle" x="1486.11" y="-2365.22" font-family="Arial" font-size="16.00">[0&#45;9]</text>
</g>
<!-- q10&#45;&gt;qNUM_REAL -->
<g id="edge48" class="edge">
<title>q10&#45;&gt;qNUM_REAL</title>
<path fill="none" stroke="black" d="M1511.33,-2301.9C1549.37,-2293.79 1624.67,-2277.75 1681.48,-2265.65"/>
<polygon fill="black" stroke="black" points="1682.05,-2269.1 1691.1,-2263.6 1680.59,-2262.26 1682.05,-2269.1"/>
<text xml:space="preserve" text-anchor="middle" x="1630.87" y="-2307.64" font-family="Arial" font-size="16.00">outro</text>
<text xml:space="preserve" text-anchor="middle" x="1630.87" y="-2288.89" font-family="Arial" font-size="16.00">(lookahead)</text>
</g>
<!-- q11&#45;&gt;q2 -->
<g id="edge38" class="edge">
<title>q11&#45;&gt;q2</title>
<path fill="none" stroke="black" d="M293.19,-2085.01C311.01,-2093.57 336.97,-2105.27 360.61,-2113.06 419.72,-2132.53 439.44,-2120.9 497.11,-2144.31 511.51,-2150.15 526.39,-2158.88 538.47,-2166.76"/>
<polygon fill="black" stroke="black" points="536.38,-2169.57 546.63,-2172.25 540.29,-2163.76 536.38,-2169.57"/>
<text xml:space="preserve" text-anchor="middle" x="428.86" y="-2147.86" font-family="Arial" font-size="16.00">[0&#45;9]</text>
</g>
<!-- qOP_AD -->
<g id="node26" class="node">
<title>qOP_AD</title>
<ellipse fill="none" stroke="black" cx="565.18" cy="-2074.06" rx="41.58" ry="41.58"/>
<ellipse fill="none" stroke="black" cx="565.18" cy="-2074.06" rx="45.58" ry="45.58"/>
<text xml:space="preserve" text-anchor="middle" x="565.18" y="-2068.63" font-family="Arial" font-size="14.00">OP_AD</text>
</g>
<!-- q11&#45;&gt;qOP_AD -->
<g id="edge39" class="edge">
<title>q11&#45;&gt;qOP_AD</title>
<path fill="none" stroke="black" d="M295.51,-2073.54C313.48,-2073.18 338.57,-2072.74 360.61,-2072.56 421.27,-2072.05 436.44,-2071.88 497.11,-2072.56 500.72,-2072.6 504.44,-2072.65 508.19,-2072.71"/>
<polygon fill="black" stroke="black" points="507.87,-2076.2 517.93,-2072.89 508,-2069.21 507.87,-2076.2"/>
<text xml:space="preserve" text-anchor="middle" x="428.86" y="-2094.86" font-family="Arial" font-size="16.00">outro</text>
<text xml:space="preserve" text-anchor="middle" x="428.86" y="-2076.11" font-family="Arial" font-size="16.00">(lookahead)</text>
</g>
<!-- q12&#45;&gt;q2 -->
<g id="edge41" class="edge">
<title>q12&#45;&gt;q2</title>
<path fill="none" stroke="black" d="M293.99,-1959.05C312.03,-1966.95 337.91,-1978.26 360.61,-1988.06 421.17,-2014.19 455.38,-1995.22 497.11,-2046.31 522.29,-2077.14 496.57,-2098.82 515.11,-2134.06 521.26,-2145.76 530.91,-2156.63 540.04,-2165.31"/>
<polygon fill="black" stroke="black" points="537.58,-2167.81 547.36,-2171.9 542.27,-2162.61 537.58,-2167.81"/>
<text xml:space="preserve" text-anchor="middle" x="428.86" y="-2049.86" font-family="Arial" font-size="16.00">[0&#45;9]</text>
</g>
<!-- qOP_MIN -->
<g id="node27" class="node">
<title>qOP_MIN</title>
<ellipse fill="none" stroke="black" cx="565.18" cy="-1949.06" rx="46.07" ry="46.07"/>
<ellipse fill="none" stroke="black" cx="565.18" cy="-1949.06" rx="50.07" ry="50.07"/>
<text xml:space="preserve" text-anchor="middle" x="565.18" y="-1943.63" font-family="Arial" font-size="14.00">OP_MIN</text>
</g>
<!-- q12&#45;&gt;qOP_MIN -->
<g id="edge42" class="edge">
<title>q12&#45;&gt;qOP_MIN</title>
<path fill="none" stroke="black" d="M296.27,-1948.52C314.19,-1948.17 338.88,-1947.74 360.61,-1947.56 421.27,-1947.05 436.44,-1946.88 497.11,-1947.56 499.16,-1947.58 501.24,-1947.61 503.35,-1947.64"/>
<polygon fill="black" stroke="black" points="503.16,-1951.13 513.22,-1947.8 503.28,-1944.13 503.16,-1951.13"/>
<text xml:space="preserve" text-anchor="middle" x="428.86" y="-1969.86" font-family="Arial" font-size="16.00">outro</text>
<text xml:space="preserve" text-anchor="middle" x="428.86" y="-1951.11" font-family="Arial" font-size="16.00">(lookahead)</text>
</g>
</g>
</svg>
