<?xml version="1.0" encoding="UTF-8" standalone="no"?>
<!DOCTYPE svg PUBLIC "-//W3C//DTD SVG 1.1//EN"
 "http://www.w3.org/Graphics/SVG/1.1/DTD/svg11.dtd">
<!-- Generated by graphviz version 14.1.4 (20260321.0153)
 -->
<!-- Title: AFD Pages: 1 -->
<svg width="1331pt" height="2198pt"
 viewBox="0.00 0.00 1331.00 2198.00" xmlns="http://www.w3.org/2000/svg" xmlns:xlink="http://www.w3.org/1999/xlink">
<g id="graph0" class="graph" transform="scale(1 1) rotate(0) translate(57.6 2140.75)">
<title>AFD</title>
<polygon fill="white" stroke="none" points="-57.6,57.6 -57.6,-2140.75 1273.28,-2140.75 1273.28,57.6 -57.6,57.6"/>
<!-- inicio -->
<g id="node1" class="node">
<title>inicio</title>
</g>
<!-- q0 -->
<g id="node2" class="node">
<title>q0</title>
<ellipse fill="none" stroke="black" cx="35.18" cy="-1246.06" rx="35.18" ry="35.18"/>
<text xml:space="preserve" text-anchor="middle" x="35.18" y="-1248.51" font-family="Arial" font-size="14.00">q0</text>
<text xml:space="preserve" text-anchor="middle" x="35.18" y="-1232.76" font-family="Arial" font-size="14.00">inicial</text>
</g>
<!-- inicio&#45;&gt;q0 -->
<g id="edge1" class="edge">
<title>inicio&#45;&gt;q0</title>
<path fill="none" stroke="black" d="M35.18,-1339.08C35.18,-1323.66 35.18,-1308.25 35.18,-1292.83"/>
<polygon fill="black" stroke="black" points="38.68,-1293.12 35.18,-1283.12 31.68,-1293.12 38.68,-1293.12"/>
</g>
<!-- q1 -->
<g id="node3" class="node">
<title>q1</title>
<ellipse fill="none" stroke="black" cx="335.11" cy="-1979.06" rx="20.63" ry="20.63"/>
<text xml:space="preserve" text-anchor="middle" x="335.11" y="-1973.63" font-family="Arial" font-size="14.00">q1</text>
</g>
<!-- q0&#45;&gt;q1 -->
<g id="edge4" class="edge">
<title>q0&#45;&gt;q1</title>
<path fill="none" stroke="black" d="M52.7,-1277.07C59.45,-1291.28 66.56,-1308.6 70.36,-1325.06 90.17,-1410.89 53.79,-1640.03 88.36,-1721.06 136.02,-1832.77 255.14,-1924.89 308.06,-1961.76"/>
<polygon fill="black" stroke="black" points="305.96,-1964.56 316.19,-1967.33 309.92,-1958.79 305.96,-1964.56"/>
<text xml:space="preserve" text-anchor="middle" x="160.73" y="-1902.59" font-family="Arial" font-size="16.00">[a&#45;z][A&#45;Z]</text>
</g>
<!-- q2 -->
<g id="node4" class="node">
<title>q2</title>
<ellipse fill="none" stroke="black" cx="335.11" cy="-1810.06" rx="20.63" ry="20.63"/>
<text xml:space="preserve" text-anchor="middle" x="335.11" y="-1804.63" font-family="Arial" font-size="14.00">q2</text>
</g>
<!-- q0&#45;&gt;q2 -->
<g id="edge7" class="edge">
<title>q0&#45;&gt;q2</title>
<path fill="none" stroke="black" d="M52.28,-1277.17C58.95,-1291.4 66.11,-1308.71 70.36,-1325.06 90.47,-1402.44 58.07,-1430.06 88.36,-1504.06 114.93,-1568.99 257.77,-1727.46 312.64,-1786.97"/>
<polygon fill="black" stroke="black" points="309.97,-1789.25 319.33,-1794.21 315.11,-1784.49 309.97,-1789.25"/>
<text xml:space="preserve" text-anchor="middle" x="160.73" y="-1698.79" font-family="Arial" font-size="16.00">[0&#45;9]</text>
</g>
<!-- q4 -->
<g id="node5" class="node">
<title>q4</title>
<ellipse fill="none" stroke="black" cx="335.11" cy="-1536.06" rx="20.63" ry="20.63"/>
<text xml:space="preserve" text-anchor="middle" x="335.11" y="-1530.63" font-family="Arial" font-size="14.00">q4</text>
</g>
<!-- q0&#45;&gt;q4 -->
<g id="edge13" class="edge">
<title>q0&#45;&gt;q4</title>
<path fill="none" stroke="black" d="M50.13,-1278.13C63.64,-1308.81 82.86,-1351.4 88.36,-1358.06 152.09,-1435.28 256.64,-1495.95 306.28,-1522.08"/>
<polygon fill="black" stroke="black" points="304.45,-1525.07 314.94,-1526.57 307.67,-1518.86 304.45,-1525.07"/>
<text xml:space="preserve" text-anchor="middle" x="160.73" y="-1481.81" font-family="Arial" font-size="16.00">: (dois pontos)</text>
</g>
<!-- q5 -->
<g id="node6" class="node">
<title>q5</title>
<ellipse fill="none" stroke="black" cx="335.11" cy="-1344.06" rx="20.63" ry="20.63"/>
<text xml:space="preserve" text-anchor="middle" x="335.11" y="-1338.63" font-family="Arial" font-size="14.00">q5</text>
</g>
<!-- q0&#45;&gt;q5 -->
<g id="edge16" class="edge">
<title>q0&#45;&gt;q5</title>
<path fill="none" stroke="black" d="M60.68,-1270.92C68.89,-1278.04 78.47,-1285.18 88.36,-1290.06 160.04,-1325.43 254.81,-1337.82 303.04,-1342.02"/>
<polygon fill="black" stroke="black" points="302.5,-1345.48 312.75,-1342.79 303.06,-1338.51 302.5,-1345.48"/>
<text xml:space="preserve" text-anchor="middle" x="160.73" y="-1336.26" font-family="Arial" font-size="16.00">&lt; (menor que)</text>
</g>
<!-- q6 -->
<g id="node7" class="node">
<title>q6</title>
<ellipse fill="none" stroke="black" cx="335.11" cy="-1274.06" rx="20.63" ry="20.63"/>
<text xml:space="preserve" text-anchor="middle" x="335.11" y="-1268.63" font-family="Arial" font-size="14.00">q6</text>
</g>
<!-- q0&#45;&gt;q6 -->
<g id="edge20" class="edge">
<title>q0&#45;&gt;q6</title>
<path fill="none" stroke="black" d="M70.65,-1249.3C129.16,-1254.79 247,-1265.87 303.09,-1271.14"/>
<polygon fill="black" stroke="black" points="302.6,-1274.61 312.88,-1272.06 303.25,-1267.64 302.6,-1274.61"/>
<text xml:space="preserve" text-anchor="middle" x="160.73" y="-1267.75" font-family="Arial" font-size="16.00">&gt; (maior que)</text>
</g>
<!-- q7 -->
<g id="node8" class="node">
<title>q7</title>
<ellipse fill="none" stroke="black" cx="335.11" cy="-1148.06" rx="20.63" ry="20.63"/>
<text xml:space="preserve" text-anchor="middle" x="335.11" y="-1142.63" font-family="Arial" font-size="14.00">q7</text>
</g>
<!-- q0&#45;&gt;q7 -->
<g id="edge23" class="edge">
<title>q0&#45;&gt;q7</title>
<path fill="none" stroke="black" d="M67.97,-1232.71C74.65,-1230.11 81.69,-1227.5 88.36,-1225.31 151.55,-1204.47 169.81,-1207.57 233.11,-1187.06 257.74,-1179.07 285.1,-1168.39 305.13,-1160.22"/>
<polygon fill="black" stroke="black" points="306.4,-1163.49 314.32,-1156.44 303.74,-1157.01 306.4,-1163.49"/>
<text xml:space="preserve" text-anchor="middle" x="160.73" y="-1228.86" font-family="Arial" font-size="16.00">{ (abre comentário)</text>
</g>
<!-- qTOKEN_EOF -->
<g id="node9" class="node">
<title>qTOKEN_EOF</title>
<ellipse fill="none" stroke="black" cx="335.11" cy="-1028.06" rx="66.03" ry="66.03"/>
<ellipse fill="none" stroke="black" cx="335.11" cy="-1028.06" rx="70.03" ry="70.03"/>
<text xml:space="preserve" text-anchor="middle" x="335.11" y="-1022.63" font-family="Arial" font-size="14.00">TOKEN_EOF</text>
</g>
<!-- q0&#45;&gt;qTOKEN_EOF -->
<g id="edge3" class="edge">
<title>q0&#45;&gt;qTOKEN_EOF</title>
<path fill="none" stroke="black" d="M38.72,-1210.7C43.14,-1175.74 55.24,-1123.13 88.36,-1092.31 132.71,-1051.01 200.26,-1035.54 253.32,-1030.06"/>
<polygon fill="black" stroke="black" points="253.61,-1033.55 263.25,-1029.15 252.97,-1026.58 253.61,-1033.55"/>
<text xml:space="preserve" text-anchor="middle" x="160.73" y="-1095.86" font-family="Arial" font-size="16.00">EOF</text>
</g>
<!-- qTOKEN_ERROR -->
<g id="node10" class="node">
<title>qTOKEN_ERROR</title>
<ellipse fill="none" stroke="black" cx="335.11" cy="-845.06" rx="80.01" ry="80.01"/>
<ellipse fill="none" stroke="black" cx="335.11" cy="-845.06" rx="84.01" ry="84.01"/>
<text xml:space="preserve" text-anchor="middle" x="335.11" y="-839.63" font-family="Arial" font-size="14.00">TOKEN_ERROR</text>
</g>
<!-- q0&#45;&gt;qTOKEN_ERROR -->
<g id="edge2" class="edge">
<title>q0&#45;&gt;qTOKEN_ERROR</title>
<path fill="none" stroke="black" d="M39.71,-1211.05C46.53,-1149.23 63.07,-1023.89 88.36,-988.56 126.5,-935.26 191.1,-898.66 244.5,-875.77"/>
<polygon fill="black" stroke="black" points="245.74,-879.05 253.62,-871.96 243.05,-872.59 245.74,-879.05"/>
<text xml:space="preserve" text-anchor="middle" x="160.73" y="-1010.86" font-family="Arial" font-size="16.00">outro</text>
<text xml:space="preserve" text-anchor="middle" x="160.73" y="-992.11" font-family="Arial" font-size="16.00">(char inválido)</text>
</g>
<!-- q8 -->
<g id="node12" class="node">
<title>q8</title>
<ellipse fill="none" stroke="black" cx="856.03" cy="-717.06" rx="20.63" ry="20.63"/>
<text xml:space="preserve" text-anchor="middle" x="856.03" y="-711.63" font-family="Arial" font-size="14.00">q8</text>
</g>
<!-- q0&#45;&gt;q8 -->
<g id="edge26" class="edge">
<title>q0&#45;&gt;q8</title>
<path fill="none" stroke="black" d="M37.8,-1210.7C42.05,-1129.27 55.56,-931.09 88.36,-874.06 134.23,-794.28 164.89,-778.23 251.11,-746.06 458.16,-668.78 733.14,-699 824.26,-712.17"/>
<polygon fill="black" stroke="black" points="823.49,-715.59 833.9,-713.6 824.52,-708.67 823.49,-715.59"/>
<text xml:space="preserve" text-anchor="middle" x="486.24" y="-706.46" font-family="Arial" font-size="16.00">= + &#45; * / ; , ( ) .</text>
</g>
<!-- q1&#45;&gt;q1 -->
<g id="edge5" class="edge">
<title>q1&#45;&gt;q1</title>
<path fill="none" stroke="black" d="M317.3,-1990.27C298.77,-2007.26 304.71,-2028.68 335.11,-2028.68 360.53,-2028.68 368.85,-2013.71 360.07,-1998.88"/>
<polygon fill="black" stroke="black" points="362.97,-1996.89 353.89,-1991.44 357.59,-2001.37 362.97,-1996.89"/>
<text xml:space="preserve" text-anchor="middle" x="335.11" y="-2032.23" font-family="Arial" font-size="16.00">[a&#45;z][A&#45;Z][0&#45;9]</text>
</g>
<!-- qID_KW -->
<g id="node13" class="node">
<title>qID_KW</title>
<ellipse fill="none" stroke="black" cx="611.93" cy="-2042.06" rx="37.09" ry="37.09"/>
<ellipse fill="none" stroke="black" cx="611.93" cy="-2042.06" rx="41.09" ry="41.09"/>
<text xml:space="preserve" text-anchor="middle" x="611.93" y="-2036.63" font-family="Arial" font-size="14.00">ID/KW</text>
</g>
<!-- q1&#45;&gt;qID_KW -->
<g id="edge6" class="edge">
<title>q1&#45;&gt;qID_KW</title>
<path fill="none" stroke="black" d="M355.44,-1983.49C397.53,-1993.14 498.67,-2016.32 560.33,-2030.46"/>
<polygon fill="black" stroke="black" points="559.35,-2033.82 569.88,-2032.65 560.92,-2027 559.35,-2033.82"/>
<text xml:space="preserve" text-anchor="middle" x="486.24" y="-2045.74" font-family="Arial" font-size="16.00">outro</text>
<text xml:space="preserve" text-anchor="middle" x="486.24" y="-2026.99" font-family="Arial" font-size="16.00">(lookahead)</text>
</g>
<!-- q2&#45;&gt;q2 -->
<g id="edge8" class="edge">
<title>q2&#45;&gt;q2</title>
<path fill="none" stroke="black" d="M317.3,-1821.27C298.77,-1838.26 304.71,-1859.68 335.11,-1859.68 360.53,-1859.68 368.85,-1844.71 360.07,-1829.88"/>
<polygon fill="black" stroke="black" points="362.97,-1827.89 353.89,-1822.44 357.59,-1832.37 362.97,-1827.89"/>
<text xml:space="preserve" text-anchor="middle" x="335.11" y="-1863.23" font-family="Arial" font-size="16.00">[0&#45;9]</text>
</g>
<!-- q3 -->
<g id="node11" class="node">
<title>q3</title>
<ellipse fill="none" stroke="black" cx="611.93" cy="-1915.06" rx="20.63" ry="20.63"/>
<text xml:space="preserve" text-anchor="middle" x="611.93" y="-1909.63" font-family="Arial" font-size="14.00">q3</text>
</g>
<!-- q2&#45;&gt;q3 -->
<g id="edge10" class="edge">
<title>q2&#45;&gt;q3</title>
<path fill="none" stroke="black" d="M354.16,-1818.67C374.21,-1828.1 407.65,-1843.43 437.12,-1855.06 486.87,-1874.69 545.96,-1894.32 580.84,-1905.55"/>
<polygon fill="black" stroke="black" points="579.66,-1908.85 590.25,-1908.56 581.8,-1902.18 579.66,-1908.85"/>
<text xml:space="preserve" text-anchor="middle" x="486.24" y="-1892.68" font-family="Arial" font-size="16.00">. (ponto)</text>
</g>
<!-- qNUM_INT -->
<g id="node14" class="node">
<title>qNUM_INT</title>
<ellipse fill="none" stroke="black" cx="611.93" cy="-1810.06" rx="51.06" ry="51.06"/>
<ellipse fill="none" stroke="black" cx="611.93" cy="-1810.06" rx="55.06" ry="55.06"/>
<text xml:space="preserve" text-anchor="middle" x="611.93" y="-1804.63" font-family="Arial" font-size="14.00">NUM_INT</text>
</g>
<!-- q2&#45;&gt;qNUM_INT -->
<g id="edge9" class="edge">
<title>q2&#45;&gt;qNUM_INT</title>
<path fill="none" stroke="black" d="M355.88,-1810.06C394.92,-1810.06 483.5,-1810.06 545.24,-1810.06"/>
<polygon fill="black" stroke="black" points="544.93,-1813.56 554.93,-1810.06 544.93,-1806.56 544.93,-1813.56"/>
<text xml:space="preserve" text-anchor="middle" x="486.24" y="-1832.36" font-family="Arial" font-size="16.00">outro</text>
<text xml:space="preserve" text-anchor="middle" x="486.24" y="-1813.61" font-family="Arial" font-size="16.00">(lookahead)</text>
</g>
<!-- qOP_ASS -->
<g id="node26" class="node">
<title>qOP_ASS</title>
<ellipse fill="none" stroke="black" cx="611.93" cy="-1675.06" rx="47.07" ry="47.07"/>
<ellipse fill="none" stroke="black" cx="611.93" cy="-1675.06" rx="51.07" ry="51.07"/>
<text xml:space="preserve" text-anchor="middle" x="611.93" y="-1669.63" font-family="Arial" font-size="14.00">OP_ASS</text>
</g>
<!-- q4&#45;&gt;qOP_ASS -->
<g id="edge14" class="edge">
<title>q4&#45;&gt;qOP_ASS</title>
<path fill="none" stroke="black" d="M354.14,-1545.18C394.41,-1565.54 493.03,-1615.43 555.67,-1647.11"/>
<polygon fill="black" stroke="black" points="553.92,-1650.15 564.43,-1651.54 557.08,-1643.9 553.92,-1650.15"/>
<text xml:space="preserve" text-anchor="middle" x="486.24" y="-1637.53" font-family="Arial" font-size="16.00">= (igual)</text>
</g>
<!-- qSMB_COL -->
<g id="node31" class="node">
<title>qSMB_COL</title>
<ellipse fill="none" stroke="black" cx="611.93" cy="-1536.06" rx="54.56" ry="54.56"/>
<ellipse fill="none" stroke="black" cx="611.93" cy="-1536.06" rx="58.56" ry="58.56"/>
<text xml:space="preserve" text-anchor="middle" x="611.93" y="-1530.63" font-family="Arial" font-size="14.00">SMB_COL</text>
</g>
<!-- q4&#45;&gt;qSMB_COL -->
<g id="edge15" class="edge">
<title>q4&#45;&gt;qSMB_COL</title>
<path fill="none" stroke="black" d="M355.88,-1536.06C394.23,-1536.06 480.37,-1536.06 541.92,-1536.06"/>
<polygon fill="black" stroke="black" points="541.6,-1539.56 551.6,-1536.06 541.6,-1532.56 541.6,-1539.56"/>
<text xml:space="preserve" text-anchor="middle" x="486.24" y="-1558.36" font-family="Arial" font-size="16.00">outro</text>
<text xml:space="preserve" text-anchor="middle" x="486.24" y="-1539.61" font-family="Arial" font-size="16.00">(lookahead)</text>
</g>
<!-- qOP_NE -->
<g id="node17" class="node">
<title>qOP_NE</title>
<ellipse fill="none" stroke="black" cx="611.93" cy="-1403.06" rx="41.58" ry="41.58"/>
<ellipse fill="none" stroke="black" cx="611.93" cy="-1403.06" rx="45.58" ry="45.58"/>
<text xml:space="preserve" text-anchor="middle" x="611.93" y="-1397.63" font-family="Arial" font-size="14.00">OP_NE</text>
</g>
<!-- q5&#45;&gt;qOP_NE -->
<g id="edge17" class="edge">
<title>q5&#45;&gt;qOP_NE</title>
<path fill="none" stroke="black" d="M355.44,-1348.2C396.5,-1357.02 493.74,-1377.9 555.71,-1391.2"/>
<polygon fill="black" stroke="black" points="554.86,-1394.6 565.37,-1393.28 556.33,-1387.75 554.86,-1394.6"/>
<text xml:space="preserve" text-anchor="middle" x="486.24" y="-1389.17" font-family="Arial" font-size="16.00">&gt; (maior que)</text>
</g>
<!-- qOP_LT -->
<g id="node18" class="node">
<title>qOP_LT</title>
<ellipse fill="none" stroke="black" cx="611.93" cy="-1285.06" rx="39.09" ry="39.09"/>
<ellipse fill="none" stroke="black" cx="611.93" cy="-1285.06" rx="43.09" ry="43.09"/>
<text xml:space="preserve" text-anchor="middle" x="611.93" y="-1279.63" font-family="Arial" font-size="14.00">OP_LT</text>
</g>
<!-- q5&#45;&gt;qOP_LT -->
<g id="edge19" class="edge">
<title>q5&#45;&gt;qOP_LT</title>
<path fill="none" stroke="black" d="M355.46,-1339.67C375.78,-1335.09 408.67,-1327.71 437.12,-1321.56 477.73,-1312.77 523.75,-1303.12 558.23,-1295.95"/>
<polygon fill="black" stroke="black" points="558.89,-1299.38 567.97,-1293.92 557.47,-1292.53 558.89,-1299.38"/>
<text xml:space="preserve" text-anchor="middle" x="486.24" y="-1343.86" font-family="Arial" font-size="16.00">outro</text>
<text xml:space="preserve" text-anchor="middle" x="486.24" y="-1325.11" font-family="Arial" font-size="16.00">(lookahead)</text>
</g>
<!-- qOP_LE -->
<g id="node19" class="node">
<title>qOP_LE</title>
<ellipse fill="none" stroke="black" cx="611.93" cy="-1169.06" rx="40.09" ry="40.09"/>
<ellipse fill="none" stroke="black" cx="611.93" cy="-1169.06" rx="44.09" ry="44.09"/>
<text xml:space="preserve" text-anchor="middle" x="611.93" y="-1163.63" font-family="Arial" font-size="14.00">OP_LE</text>
</g>
<!-- q5&#45;&gt;qOP_LE -->
<g id="edge18" class="edge">
<title>q5&#45;&gt;qOP_LE</title>
<path fill="none" stroke="black" d="M355.62,-1339.83C373.87,-1335.02 400.99,-1325.61 419.12,-1309.06 431.67,-1297.59 425.46,-1287.67 437.12,-1275.31 472.16,-1238.14 522.98,-1209.1 560.62,-1190.83"/>
<polygon fill="black" stroke="black" points="561.97,-1194.07 569.5,-1186.62 558.97,-1187.75 561.97,-1194.07"/>
<text xml:space="preserve" text-anchor="middle" x="486.24" y="-1278.86" font-family="Arial" font-size="16.00">= (igual)</text>
</g>
<!-- qOP_GT -->
<g id="node20" class="node">
<title>qOP_GT</title>
<ellipse fill="none" stroke="black" cx="611.93" cy="-1050.06" rx="42.08" ry="42.08"/>
<ellipse fill="none" stroke="black" cx="611.93" cy="-1050.06" rx="46.08" ry="46.08"/>
<text xml:space="preserve" text-anchor="middle" x="611.93" y="-1044.63" font-family="Arial" font-size="14.00">OP_GT</text>
</g>
<!-- q6&#45;&gt;qOP_GT -->
<g id="edge22" class="edge">
<title>q6&#45;&gt;qOP_GT</title>
<path fill="none" stroke="black" d="M355.96,-1271C375,-1267 403.15,-1258.12 419.12,-1239.06 442.38,-1211.28 416.2,-1189.13 437.12,-1159.56 466.93,-1117.42 518.58,-1087.92 557.86,-1070.25"/>
<polygon fill="black" stroke="black" points="559.17,-1073.5 566.93,-1066.29 556.37,-1067.08 559.17,-1073.5"/>
<text xml:space="preserve" text-anchor="middle" x="486.24" y="-1181.86" font-family="Arial" font-size="16.00">outro</text>
<text xml:space="preserve" text-anchor="middle" x="486.24" y="-1163.11" font-family="Arial" font-size="16.00">(lookahead)</text>
</g>
<!-- qOP_GE -->
<g id="node21" class="node">
<title>qOP_GE</title>
<ellipse fill="none" stroke="black" cx="611.93" cy="-928.06" rx="42.58" ry="42.58"/>
<ellipse fill="none" stroke="black" cx="611.93" cy="-928.06" rx="46.58" ry="46.58"/>
<text xml:space="preserve" text-anchor="middle" x="611.93" y="-922.63" font-family="Arial" font-size="14.00">OP_GE</text>
</g>
<!-- q6&#45;&gt;qOP_GE -->
<g id="edge21" class="edge">
<title>q6&#45;&gt;qOP_GE</title>
<path fill="none" stroke="black" d="M355.75,-1271.55C375.21,-1267.95 404.19,-1259.33 419.12,-1239.06 467.77,-1172.98 396.47,-1126.59 437.12,-1055.31 464.47,-1007.34 518.09,-972.37 558.57,-951.37"/>
<polygon fill="black" stroke="black" points="560.12,-954.51 567.47,-946.88 556.97,-948.26 560.12,-954.51"/>
<text xml:space="preserve" text-anchor="middle" x="486.24" y="-1058.86" font-family="Arial" font-size="16.00">= (igual)</text>
</g>
<!-- q7&#45;&gt;q0 -->
<g id="edge25" class="edge">
<title>q7&#45;&gt;q0</title>
<path fill="none" stroke="black" d="M315.4,-1141.28C271.79,-1126.77 161.58,-1097.47 88.36,-1142.56 67.62,-1155.33 54.82,-1179.16 47.1,-1200.74"/>
<polygon fill="black" stroke="black" points="43.86,-1199.39 44.08,-1209.98 50.51,-1201.57 43.86,-1199.39"/>
<text xml:space="preserve" text-anchor="middle" x="160.73" y="-1164.86" font-family="Arial" font-size="16.00">} (fecha comentário)</text>
<text xml:space="preserve" text-anchor="middle" x="160.73" y="-1146.11" font-family="Arial" font-size="16.00">(sem gerar token)</text>
</g>
<!-- q7&#45;&gt;q7 -->
<g id="edge24" class="edge">
<title>q7&#45;&gt;q7</title>
<path fill="none" stroke="black" d="M317.3,-1159.27C298.77,-1176.26 304.71,-1197.68 335.11,-1197.68 360.53,-1197.68 368.85,-1182.71 360.07,-1167.88"/>
<polygon fill="black" stroke="black" points="362.97,-1165.89 353.89,-1160.44 357.59,-1170.37 362.97,-1165.89"/>
<text xml:space="preserve" text-anchor="middle" x="335.11" y="-1219.98" font-family="Arial" font-size="16.00">qualquer char</text>
<text xml:space="preserve" text-anchor="middle" x="335.11" y="-1201.23" font-family="Arial" font-size="16.00">(exceto &#39;}&#39; e EOF)</text>
</g>
<!-- q3&#45;&gt;q3 -->
<g id="edge11" class="edge">
<title>q3&#45;&gt;q3</title>
<path fill="none" stroke="black" d="M595.87,-1928.77C583.74,-1945.29 589.09,-1964.68 611.93,-1964.68 630.12,-1964.68 637.22,-1952.37 633.21,-1939.01"/>
<polygon fill="black" stroke="black" points="636.34,-1937.43 628.67,-1930.12 630.1,-1940.62 636.34,-1937.43"/>
<text xml:space="preserve" text-anchor="middle" x="611.93" y="-1968.23" font-family="Arial" font-size="16.00">[0&#45;9]</text>
</g>
<!-- qNUM_REAL -->
<g id="node15" class="node">
<title>qNUM_REAL</title>
<ellipse fill="none" stroke="black" cx="856.03" cy="-1915.06" rx="60.05" ry="60.05"/>
<ellipse fill="none" stroke="black" cx="856.03" cy="-1915.06" rx="64.05" ry="64.05"/>
<text xml:space="preserve" text-anchor="middle" x="856.03" y="-1909.63" font-family="Arial" font-size="14.00">NUM_REAL</text>
</g>
<!-- q3&#45;&gt;qNUM_REAL -->
<g id="edge12" class="edge">
<title>q3&#45;&gt;qNUM_REAL</title>
<path fill="none" stroke="black" d="M632.74,-1915.06C664.6,-1915.06 728.86,-1915.06 780.12,-1915.06"/>
<polygon fill="black" stroke="black" points="780,-1918.56 790,-1915.06 780,-1911.56 780,-1918.56"/>
<text xml:space="preserve" text-anchor="middle" x="731.23" y="-1937.36" font-family="Arial" font-size="16.00">outro</text>
<text xml:space="preserve" text-anchor="middle" x="731.23" y="-1918.61" font-family="Arial" font-size="16.00">(lookahead)</text>
</g>
<!-- qOP_EQ -->
<g id="node16" class="node">
<title>qOP_EQ</title>
<ellipse fill="none" stroke="black" cx="1154.12" cy="-1294.06" rx="42.58" ry="42.58"/>
<ellipse fill="none" stroke="black" cx="1154.12" cy="-1294.06" rx="46.58" ry="46.58"/>
<text xml:space="preserve" text-anchor="middle" x="1154.12" y="-1288.63" font-family="Arial" font-size="14.00">OP_EQ</text>
</g>
<!-- q8&#45;&gt;qOP_EQ -->
<g id="edge27" class="edge">
<title>q8&#45;&gt;qOP_EQ</title>
<path fill="none" stroke="black" d="M858.55,-737.91C864.6,-816.37 889.08,-1092.94 938.07,-1164.06 976.93,-1220.46 1048.99,-1256.57 1098.93,-1276.07"/>
<polygon fill="black" stroke="black" points="1097.54,-1279.28 1108.13,-1279.56 1100.02,-1272.74 1097.54,-1279.28"/>
<text xml:space="preserve" text-anchor="middle" x="1006.32" y="-1267.1" font-family="Arial" font-size="16.00">= (igual)</text>
</g>
<!-- qOP_AD -->
<g id="node22" class="node">
<title>qOP_AD</title>
<ellipse fill="none" stroke="black" cx="1154.12" cy="-1173.06" rx="41.58" ry="41.58"/>
<ellipse fill="none" stroke="black" cx="1154.12" cy="-1173.06" rx="45.58" ry="45.58"/>
<text xml:space="preserve" text-anchor="middle" x="1154.12" y="-1167.63" font-family="Arial" font-size="14.00">OP_AD</text>
</g>
<!-- q8&#45;&gt;qOP_AD -->
<g id="edge28" class="edge">
<title>q8&#45;&gt;qOP_AD</title>
<path fill="none" stroke="black" d="M857.29,-738.13C858.95,-792.4 869.9,-939.3 938.07,-1034.06 979.07,-1091.04 1051.32,-1130.61 1100.66,-1152.57"/>
<polygon fill="black" stroke="black" points="1099.18,-1155.74 1109.74,-1156.52 1101.97,-1149.32 1099.18,-1155.74"/>
<text xml:space="preserve" text-anchor="middle" x="1006.32" y="-1141.75" font-family="Arial" font-size="16.00">+ (adição)</text>
</g>
<!-- qOP_MIN -->
<g id="node23" class="node">
<title>qOP_MIN</title>
<ellipse fill="none" stroke="black" cx="1154.12" cy="-1048.06" rx="46.07" ry="46.07"/>
<ellipse fill="none" stroke="black" cx="1154.12" cy="-1048.06" rx="50.07" ry="50.07"/>
<text xml:space="preserve" text-anchor="middle" x="1154.12" y="-1042.63" font-family="Arial" font-size="14.00">OP_MIN</text>
</g>
<!-- q8&#45;&gt;qOP_MIN -->
<g id="edge29" class="edge">
<title>q8&#45;&gt;qOP_MIN</title>
<path fill="none" stroke="black" d="M861.84,-737.1C871.34,-773.33 895.37,-850.69 938.07,-902.06 982.29,-955.23 1050.64,-997.07 1098.38,-1022.08"/>
<polygon fill="black" stroke="black" points="1096.7,-1025.15 1107.19,-1026.62 1099.9,-1018.93 1096.7,-1025.15"/>
<text xml:space="preserve" text-anchor="middle" x="1006.32" y="-1011.92" font-family="Arial" font-size="16.00">&#45; (subtração)</text>
</g>
<!-- qOP_MUL -->
<g id="node24" class="node">
<title>qOP_MUL</title>
<ellipse fill="none" stroke="black" cx="1154.12" cy="-916.06" rx="48.57" ry="48.57"/>
<ellipse fill="none" stroke="black" cx="1154.12" cy="-916.06" rx="52.57" ry="52.57"/>
<text xml:space="preserve" text-anchor="middle" x="1154.12" y="-910.63" font-family="Arial" font-size="14.00">OP_MUL</text>
</g>
<!-- q8&#45;&gt;qOP_MUL -->
<g id="edge30" class="edge">
<title>q8&#45;&gt;qOP_MUL</title>
<path fill="none" stroke="black" d="M870.77,-731.87C886.21,-748.04 912.48,-774.14 938.07,-793.06 988.62,-830.41 1051.52,-865.19 1096.21,-888.17"/>
<polygon fill="black" stroke="black" points="1094.46,-891.21 1104.96,-892.63 1097.64,-884.97 1094.46,-891.21"/>
<text xml:space="preserve" text-anchor="middle" x="1006.32" y="-879.9" font-family="Arial" font-size="16.00">* (multiplicação)</text>
</g>
<!-- qOP_DIV -->
<g id="node25" class="node">
<title>qOP_DIV</title>
<ellipse fill="none" stroke="black" cx="1154.12" cy="-786.06" rx="44.08" ry="44.08"/>
<ellipse fill="none" stroke="black" cx="1154.12" cy="-786.06" rx="48.08" ry="48.08"/>
<text xml:space="preserve" text-anchor="middle" x="1154.12" y="-780.63" font-family="Arial" font-size="14.00">OP_DIV</text>
</g>
<!-- q8&#45;&gt;qOP_DIV -->
<g id="edge31" class="edge">
<title>q8&#45;&gt;qOP_DIV</title>
<path fill="none" stroke="black" d="M876.46,-721.58C920.39,-731.82 1028.8,-757.08 1096.13,-772.77"/>
<polygon fill="black" stroke="black" points="1094.96,-776.1 1105.5,-774.96 1096.55,-769.28 1094.96,-776.1"/>
<text xml:space="preserve" text-anchor="middle" x="1006.32" y="-771.1" font-family="Arial" font-size="16.00">/ (divisão)</text>
</g>
<!-- qSMB_SEM -->
<g id="node27" class="node">
<title>qSMB_SEM</title>
<ellipse fill="none" stroke="black" cx="1154.12" cy="-649.06" rx="55.55" ry="55.55"/>
<ellipse fill="none" stroke="black" cx="1154.12" cy="-649.06" rx="59.55" ry="59.55"/>
<text xml:space="preserve" text-anchor="middle" x="1154.12" y="-643.63" font-family="Arial" font-size="14.00">SMB_SEM</text>
</g>
<!-- q8&#45;&gt;qSMB_SEM -->
<g id="edge32" class="edge">
<title>q8&#45;&gt;qSMB_SEM</title>
<path fill="none" stroke="black" d="M876.46,-712.59C918.01,-703.05 1017.26,-680.26 1084.86,-664.73"/>
<polygon fill="black" stroke="black" points="1085.4,-668.2 1094.36,-662.55 1083.83,-661.38 1085.4,-668.2"/>
<text xml:space="preserve" text-anchor="middle" x="1006.32" y="-700.51" font-family="Arial" font-size="16.00">; (ponto e vírgula)</text>
</g>
<!-- qSMB_COM -->
<g id="node28" class="node">
<title>qSMB_COM</title>
<ellipse fill="none" stroke="black" cx="1154.12" cy="-499.06" rx="57.55" ry="57.55"/>
<ellipse fill="none" stroke="black" cx="1154.12" cy="-499.06" rx="61.55" ry="61.55"/>
<text xml:space="preserve" text-anchor="middle" x="1154.12" y="-493.63" font-family="Arial" font-size="14.00">SMB_COM</text>
</g>
<!-- q8&#45;&gt;qSMB_COM -->
<g id="edge33" class="edge">
<title>q8&#45;&gt;qSMB_COM</title>
<path fill="none" stroke="black" d="M871.01,-702.61C886.67,-686.77 913.13,-660.99 938.07,-641.31 987.24,-602.51 1046.91,-563.63 1090.9,-536.34"/>
<polygon fill="black" stroke="black" points="1092.64,-539.38 1099.32,-531.15 1088.97,-533.43 1092.64,-539.38"/>
<text xml:space="preserve" text-anchor="middle" x="1006.32" y="-644.86" font-family="Arial" font-size="16.00">, (vírgula)</text>
</g>
<!-- qSMB_OPA -->
<g id="node29" class="node">
<title>qSMB_OPA</title>
<ellipse fill="none" stroke="black" cx="1154.12" cy="-350.06" rx="54.56" ry="54.56"/>
<ellipse fill="none" stroke="black" cx="1154.12" cy="-350.06" rx="58.56" ry="58.56"/>
<text xml:space="preserve" text-anchor="middle" x="1154.12" y="-344.63" font-family="Arial" font-size="14.00">SMB_OPA</text>
</g>
<!-- q8&#45;&gt;qSMB_OPA -->
<g id="edge34" class="edge">
<title>q8&#45;&gt;qSMB_OPA</title>
<path fill="none" stroke="black" d="M861.8,-696.75C871.37,-659.2 895.7,-577.57 938.07,-521.31 980.65,-464.77 1046.05,-416.27 1093.56,-385.47"/>
<polygon fill="black" stroke="black" points="1095.29,-388.51 1101.83,-380.17 1091.52,-382.62 1095.29,-388.51"/>
<text xml:space="preserve" text-anchor="middle" x="1006.32" y="-524.86" font-family="Arial" font-size="16.00">( (abre parêntese)</text>
</g>
<!-- qSMB_CPA -->
<g id="node30" class="node">
<title>qSMB_CPA</title>
<ellipse fill="none" stroke="black" cx="1154.12" cy="-205.06" rx="53.56" ry="53.56"/>
<ellipse fill="none" stroke="black" cx="1154.12" cy="-205.06" rx="57.56" ry="57.56"/>
<text xml:space="preserve" text-anchor="middle" x="1154.12" y="-199.63" font-family="Arial" font-size="14.00">SMB_CPA</text>
</g>
<!-- q8&#45;&gt;qSMB_CPA -->
<g id="edge35" class="edge">
<title>q8&#45;&gt;qSMB_CPA</title>
<path fill="none" stroke="black" d="M857.27,-696.26C858.85,-639.75 869.5,-480.47 938.07,-373.31 976.44,-313.35 1043.78,-265.84 1092.91,-236.81"/>
<polygon fill="black" stroke="black" points="1094.59,-239.88 1101.48,-231.83 1091.08,-233.83 1094.59,-239.88"/>
<text xml:space="preserve" text-anchor="middle" x="1006.32" y="-376.86" font-family="Arial" font-size="16.00">) (fecha parêntese)</text>
</g>
<!-- qSMB_DOT -->
<g id="node32" class="node">
<title>qSMB_DOT</title>
<ellipse fill="none" stroke="black" cx="1154.12" cy="-59.06" rx="55.06" ry="55.06"/>
<ellipse fill="none" stroke="black" cx="1154.12" cy="-59.06" rx="59.06" ry="59.06"/>
<text xml:space="preserve" text-anchor="middle" x="1154.12" y="-53.63" font-family="Arial" font-size="14.00">SMB_DOT</text>
</g>
<!-- q8&#45;&gt;qSMB_DOT -->
<g id="edge36" class="edge">
<title>q8&#45;&gt;qSMB_DOT</title>
<path fill="none" stroke="black" d="M858.43,-696.32C864.33,-613.54 889.14,-307.32 938.07,-225.31 974.05,-165.03 1040.82,-118.67 1090.46,-90.4"/>
<polygon fill="black" stroke="black" points="1092.11,-93.49 1099.14,-85.56 1088.7,-87.38 1092.11,-93.49"/>
<text xml:space="preserve" text-anchor="middle" x="1006.32" y="-228.86" font-family="Arial" font-size="16.00">. (ponto)</text>
</g>
</g>
</svg>
